<svg width="107" height="176" viewBox="0 0 107 176" fill="none" xmlns="http://www.w3.org/2000/svg">
<path fill-rule="evenodd" clip-rule="evenodd" d="M9.29803 160.611C9.23037 160.412 9.10172 160.271 9.03379 160.074C8.73735 160.126 8.84484 160.858 9.29803 160.611ZM22.3206 156.811C21.9434 156.833 21.9513 157.246 21.6473 157.342C21.475 156.749 22.1493 156.244 22.3206 156.811ZM14.6928 155.153C14.8753 154.903 15.2862 155.232 15.2286 155.29C15.1399 155.381 14.6494 155.251 14.6928 155.153ZM32.8008 152.322C33.2278 152.471 33.4823 152.252 33.7356 152.731C33.4061 152.613 32.8085 152.759 32.8008 152.322ZM7.7457 151.892L7.74493 151.892C7.65057 151.795 7.62813 151.648 7.68893 151.528C7.75064 151.407 7.88202 151.339 8.01631 151.358C8.05326 151.664 7.982 151.862 7.74647 151.892L7.7457 151.892ZM35.7563 151.27C35.775 151.428 35.9928 151.575 35.7534 151.672C35.7348 151.513 35.517 151.367 35.7563 151.27ZM36.4269 151.14C36.5874 150.97 36.933 151.086 37.0961 151.279C36.905 151.308 36.8685 151.497 36.6912 151.547C36.6617 151.352 36.4722 151.318 36.4269 151.14ZM43.6726 149.583C43.7553 149.545 44.1899 149.255 44.2082 149.587C43.9651 149.454 43.7585 149.98 43.6727 149.578L43.6726 149.583ZM40.7462 146.214L40.7454 146.214C40.7496 146.069 40.7034 145.928 40.6145 145.813L40.8814 145.815C41.0323 146 41.0255 146.137 40.7463 146.209L40.7462 146.214ZM14.4936 144.572C14.1536 144.71 13.9027 144.115 14.2295 144.033C14.2286 144.294 14.5945 144.201 14.4938 144.566L14.4936 144.572ZM15.4365 143.907L15.4356 143.907C15.4594 144.091 15.3425 144.265 15.1633 144.313C15.1676 144.167 15.1216 144.024 15.0329 143.908L15.4365 143.907ZM46.2532 144.239L46.2555 143.97L46.5224 143.972L46.5202 144.24L46.2532 144.239ZM7.29994 138.758C7.02328 138.874 6.70074 138.406 7.03123 138.353C7.04128 138.565 7.37226 138.46 7.29994 138.758ZM6.50204 137.815C6.5358 137.915 6.87656 137.957 6.77101 138.219C6.34083 138.156 5.99492 138.009 6.10759 137.41C6.32074 137.404 6.52248 137.507 6.64171 137.683C6.59149 137.631 6.47116 137.735 6.49807 137.815L6.50204 137.815ZM7.71287 137.017C7.46439 136.888 7.26285 137.416 7.17712 137.015C7.25585 136.976 7.69153 136.685 7.70891 137.017L7.71287 137.017ZM30.1052 134.349C30.078 134.539 30.1257 134.731 30.2366 134.886L29.8346 134.883C29.7968 134.577 29.868 134.38 30.1052 134.349ZM29.436 134.21C29.8394 134.708 29.8892 133.806 29.436 134.21ZM7.59806 133.528C7.46009 133.929 6.789 133.788 6.39421 133.923C6.50345 133.662 6.12697 133.649 6.1255 133.518C6.1268 133.462 6.52673 133.351 6.39522 133.119C6.18419 133.105 5.92998 133.133 5.99543 132.848C6.52787 133.08 7.49014 132.884 7.59806 133.528ZM30.1061 133.946C29.8557 133.913 30.1836 133.727 29.9741 133.677C29.8758 133.463 29.3178 133.703 29.4396 133.272C29.4192 133.052 30.2714 133.058 30.2438 133.278C29.8866 133.469 30.734 133.579 30.5068 134.083C30.3515 134.062 30.1282 134.099 30.1061 133.946ZM8.14135 132.33C7.97021 132.336 7.95612 132.501 7.73904 132.463C7.53265 132.131 8.19655 132.071 8.14135 132.33ZM26.6442 130.709C26.5968 130.212 26.6291 129.8 27.0528 129.774C26.913 130.149 26.8968 130.344 27.4514 130.312C27.4607 130.726 27.0428 130.709 26.6442 130.709ZM6.68972 129.107C6.2689 129.166 6.31325 128.766 6.15708 128.567C6.57678 128.505 6.5323 128.906 6.68972 129.107ZM9.93 125.776C10.1126 125.754 10.2829 125.869 10.3308 126.046C10.1483 126.067 9.97789 125.953 9.93 125.776ZM38.076 124.752C38.1667 125.108 37.7974 125.009 37.6657 125.15C37.577 124.792 37.9458 124.895 38.0726 124.754L38.076 124.752ZM8.22574 119.066L8.228 118.798C8.31738 118.798 8.4074 118.799 8.49651 118.8L8.49451 119.067C8.40423 119.068 8.31512 119.066 8.22574 119.066ZM10.6451 118.143C10.9124 118.417 10.5831 118.405 10.5064 118.678C10.141 118.688 10.2385 118.453 9.97081 118.675C10.0705 118.204 10.442 117.837 10.9149 117.744C10.9577 118.007 10.7308 118.007 10.6451 118.143ZM13.8603 118.164C13.8292 117.973 13.6411 117.936 13.5916 117.759C13.8712 117.645 14.194 118.111 13.8603 118.164ZM38.12 117.651C38.4549 117.631 38.5364 117.86 38.6527 118.057C38.3 118.093 38.0752 118.004 38.12 117.651ZM10.5192 117.339C10.719 117.363 11.0136 117.294 11.0542 117.476C10.8726 117.649 10.5513 117.65 10.5169 117.339L10.5192 117.339ZM13.1985 117.359C13.0063 117.162 13.0047 116.839 13.4693 116.953L13.4695 116.952C13.4923 117.137 13.3759 117.308 13.1966 117.356L13.1985 117.359ZM49.1206 115.445L49.3876 115.447C49.4693 115.454 49.546 115.468 49.5209 115.584C49.439 115.591 49.361 115.602 49.3843 115.717C49.4921 115.747 49.6484 115.722 49.6517 115.851C49.3024 115.885 49.0774 115.798 49.1206 115.445ZM43.1068 112.86C43.6886 112.808 42.9711 112.082 43.1068 112.86ZM65.2499 107.643C65.235 108.145 65.0972 108.025 65.2449 108.448C65.0362 108.564 64.7819 108.561 64.5751 108.443C64.7055 108.08 64.6397 107.52 65.2499 107.643ZM66.7226 107.921C66.7058 108.258 66.6929 108.61 66.3154 108.589L66.3155 108.588C66.2536 108.293 66.4316 108.001 66.7226 107.921ZM55.471 107.047C55.5106 107.401 55.1836 107.389 54.9333 107.446C54.8958 107.089 55.216 107.099 55.471 107.047ZM54.2668 106.906C53.812 107.31 53.8635 106.408 54.2668 106.906ZM71.962 105.81C72.2386 105.695 72.5613 106.161 72.2307 106.215C72.1957 106.028 72.0085 105.986 71.962 105.81ZM59.1067 104.388C59.4637 104.436 59.5575 104.742 59.6389 105.061C59.2627 105.033 59.0694 104.824 59.1067 104.388ZM62.3273 103.738C62.1004 103.737 62.2507 104.109 62.0565 104.143C62.0283 104.038 61.9457 103.987 61.7895 104.007C61.6506 103.664 62.2462 103.412 62.3273 103.738ZM67.8309 102.3C67.4959 102.32 67.4146 102.091 67.2981 101.895C67.6484 101.859 67.8758 101.947 67.83 102.301L67.8309 102.3ZM68.5023 102.17C68.1785 102.226 68.2128 101.924 67.8331 102.032L67.8322 102.032C67.8373 101.887 67.7905 101.744 67.7015 101.63C67.8442 101.534 68.3213 101.111 68.5066 101.5C67.9183 101.468 68.4879 101.979 68.5014 102.171L68.5023 102.17ZM103.754 100.524C103.693 100.102 104.117 100.172 104.161 99.8553C104.24 99.6208 104.004 99.0675 104.302 99.0537C104.337 99.3295 104.895 99.0894 104.835 99.4585L104.835 99.4577C104.68 99.5109 104.54 99.6034 104.431 99.7264C104.678 100.015 105.259 99.9737 105.365 100.403C104.985 100.511 105.019 100.213 104.696 100.264C104.727 100.44 104.506 100.33 104.427 100.397C104.348 100.465 104.441 100.779 104.153 100.662C104.134 100.503 103.944 100.514 103.754 100.524ZM103.76 99.586C103.83 100.059 103.283 99.9117 103.353 100.386C103.494 100.395 103.457 100.558 103.216 100.519C103.169 99.9745 103.274 99.5865 103.76 99.586ZM103.627 99.3167C103.477 99.0409 103.843 98.6744 103.901 99.0509C103.721 99.0493 103.774 99.2832 103.627 99.3167ZM12.9204 160.904C12.9273 160.986 12.9399 161.063 13.0537 161.041C13.0532 160.967 13.1634 160.889 13.1872 161.041C13.0628 161.307 12.5012 161.07 12.9204 160.904ZM13.591 160.909C13.3174 160.487 13.6842 160.735 13.9939 160.777C14.0518 160.503 14.006 160.215 13.8653 159.972C13.8014 159.55 14.5306 159.927 14.4046 159.439C14.5837 159.442 14.7623 159.442 14.9402 159.443C15.2852 159.478 14.754 159.673 14.9372 159.98C15.2709 159.72 15.6966 159.392 15.875 159.986C16.3325 159.706 15.9277 159.597 15.88 159.181C16.2608 159.162 16.1398 159.637 16.6822 159.454C16.6223 159.574 16.5631 159.694 16.4083 159.72C16.5761 160.056 17.0581 159.583 16.9476 159.187C17.1401 159.221 16.9902 159.587 17.2163 159.592C17.4446 159.642 17.47 159.49 17.49 159.327C17.5244 159.181 17.7573 159.237 17.7638 159.061C17.9203 159.089 17.8746 159.308 17.8946 159.463C18.05 159.443 18.1326 159.495 18.1616 159.6C18.4765 159.559 18.4614 159.187 18.7007 159.067C18.7669 158.916 18.45 158.987 18.4337 158.931C18.337 158.601 18.9076 158.437 18.8422 157.996C19.4034 158.029 19.4754 157.783 19.9133 158.004L19.9142 158.003C20.026 157.849 20.0756 157.658 20.0521 157.468C20.2064 157.579 20.3979 157.628 20.587 157.605C20.6846 157.11 20.1203 157.269 19.9215 157.065C19.9494 156.682 19.9374 156.333 19.5227 156.393C19.4094 156.771 19.7096 156.741 19.6528 157.063C19.5921 157.183 19.534 157.302 19.379 157.329C19.1435 157.288 19.4822 157.134 19.3818 156.927C19.3576 156.876 19.0231 156.854 18.9804 156.791C18.8977 156.663 19.1129 156.68 19.1169 156.658C19.1578 156.466 18.9171 156.503 19.1206 156.121C19.7148 156.165 20.4144 156.499 20.4633 155.728C20.6898 155.731 20.9096 155.731 21.1338 155.733C21.3811 156.004 20.8712 156.182 20.8618 156.267C20.8431 156.444 21.0805 156.314 21.129 156.402C21.2648 156.623 20.9835 156.738 20.9905 157.071C21.2898 157.154 21.1235 156.685 21.4007 156.673C21.5835 156.664 21.5132 156.314 21.5379 156.138C21.771 156.035 21.8604 156.237 21.9394 156.274L21.9407 156.275C22.0772 156.309 22.2115 156.354 22.3407 156.411C22.4521 156.519 22.3491 156.852 22.6094 156.816C22.5963 157.007 22.5843 157.196 22.7401 157.219C22.6955 157.749 22.2759 157.066 22.3351 157.618C22.5753 157.637 22.6199 157.456 22.8718 157.486C22.9542 157.059 22.6232 157.07 22.8766 156.816C23.3354 156.718 23.0439 157.362 23.5446 157.222C23.3789 157.009 23.4618 157.05 23.6808 156.822C23.8646 156.628 24.0807 156.304 24.3543 156.29C24.3932 156.07 24.2297 156.059 24.2237 155.887C24.5959 156.194 24.8866 155.757 25.2942 156.029C25.3594 155.659 24.7959 155.899 24.7614 155.623C25.0063 155.14 25.1296 155.863 25.4306 155.762L25.4327 155.36C25.719 155.297 25.6865 155.553 25.7014 155.764C25.9942 155.791 26.1285 155.657 26.1064 155.365C26.3929 155.669 26.5644 155.257 27.0442 155.371C27.118 155.19 26.9516 154.869 27.0491 154.702C27.1765 154.481 28.1927 154.545 27.3229 154.436C27.6347 154.032 27.8616 153.543 28.535 153.505L28.5337 153.504C28.3526 153.266 28.3546 152.936 28.5392 152.701C28.7977 152.715 28.3026 153.226 28.8037 153.237C28.6172 153.317 28.7799 153.753 28.5317 153.77C28.5426 154.113 29.0295 154.092 29.2009 153.909C29.275 153.767 28.9413 153.821 28.9338 153.773C28.9077 153.607 29.1432 153.716 29.203 153.641C29.3298 153.483 29.221 153.077 29.3416 152.972L29.3415 152.973C29.4552 153.063 29.5969 153.112 29.7428 153.11C29.744 153.426 29.509 153.503 29.6014 153.912C29.7823 153.936 29.7798 153.138 30.0063 153.643C30.2817 153.606 30.2758 153.286 30.4114 153.109C30.6104 153.11 30.4266 153.273 30.4105 153.244C30.6224 153.657 30.6182 153.093 31.0811 153.249C30.976 152.436 31.7396 152.699 32.0238 152.585C32.0361 152.394 32.0488 152.205 31.8916 152.182C31.8352 151.861 32.501 152.261 32.2965 151.783C32.6629 151.688 32.5647 152.052 32.8315 152.055C33.1434 152.057 33.4555 152.06 33.7684 152.061C33.9674 152.121 33.7146 152.232 33.7663 152.463C34.1032 152.481 34.1834 152.722 34.303 152.331C34.6109 152.599 34.4521 152.297 34.7059 152.199C34.6966 151.937 34.1309 152.477 34.3077 151.788C34.35 151.607 34.6435 151.678 34.8443 151.656C34.9665 151.766 35.059 151.905 35.113 152.061C35.5381 151.785 35.0514 151.37 35.5193 151.259C35.5007 151.011 35.0662 151.174 34.9858 150.988L34.9888 150.451C35.0491 150.253 35.1604 150.505 35.3909 150.454C35.553 150.279 35.4454 150.243 35.3935 150.053C35.502 150.079 35.526 150.189 35.6606 150.189C35.6808 150.568 35.2051 150.448 35.3879 150.991C35.6219 151.032 35.7096 150.974 35.7901 150.858C35.7754 150.879 35.9253 150.477 35.9265 150.591C35.9252 150.478 35.7745 150.458 35.7936 150.323C35.8324 150.058 36.0479 149.93 35.9321 149.654C36.3775 149.698 36.3039 150.263 36.3265 150.728C36.4041 150.929 36.6182 150.737 36.595 150.73C36.6837 150.761 36.8369 151 36.8607 151.004C37.0333 151.034 37.2845 150.717 37.3963 151.007C37.6919 151.026 37.4067 150.455 37.6692 150.339C38.0726 150.159 37.83 150.436 37.8056 149.937C38.0855 149.848 38.16 150.076 38.3406 150.074C38.6495 150.072 38.6487 149.821 39.0127 149.811C39.1515 150.311 38.5077 150.019 38.6057 150.477L38.6064 150.478C38.9749 150.55 39.3328 150.314 39.4132 149.948C39.823 149.853 39.9009 150.088 40.2163 150.09C40.5935 149.879 39.9177 149.37 40.3562 149.152C40.5209 149.228 40.2539 149.67 40.8891 149.557C40.7542 149.753 40.7046 149.994 40.7506 150.226C41.0893 150.234 40.915 150.128 40.887 149.959C40.9206 149.724 41.1193 149.66 41.4248 149.695C41.4999 149.399 41.1692 149.503 41.1561 149.29C41.0038 148.598 42.0869 149.156 42.0988 148.627C42.2342 148.716 42.2348 148.936 42.5039 148.899C42.6094 149.041 42.3659 149.153 42.3682 149.166C42.3934 149.333 42.5901 149.334 42.634 149.44C42.6975 149.587 42.5049 149.531 42.4978 149.571C42.4825 149.658 42.7871 149.962 42.4949 149.973C42.53 150.415 43.2064 149.751 42.7687 149.708C42.8575 149.572 43.0775 149.571 43.0386 149.308C43.0906 149.291 43.5728 149.691 43.5742 149.311C43.5773 148.952 43.8281 149.369 44.1115 149.314C43.9852 148.828 44.7142 149.206 44.6506 148.782C45.1552 148.845 45.2801 148.522 45.5921 148.381C45.6912 148.016 45.3272 148.107 45.3276 147.845C45.5687 148.02 46.0046 147.728 46.3981 147.986C46.4156 147.649 46.6523 147.571 46.4032 147.315C46.658 147.373 46.9792 147.368 46.936 147.721C47.2289 147.746 47.3628 147.615 47.3464 147.322C47.5426 147.322 47.7674 147.89 47.7485 147.325C48.1132 147.45 47.5613 147.745 47.7435 148.129C48.145 148.265 47.9819 147.831 48.0147 147.596L48.0141 147.595C48.2109 147.703 48.3909 147.84 48.5484 148C48.8968 148.075 48.7963 147.805 49.0864 147.735C49.1334 147.724 49.3227 147.776 49.3534 147.737C49.3841 147.697 48.991 147.051 49.4898 147.335C49.4806 147.145 49.4706 146.955 49.626 146.935C49.6063 146.778 49.3822 146.82 49.2248 146.797C48.9714 146.781 49.1352 146.354 48.8266 146.387C48.8486 146.262 49.1838 146.205 49.3632 146.255C49.4146 146.264 49.6051 146.524 49.6289 146.528C49.7003 146.541 49.878 146.403 50.0316 146.398C50.2714 146.388 50.4466 146.614 50.7008 146.536C50.8809 145.914 50.2591 146.085 50.437 145.462C50.6348 145.628 50.6368 145.975 50.8342 146.134L52.0404 146.143C52.1582 145.766 52.477 145.595 52.4559 145.073C52.0403 145.058 52.0704 145.493 51.5161 145.335L51.5166 145.068C51.5434 144.916 51.6521 144.994 51.6517 145.068C51.7879 144.937 51.925 144.806 52.0551 144.669L52.0565 144.67C52.2364 144.623 52.3526 144.449 52.328 144.265C51.9154 144.362 52.0736 143.896 51.6596 143.992C51.5768 144.268 51.4492 144.499 50.9874 144.391C50.8037 144.217 50.5942 143.754 50.9922 143.722C50.9017 143.656 50.7401 143.433 50.5871 143.449C50.3493 143.474 50.4063 143.627 50.0509 143.714C49.9931 143.727 49.8819 143.847 49.9144 143.846C49.8073 143.848 49.6981 143.651 49.5129 143.71C49.429 143.737 49.3968 144.131 48.9753 143.973C48.9125 143.688 49.1683 143.722 49.3802 143.705C49.54 143.439 49.137 143.5 49.1145 143.431C49.0398 143.213 49.3291 143.128 49.2516 142.895C48.9722 142.757 49.0664 143.111 48.9778 143.161C48.6763 143.341 48.4925 143.172 48.1737 143.155C48.2382 143.43 48.1299 143.941 47.7658 143.956C47.5816 143.965 47.7313 144.152 47.6302 144.223C47.529 144.295 47.4779 144.095 47.4968 144.087C47.1098 144.245 46.9591 144.705 46.5557 144.75C46.4896 144.74 46.4403 144.683 46.4411 144.616C46.4418 144.548 46.4913 144.492 46.5571 144.483C46.4995 144.302 46.4383 144.474 46.2885 144.48C46.3276 144.478 46.2216 144.264 46.156 144.344C45.9499 144.598 45.6383 144.324 45.3495 144.607C45.0421 144.911 45.3017 144.317 44.681 144.469L44.6817 144.47C44.4991 144.496 44.3189 144.54 44.1436 144.601C43.8905 144.749 43.9712 145.166 43.4723 144.865C43.8874 145.301 42.7923 144.972 43.0645 145.666C42.7723 145.69 42.6399 145.553 42.6663 145.256C42.2574 145.157 42.2709 145.484 41.862 145.385C42.0213 145.563 41.9119 145.596 41.8591 145.787L41.3234 145.785C41.3408 146.117 41.1094 146.2 41.0506 146.452C40.8239 146.451 40.6011 146.45 40.3816 146.447C40.3099 146.634 40.16 146.78 39.9712 146.846C39.9443 147.268 39.8715 147.645 39.4298 147.647C39.383 147.419 39.5368 147.395 39.7036 147.381C39.5794 147.081 39.4 146.807 39.1737 146.574C39.4082 146.311 39.0766 146.295 38.9092 146.037C38.8775 145.805 38.6811 145.73 38.3759 145.765C38.2636 146.147 38.1548 146.53 37.5674 146.43C37.2214 146.823 37.5834 147.227 37.1597 147.365C36.7424 146.991 37.1588 146.585 36.7638 146.291L36.7632 146.29C36.585 146.57 36.4884 146.893 36.4845 147.225C36.3297 147.286 36.4147 146.979 36.3515 146.956C36.1558 146.882 36.1001 147.095 35.9496 147.087C35.7991 147.08 35.774 146.85 35.6839 146.813C35.617 146.789 35.2847 147.108 35.2818 146.81C35.126 147.053 34.9752 146.903 34.6105 147.074L34.6112 147.075C34.5612 147.161 34.5162 147.25 34.4756 147.341C34.3812 147.356 34.248 147.134 34.0734 147.205C34.408 147.711 33.3585 147.774 32.8635 147.868C32.845 148.107 33.0254 148.152 32.9958 148.404C32.7103 148.467 32.7428 148.211 32.7269 148.001C32.4759 147.976 32.2065 147.983 32.1892 148.265C32.1775 148.461 31.8687 148.365 31.6515 148.529L31.6514 148.53C31.7433 148.743 31.7417 148.986 31.6465 149.199C31.3705 149.252 31.0852 149.202 30.8441 149.057C30.8664 148.81 31.298 148.977 31.3819 148.793C31.3797 148.662 31.2194 148.687 31.1155 148.657L31.1148 148.657C31.2266 148.503 31.2754 148.311 31.2526 148.122C30.9123 148.227 30.9076 148.67 30.7112 148.923C30.4761 148.673 30.296 148.954 30.1728 149.186C30.0371 149.099 30.0366 148.878 29.7735 148.917C30.2435 149.525 29.3596 149.694 28.9629 149.849C28.7667 150.576 29.3792 150.502 29.358 151.053C28.9371 151.113 28.982 150.714 28.8251 150.514C28.7163 150.445 28.378 150.6 28.2895 150.51C28.2826 150.509 28.295 150.376 28.2901 150.377C28.1772 150.376 27.7043 150.703 27.7566 150.106C26.9248 150.207 26.5798 150.805 26.1411 151.301C25.6849 151.054 25.4973 151.315 24.9349 151.293C24.9548 151.628 24.7263 151.709 24.5294 151.825L24.5287 151.825C24.1326 151.734 23.7209 151.732 23.3238 151.818C23.1623 151.666 23.0821 151.435 22.6552 151.546C22.6753 151.701 22.6235 151.784 22.5188 151.813C22.5043 152.177 22.7406 152.084 22.516 152.348C22.5599 152.602 22.2061 152.505 22.1112 152.617C22.0714 152.663 22.1537 152.852 22.1092 152.884C22.0646 152.917 21.8775 152.843 21.8407 152.882C21.6962 153.06 21.5197 152.922 21.0364 153.011C20.9931 153.019 20.9228 153.274 20.9007 153.278C20.5131 153.346 20.1294 153.221 19.6944 153.271C19.7247 153.525 19.4032 153.424 19.2895 153.539C19.1759 153.654 19.2758 153.976 19.0183 153.938C18.6847 153.843 19.2693 153.582 19.1575 153.27C18.797 153.175 18.8955 153.545 18.7526 153.669C18.4716 153.724 18.3982 153.575 18.2176 153.532L18.2197 153.533C18.267 153.355 18.4399 153.24 18.6231 153.264C18.6799 152.942 18.3811 152.972 18.4937 152.594C18.536 152.412 18.8292 152.485 19.0296 152.461L19.0331 151.926C18.8573 151.971 18.8218 152.16 18.6297 152.195L18.6304 152.195C18.6624 151.825 18.7554 151.464 18.9046 151.125C18.8857 150.967 19.0992 151.057 19.1731 150.993C19.2468 150.929 19.1779 150.62 19.4469 150.727C19.521 150.096 19.5793 149.886 19.1862 149.519C19.4422 149.332 19.6692 149.107 19.861 148.854L19.8662 148.183C19.9378 147.997 20.0877 147.851 20.2764 147.785C20.1218 147.429 20.538 146.997 20.2816 146.98C20.2443 146.819 20.4998 146.918 20.5505 146.85C20.699 146.649 20.6109 146.077 21.0914 146.182C20.7076 145.686 21.5041 145.461 22.0355 145.251C21.9999 144.945 22.0713 144.747 22.3067 144.717L22.306 144.717C22.1988 144.594 22.0603 144.5 21.9062 144.446C22.2129 144.128 21.97 143.281 22.312 143.911C22.3885 143.791 22.8681 143.422 22.5831 143.379L22.583 143.379C22.6917 143.256 22.8306 143.164 22.9863 143.11C22.7834 142.897 23.1825 142.365 22.7254 142.172C22.7843 141.973 22.8964 142.225 23.1261 142.174C23.4416 142.219 23.2022 142.81 23.659 142.713L23.6591 142.713C23.5407 142.604 23.5027 142.433 23.563 142.284C23.6241 142.135 23.7707 142.039 23.9312 142.044C23.8855 141.868 23.6964 141.833 23.6625 141.639L23.6624 141.64C23.6839 141.419 23.8007 141.219 23.982 141.092C24.1635 140.964 24.3915 140.923 24.6057 140.977C24.8508 140.875 24.526 140.833 24.3386 140.842C24.3145 140.548 24.4495 140.414 24.7421 140.441C24.6742 140.244 24.5463 140.103 24.4779 139.904C24.5607 139.918 24.7288 140.113 24.8794 140.04C24.965 139.998 24.7661 139.852 24.7468 139.904C24.7828 139.807 25.3684 139.483 25.2873 139.238C25.1082 139.236 24.9295 139.235 24.7517 139.235C24.6956 138.911 25.3611 139.313 25.1566 138.835C25.7144 138.951 25.7903 138.579 26.2305 138.572C26.1582 138.376 26.3912 137.88 26.1004 137.901C26.1874 137.789 26.7291 137.484 26.7719 137.771C26.9235 137.745 26.8469 137.637 26.7725 137.637C26.7998 137.482 26.7444 137.398 26.6397 137.368L26.6398 137.367C26.6885 137.19 26.8614 137.075 27.0439 137.098C26.7963 136.861 27.0806 136.684 27.3152 136.565C27.7324 136.769 26.9179 137.14 27.3102 137.369C27.5083 137.3 27.6485 137.173 27.8479 137.105C27.5229 136.75 28.2002 136.233 27.4508 136.298C27.6277 135.712 28.303 135.632 28.7971 135.369C28.4595 135.04 29.0803 135.086 28.9384 134.567C28.9608 134.409 29.1851 134.455 29.3414 134.435L29.3415 134.434C29.2936 134.257 29.1234 134.142 28.9416 134.163C28.9689 134.008 29.1881 134.053 29.3435 134.033C29.2625 133.913 29.1826 133.792 29.3457 133.764C29.1744 133.489 28.5948 133.618 28.545 133.223C28.5797 132.878 28.774 133.409 29.0807 133.226C29.1925 133.072 29.2421 132.881 29.2178 132.691C29.4266 132.722 29.8404 133.211 30.0209 132.833C30.3563 132.989 30.4665 133.365 30.9558 133.375C30.8439 132.902 31.1689 132.911 31.2244 133.242C31.5516 133.109 30.9655 132.647 31.6303 132.708C31.627 132.578 31.4661 132.603 31.3636 132.574C31.0895 132.487 31.329 131.895 30.8292 132.034C30.7698 131.613 31.1684 131.658 31.37 131.501C31.2635 131.168 31.445 130.812 31.777 130.7C32.2286 130.678 31.8776 131.121 31.9094 131.237C31.9943 131.567 32.241 131.671 32.3057 132.044C32.6224 131.849 32.5572 131.761 32.9772 131.914C32.9674 131.808 32.8239 131.774 32.8444 131.644C32.8756 131.467 33.0178 131.607 33.1128 131.512C33.2257 131.402 33.127 131.077 33.3852 131.107C33.4099 130.998 33.3332 130.985 33.2526 130.971C33.342 130.791 33.54 130.722 33.7904 130.706C33.684 130.242 34.0441 130.142 33.7954 129.902C33.8841 129.767 34.1041 129.766 34.0668 129.502L34.0652 129.502C34.2971 129.551 34.5386 129.504 34.7359 129.372C34.678 129.059 34.5739 129.003 34.8743 128.703C34.948 128.631 34.8548 128.577 35.011 128.57C35.1929 128.561 35.1782 128.205 35.2837 127.902C35.4135 127.906 35.386 128.067 35.4159 128.171C35.6681 128.181 35.5743 127.914 35.6882 127.766L35.6876 127.765C35.9281 127.482 36.2617 127.294 36.6281 127.235C36.1883 126.791 36.9903 126.917 36.9024 126.433C36.7673 126.432 36.6336 126.432 36.4994 126.431C36.3607 125.93 37.0038 126.221 36.9068 125.762C36.3331 125.799 36.7757 125.048 36.7788 124.824C36.8273 124.67 37.0179 124.486 37.0478 124.693C37.2017 124.574 36.9677 124.318 37.5858 124.427C37.7816 124.093 37.9138 123.904 37.7258 123.49C37.7614 123.212 38.3145 123.457 38.3971 123.227C38.4404 122.918 38.011 123.075 37.9988 122.816C37.9352 122.392 38.664 122.772 38.5379 122.284C37.8762 122.404 37.6106 122.134 37.7396 121.474C38.0381 121.535 38.0888 122.135 38.4051 122.149C38.7036 122.161 38.5952 121.942 38.8085 121.88C39.0675 121.936 38.8135 122.493 39.3427 122.286L39.3418 122.287C39.1662 121.982 38.9414 121.709 38.6778 121.478C38.704 121.369 38.8142 121.345 38.8135 121.211C39.2392 121.344 39.5493 121.711 39.6105 122.154C39.5211 122.333 39.3232 122.401 39.0728 122.417C39.0148 122.697 39.162 122.773 39.2049 122.955C39.1139 123.355 38.9196 122.824 38.6693 122.952C38.784 123.149 38.773 123.472 39.2021 123.358C39.3378 123.445 39.339 123.666 39.6021 123.627C39.4534 123.462 39.4878 123.352 39.7385 123.361C39.6224 123.252 39.6603 122.992 39.4698 122.956C39.6661 122.484 40.1876 122.743 40.4113 122.555C40.4364 122.22 40.2087 122.134 40.0127 122.017C40.1458 121.836 40.3729 121.75 40.5513 121.617C40.2603 121.339 40.6188 121.235 40.5571 120.813C40.141 121.127 39.7696 120.507 39.4887 120.27L39.4893 120.271C39.5988 120.148 39.7377 120.055 39.8934 120.002C40.055 119.965 39.9566 120.218 40.0256 120.27C40.1889 120.394 40.5939 120.174 40.5606 120.542C40.6426 120.342 40.8509 120.538 40.8276 120.544C41.1685 120.436 41.0719 120.163 41.634 120.281C41.5451 120.417 41.3252 120.418 41.3632 120.686C41.986 120.613 42.1698 120.875 42.5694 120.695C42.6668 120.331 41.9363 120.787 42.0345 120.423C42.013 120.043 42.912 120.591 42.7063 120.026C42.8993 120.219 43.1316 120.131 43.1112 119.758L43.1105 119.757C42.8783 119.804 42.6365 119.754 42.4421 119.618C42.4204 119.329 42.9174 119.561 43.1127 119.489C43.2038 119.192 42.8384 119.295 42.844 119.084C42.8504 118.926 43.2057 118.921 43.2488 118.815C43.3329 118.603 43.0372 118.513 43.1165 118.279C43.2039 118.007 43.7436 118.194 43.7884 117.882C43.8538 117.596 43.5994 117.621 43.3883 117.612C43.329 117.19 43.7517 117.26 43.7957 116.943C43.9407 116.978 43.8846 117.211 44.0614 117.217C44.2815 117.256 44.2929 117.093 44.4643 117.085C44.3721 116.729 43.8369 116.817 43.6635 116.544C43.7328 116.358 43.8804 116.212 44.0671 116.144C44.6642 116.045 44.2388 116.951 45.0018 116.688C44.9011 116.99 44.4897 116.977 44.4613 117.353C44.2329 117.303 44.2083 117.456 44.1874 117.619C44.3632 117.573 44.3989 117.384 44.5908 117.35C44.8497 118.062 43.791 117.436 44.0494 118.151C44.2776 118.202 44.3034 118.047 44.3231 117.886C44.4352 118.053 45.0238 118.415 44.7203 118.558C44.7504 118.903 44.9524 118.372 45.256 118.56C45.3071 118.334 45.1535 118.307 44.9903 118.287C44.9639 118.078 45.3015 118.244 45.3948 118.155C45.5053 118.048 45.3671 117.67 45.5311 117.619C45.6673 117.708 45.668 117.928 45.9363 117.892L45.9392 117.49C46.2184 117.548 46.295 117.401 46.4758 117.357C46.6112 117.446 46.6118 117.667 46.881 117.63L46.8824 117.631C46.7715 117.474 46.7248 117.282 46.7503 117.093C46.9622 117.106 47.2624 117.032 47.2853 117.23C47.6253 116.979 47.1647 116.761 47.4266 116.428C47.4489 116.18 47.8804 116.348 47.9646 116.162C48.3596 116.282 47.6528 116.361 47.8275 116.698C48.2344 116.705 48.1654 116.23 48.2353 115.897C47.8097 115.74 47.9085 116.104 47.6968 116.161C47.2872 116.025 47.8538 115.804 47.8353 115.626C48.1705 115.605 48.252 115.833 48.3682 116.031L48.3673 116.032C48.564 115.899 48.8063 115.852 49.0385 115.903C49.143 115.4 48.6903 115.447 48.5065 115.229C48.5803 114.954 49.1409 115.201 48.7788 114.824C49.1253 114.787 49.355 114.875 49.3116 115.229C49.4426 115.226 49.4162 115.067 49.4473 114.962C49.6022 114.989 49.6856 114.934 49.7167 114.829C50.0583 115.116 50.4769 114.712 50.6537 114.969L50.6539 114.968C50.834 114.853 50.9379 114.649 50.9243 114.435C51.426 114.738 51.836 113.97 52.4013 113.908C52.5202 113.476 52.1931 113.492 52.1376 113.237C52.2309 113.408 52.5345 113.408 52.6727 113.508C52.7684 113.562 52.8201 113.668 52.805 113.776C53.2307 113.739 53.5705 113.404 53.6147 112.979C53.894 113.037 53.9705 112.889 54.1514 112.846C54.0618 112.731 54.0156 112.589 54.0199 112.443C54.3568 112.462 54.4285 112.697 54.6905 112.449C54.7475 112.126 54.447 112.156 54.5604 111.778C54.5941 111.407 55.3164 111.734 55.234 111.246C55.6137 111.138 55.5799 111.437 55.9031 111.385C56.1759 111.47 55.9373 112.061 56.4361 111.923C56.6881 111.67 56.4528 111.586 56.441 111.254C56.684 111.164 56.8947 111.426 57.1102 111.393C57.2389 111.371 57.1696 111.025 57.2466 110.992C57.3008 110.967 57.5829 111.192 57.7816 111.129C57.8767 111.096 57.9835 110.809 58.0524 110.723C58.3763 110.667 58.3418 110.97 58.7216 110.862C58.8334 110.707 58.883 110.516 58.8587 110.327C59.2244 110.316 59.1274 110.552 59.3959 110.33C59.1011 110.131 59.512 110.031 59.5313 109.93C59.562 109.756 59.2542 109.572 59.5351 109.392C59.9104 109.596 60.317 109.735 60.7384 109.803C60.5837 109.452 61.156 109.229 60.6061 109.267C60.6488 108.993 60.9708 109.006 61.0119 108.732C61.25 108.808 61.5662 108.805 61.6803 109.005C62.027 108.681 62.2505 108.234 62.6259 107.94C62.9111 107.821 62.8034 108.135 62.8909 108.213C63.0257 108.323 63.3088 108.229 63.2963 108.484C63.7897 108.386 63.9691 107.809 64.234 108.491C64.5757 108.239 64.1144 108.016 64.3756 107.687C64.4628 107.552 64.6845 107.55 64.6455 107.287C65.0616 107.125 65.6604 107.806 65.7182 107.16C66.1526 106.998 65.8189 107.594 66.2517 107.431C66.1611 107.075 66.5302 107.175 66.6566 107.032C66.5638 106.949 66.4984 106.84 66.4684 106.718C66.654 106.374 67.2891 106.693 67.5395 106.726C67.4239 107.014 66.9509 106.938 66.7325 107.122C66.6165 107.682 66.9892 107.757 66.9962 108.197C67.2632 108.199 67.5318 108.2 67.8005 108.202C67.7174 107.714 68.0811 107.678 68.4741 107.67C68.3675 107.157 68.762 107.154 69.0146 107.004C69.2423 106.955 69.2674 107.109 69.2803 107.278C69.5874 107.465 69.786 106.935 69.816 107.281C69.9675 107.256 69.8909 107.148 69.8166 107.147C70.1707 106.768 70.2802 106.841 70.7581 106.746C70.797 106.526 70.6321 106.514 70.6259 106.343L70.6268 106.343C70.8417 106.151 71.0246 105.926 71.1676 105.676C71.9005 105.789 72.0189 105.279 72.3774 105.013C72.625 105.036 72.4571 105.467 72.6416 105.551C72.9777 105.574 73.2921 105.58 73.3137 105.288C73.4905 105.424 73.8112 105.417 73.8464 105.693C74.017 105.663 74.0245 105.293 73.8493 105.291C73.8976 105.116 74.087 105.082 74.1192 104.891C74.4918 105.348 74.7715 105.161 75.3228 105.3C75.3269 105.034 75.6924 105.133 75.594 104.767C75.9194 104.711 75.8904 105.014 76.2632 104.905C76.2126 104.631 76.427 104.618 76.5346 104.505C76.561 104.477 76.8017 104.246 76.8084 104.24C76.8366 104.17 76.4055 103.771 76.945 103.838C76.9324 103.505 76.6972 103.422 76.9499 103.168C77.2657 103.167 77.3428 103.402 77.753 103.31C77.8852 103.713 77.4527 103.547 77.2152 103.574C77.4047 103.984 77.1626 103.994 77.3424 104.513C77.9171 104.546 77.8917 104.071 78.4159 104.386C78.4662 104.159 78.3134 104.133 78.1502 104.112C78.4837 103.615 79.0555 104.199 79.4921 103.853C79.4749 103.52 79.0386 103.81 78.955 103.849C78.5835 103.714 78.7872 103.307 78.827 103.045C79.017 103.39 79.7444 103.207 79.7612 103.722C79.9696 103.827 79.9782 103.335 80.0311 103.322C80.121 103.297 80.5297 103.863 80.7018 103.192C80.7476 103.017 80.6404 102.8 80.8395 102.792C80.9958 102.785 80.9531 102.538 80.9759 102.391C80.9987 102.244 81.2226 102.279 81.3781 102.258L81.3773 102.258C81.4304 101.98 81.5231 101.71 81.6508 101.456C82.0714 101.394 82.0021 101.819 82.3173 101.862C82.1801 102.177 81.8539 102.292 81.3757 102.263C81.2915 102.79 81.6717 102.858 82.0414 102.937C82.0582 102.6 82.2908 102.469 82.4487 102.269C82.6051 102.297 82.5594 102.516 82.5795 102.671C82.892 102.634 83.2051 102.339 83.1144 102.943C83.26 102.849 83.4335 102.842 83.5177 102.674C83.4761 102.758 83.3763 102.584 83.3867 102.538C83.3696 102.635 83.5795 102.369 83.5233 102.405C83.6205 102.347 83.789 102.679 83.789 102.679C83.9742 102.646 83.8152 102.49 83.9253 102.412C83.9841 102.371 84.1364 102.458 84.1923 102.414C84.2489 102.371 84.2886 102.164 84.328 102.147C84.3941 102.118 84.5392 102.192 84.5965 102.15C84.8099 101.993 84.9136 101.638 85.2701 101.617C85.0674 101.48 85.5137 100.68 85.6763 100.816C85.6763 100.816 85.7311 101.053 85.8097 100.952C85.9546 100.772 85.9493 100.959 86.0768 101.088C86.4001 101.416 86.4625 101.291 86.881 100.959C87.0973 100.903 87.3278 101.461 87.0131 101.497L87.0142 101.495C87.3674 101.74 87.8183 101.793 88.2188 101.638C88.4299 101.513 88.2925 101.292 88.7555 101.506C88.9803 101.24 88.7446 101.335 88.7593 100.969C89.2096 101.25 89.5815 101.285 89.6991 100.707C90.0253 100.786 90.3871 100.829 90.3653 101.249C90.4736 101.155 90.733 101.042 90.7675 101.251L90.7682 101.251C90.9451 101.203 91.0607 101.032 91.0382 100.85C91.1932 100.878 91.2765 100.822 91.3068 100.717C91.6614 101.021 91.9906 100.522 92.2447 100.857C92.6558 100.93 92.3292 100.539 92.3808 100.457C92.4961 100.274 92.6008 100.439 92.7838 100.325C92.8257 100.299 92.7459 100.092 92.7861 100.057C92.8974 99.9632 93.0967 100.031 93.1887 99.926C93.2853 100.338 92.8188 100.18 92.916 100.594C93.1826 100.598 93.078 100.962 93.451 100.865C93.3421 100.487 93.6408 100.52 93.5879 100.196C94.322 100.227 94.4442 99.8437 95.0635 100.072C95.0788 100.313 94.9007 100.354 94.9265 100.607C95.4533 100.782 95.2763 100.243 95.4656 100.075C95.5348 99.8889 95.6824 99.7425 95.8699 99.6751C95.9782 99.7021 96.0032 99.8117 96.1369 99.8115C96.1868 99.9722 95.8985 99.8763 95.8684 99.9437C95.7519 100.156 96.2439 100.384 95.8646 100.481C95.9222 100.675 95.9801 100.467 96.1331 100.483C96.593 100.481 96.4861 100.917 96.8018 100.62C96.8954 100.534 97.0906 100.705 97.069 100.756C97.2219 100.821 97.1466 100.508 97.2045 100.489C97.856 100.275 98.632 100.548 99.3491 100.37C99.3705 100.365 99.3343 100.126 99.3514 100.102C100.178 100.631 101.901 100.823 102.567 100.122C102.722 100.1 102.805 100.153 102.834 100.258C103.189 99.9462 102.857 99.3396 103.109 99.1878C103.055 98.888 102.398 99.0783 102.305 99.182C102.151 99.1343 101.967 98.943 102.172 98.9127C102.133 98.5966 101.709 98.661 101.775 98.2408C102.209 98.0784 101.874 98.6743 102.309 98.5121C102.06 98.7459 102.289 98.9784 102.707 98.9224C102.46 98.659 102.281 98.7689 102.443 98.3846C102.558 98.1059 102.834 98.2994 102.446 97.9825C102.472 97.8741 102.582 97.85 102.581 97.7154C102.926 97.7318 102.794 98.2163 102.98 98.3891C103.256 98.4047 103.079 98.0231 103.251 97.8541C103.279 97.8258 103.504 97.89 103.518 97.8561C103.552 97.7711 103.338 97.7033 103.386 97.5869C103.408 97.431 103.633 97.4769 103.788 97.456C103.768 97.2991 103.82 97.2165 103.924 97.1898C103.602 96.6497 103.149 97.326 102.85 97.5841C102.798 97.514 102.201 97.381 102.585 97.3103C102.53 96.9764 102.065 97.2994 102.18 97.579C101.934 97.5903 102.156 97.1746 102.047 97.0423C102.056 97.0525 101.696 97.2074 101.645 97.0402L101.646 97.0388C101.683 96.6768 101.64 96.31 101.519 95.9661C101.226 95.9413 100.936 96.0364 100.714 96.2299C100.265 96.1032 100.645 95.9789 100.584 95.5584C100.36 95.7799 100.23 96.0978 99.7765 96.0883L99.7743 96.3568C99.3962 96.4649 99.4292 96.1654 99.1059 96.2184C98.7741 96.651 98.0243 96.3773 97.4967 96.3419C97.2725 96.3261 97.2676 96.4795 97.094 96.4726C96.7642 96.4595 96.4663 96.2828 96.157 96.3327C96.0667 96.9163 95.3312 96.8443 95.0792 97.2642L95.0793 97.2634C94.9647 97.1736 94.8229 97.1257 94.6778 97.1277C94.595 97.0317 94.5066 96.941 94.4127 96.8548C94.3424 96.7689 94.1983 96.662 94.147 96.581C94.0369 96.42 94.2354 96.0793 93.878 96.1776C93.7699 96.3199 94.0133 96.4285 94.011 96.4462C93.9534 96.8355 93.5005 96.4836 93.4717 96.9792L93.0689 96.9761C92.8737 96.9749 93.0093 96.7038 92.9382 96.5735C92.8409 96.3942 92.5214 96.4209 92.5387 96.1701C92.3846 96.1065 92.4641 96.4139 92.4024 96.4363C92.2118 96.5079 92.3217 95.9744 91.8689 96.2995C91.6697 96.2407 91.922 96.1285 91.8718 95.8974C91.4798 96.2681 91.5259 95.4552 90.9354 95.6192L90.9349 95.6176C90.9818 95.8497 90.932 96.0916 90.7965 96.286C90.6781 96.2264 90.558 96.1672 90.5308 96.0121C90.3403 96.2135 90.0317 96.5861 90.258 96.8143L90.2579 96.815C90.0044 96.6873 89.7343 96.5954 89.4559 96.5416C89.3594 96.6764 89.3291 96.8704 89.1844 97.0766C89.15 97.1235 88.9353 97.1663 88.9154 97.2071C88.8956 97.2479 88.9491 97.4511 88.9132 97.4756C88.8237 97.5389 88.6094 97.4221 88.5126 97.473C88.4469 97.6259 88.7606 97.5515 88.7788 97.6093C88.8733 97.8989 88.2464 97.884 88.1083 97.6042C88.1136 97.2286 88.4724 97.9254 88.3821 97.3385C88.0685 97.2958 87.8301 97.0735 87.5778 97.3335C87.312 97.3293 87.4159 96.9648 87.0443 97.0622C87.0207 96.945 87.0975 96.9356 87.1809 96.9289C87.1516 96.7363 86.7815 96.8799 86.7809 96.6591L86.78 96.6597C86.4059 96.7804 86.0772 97.0119 85.8381 97.3233C85.5816 97.3066 85.9985 96.8755 85.8438 96.5192C85.5632 96.5947 85.459 96.8491 85.0374 96.7819C85.0931 96.5244 85.6505 96.7769 85.4432 96.2476C85.0778 96.5708 84.969 96.3673 84.3686 96.5114L84.3684 96.5121C84.3433 96.6951 84.459 96.869 84.6371 96.917C84.6774 97.0791 84.247 97.3757 84.2345 97.0477C83.8197 97.1794 84.5243 97.2696 84.5032 97.4525C84.5246 97.7434 84.0279 97.5103 83.8326 97.5819C83.89 97.7051 83.948 97.8292 84.0976 97.8556C83.7719 98.3795 83.0098 98.4578 82.3498 98.6483C82.3353 98.4077 82.5127 98.3662 82.4884 98.1136C82.5093 97.9504 82.8371 97.9615 82.8933 97.8449C82.9834 97.6567 82.8749 97.3078 83.029 97.5778C83.2997 97.6255 83.0041 97.1898 82.8968 97.1748L82.897 97.1733C82.7129 97.1993 82.5382 97.0823 82.4916 96.9025C82.2198 96.9859 82.3995 97.5277 82.0862 97.5689C81.7576 97.5529 82.0597 97.1269 82.2226 97.1675C82.29 96.9919 81.5536 97.1041 81.6849 97.4317C81.4917 97.2845 81.3579 97.2855 81.2819 97.5639C81.1513 97.5599 81.1796 97.3996 81.1491 97.2945C80.8877 97.2295 80.7136 97.9074 81.0105 97.9637C81.0524 98.1253 80.7881 98.0273 80.7419 98.0967C80.6248 98.2674 80.8278 98.6504 80.6035 98.7651C80.3015 98.6881 80.7676 98.5568 80.4713 98.3622L80.472 98.3623C80.2169 98.4818 79.9214 98.4796 79.6679 98.3566C79.8098 98.4132 79.7137 98.6438 79.8001 98.7595C79.8294 98.7995 80.0541 98.862 80.0671 98.896C80.098 98.9765 79.9744 99.0765 79.9306 99.0285C80.0377 99.1526 80.2702 99.1303 80.3299 99.2982C80.2404 99.6984 80.0451 99.1689 79.7943 99.2947C79.7048 99.4751 79.5069 99.543 79.2566 99.559C78.9519 99.3581 79.055 99.2308 79.1265 98.8883C78.6909 98.851 78.4814 99.0434 78.4544 99.4207L78.4543 99.4215C78.3311 99.3127 78.2379 99.1729 78.1847 99.0172C78.029 99.0388 77.9473 98.9864 77.9183 98.8817C77.5954 98.8247 77.625 99.1234 77.2469 99.0116C77.269 99.3034 77.1347 99.4371 76.8366 99.4099C76.6816 99.3825 76.7258 99.1633 76.7059 99.0072C76.4575 98.8772 76.256 99.4056 76.1703 99.0037C75.9818 99.0496 76.1572 99.2395 76.3025 99.2722C76.1459 99.6978 75.3573 99.4875 75.3597 100.071L75.3598 100.07C75.2528 99.95 75.082 99.9096 74.9316 99.9685C74.7822 100.027 74.6845 100.172 74.6877 100.334C74.3719 100.335 74.2947 100.1 73.8846 100.192C74.0967 100.721 73.3097 100.236 73.3461 100.591C73.0967 100.215 72.2374 100.446 72.279 99.7799C72.0467 99.8948 71.8579 100.082 71.7405 100.313C71.5498 100.3 71.3606 100.287 71.3363 100.443C71.2294 101.049 71.7118 100.242 71.605 100.848C71.8046 100.779 71.9449 100.652 72.1427 100.584C72.1447 100.99 71.6705 100.916 71.3372 100.981C71.2859 101.209 71.4396 101.234 71.6029 101.254C71.5076 101.674 71.2435 101.427 70.9315 101.384C70.9685 101.601 70.8041 101.613 70.7953 101.784C70.3938 101.693 70.9246 101.499 70.7988 101.249C70.6 101.179 70.4624 101.049 70.2638 100.977L70.2647 100.977C70.2762 100.911 70.3335 100.865 70.399 100.865C70.4654 100.866 70.5218 100.914 70.5324 100.979C70.9443 100.85 70.3806 100.62 70.4003 100.441C70.256 100.488 70.3052 100.689 70.1265 100.706C69.7793 100.746 69.0702 100.305 69.0518 100.97C69.3318 101.028 69.4076 100.881 69.5885 100.838C69.9898 101.248 69.3781 101.708 69.4493 101.775L69.4499 101.776C69.4943 101.78 69.5394 101.78 69.5835 101.776C69.1043 102.457 68.0334 102.036 67.5672 102.702C67.4462 102.926 67.1986 102.334 66.8981 102.563C66.7975 102.64 67.1666 102.699 67.1651 102.699L67.1659 102.699C67.083 102.837 66.993 102.971 66.8953 103.099C66.7001 103.138 66.6693 102.734 66.361 102.693C66.2145 102.668 66.086 102.782 65.8232 102.958C65.5918 103.113 65.3196 103.19 65.4169 103.759C65.094 103.501 64.34 103.668 63.8099 103.615L63.8098 103.616C63.509 104.128 62.9158 104.393 62.333 104.276L62.3301 104.678C62.1724 104.478 61.8256 104.467 61.664 104.271C61.4838 104.319 61.3679 104.493 61.3915 104.677C61.0732 104.688 60.7556 104.641 60.4545 104.536C60.4426 104.541 60.4595 104.805 60.4523 104.805C60.253 104.782 60.2562 104.49 59.9189 104.533C59.9281 104.723 59.9381 104.913 59.7812 104.933C59.7393 105.242 60.1681 105.085 60.1795 105.343C60.2162 105.561 60.0521 105.572 60.043 105.744C59.8459 105.629 59.853 105.311 59.7795 105.072C59.32 105.498 58.9206 105.261 58.8446 104.665C58.5961 104.683 58.7645 105.119 58.5733 105.198C58.1415 105.225 58.0083 104.958 57.5021 105.057C57.5237 105.212 57.4711 105.295 57.3664 105.324C57.4618 105.568 57.6101 105.345 57.7684 105.327C57.9041 105.414 57.9052 105.636 58.1682 105.598L58.169 105.598C57.9578 105.791 57.7327 105.969 57.4956 106.13C57.4304 106.118 57.3826 106.061 57.3825 105.995C57.3831 105.929 57.4311 105.871 57.4963 105.861C57.0834 105.278 56.7529 106.619 56.4224 106.125C56.0672 106.08 56.5435 106.878 56.0173 106.659C55.8826 106.889 56.2815 107.005 56.2863 107.062C56.2899 107.387 55.7517 107.457 55.4784 107.728C54.7074 107.647 54.3705 107.135 53.4723 107.178C53.3603 107.333 53.3115 107.525 53.3351 107.714C52.5515 107.785 52.2127 107.302 51.5939 107.568C51.5605 107.583 51.6187 107.8 51.5916 107.837C51.3514 107.854 51.3095 107.674 51.0566 107.7C50.9587 107.973 50.6323 108.227 50.915 108.503C50.6885 108.5 50.4686 108.5 50.2444 108.498C50.2481 108.778 50.0941 108.875 49.9729 109.033C49.836 109.213 49.5669 109.29 49.5674 109.566C49.1458 109.498 49.262 109.974 48.7625 109.829C48.8158 110.109 48.6684 110.183 48.6255 110.364C48.3889 110.494 48.2873 110.097 48.2254 110.094C48.1634 110.091 47.9066 110.341 47.9517 110.359C47.851 110.32 47.8648 109.914 47.6872 109.823C47.6567 109.807 47.4187 109.977 47.2845 109.953C47.2745 109.951 47.2557 109.825 47.1519 109.817C47.0094 109.809 46.8814 110.064 46.4813 109.947C46.4838 110.076 46.6439 110.051 46.7476 110.082C46.6607 110.396 46.6536 110.894 45.9393 110.881C46.1612 111.147 45.9251 111.051 45.9355 111.418C45.9399 111.617 45.6561 111.473 45.5328 111.549C45.4937 111.574 45.56 111.781 45.5308 111.816C45.4753 111.893 45.1771 111.853 45.1279 111.948C44.985 112.072 45.0836 112.442 44.7243 112.348C44.6675 112.67 44.9679 112.64 44.8544 113.019C44.7539 113.454 44.2252 112.982 44.5824 113.552C44.4683 113.751 44.1493 113.743 43.9111 113.816L43.9108 113.814C43.7884 113.705 43.6958 113.566 43.6418 113.41C43.5132 113.327 43.5343 113.535 43.5053 113.543C43.3557 113.58 43.3061 113.291 43.2396 113.269C43.1055 113.258 42.9711 113.258 42.8373 113.268C42.6014 113.242 42.5523 113.13 42.3026 113.129C42.3325 113.134 42.2401 113.259 42.1659 113.262C41.9004 113.275 41.7439 113.242 41.7626 113.531C41.5504 113.519 41.2505 113.592 41.2268 113.394C41.0449 113.435 41.1135 113.728 41.0898 113.929C40.6003 113.897 40.577 113.742 40.1521 113.923C40.1762 114.307 40.1638 114.655 39.7463 114.591C39.7913 114.767 39.9803 114.803 40.0153 114.995C39.9971 115.291 39.4467 115.048 39.211 115.124L39.2104 115.123C39.3248 115.537 39.5549 115.91 39.8724 116.199C39.8128 116.318 39.7544 116.438 39.5986 116.465C39.4494 116.342 39.6095 116.166 39.3344 115.927C38.5802 115.907 38.7497 115.803 37.9993 115.784L37.9984 115.784C37.908 115.898 37.8599 116.041 37.8618 116.187C37.4097 116.18 36.9683 116.181 37.054 116.718L37.0541 116.717C36.9405 116.626 36.7986 116.578 36.6526 116.581C36.313 116.861 36.9888 117.105 36.6479 117.384C36.3944 117.368 36.5583 116.941 36.2497 116.973C35.7623 116.974 35.658 117.364 35.7075 117.908C35.3279 118.016 35.3614 117.718 35.0383 117.77L35.0382 117.77C34.9271 117.925 34.8777 118.115 34.9013 118.305C34.6467 118.268 34.3917 118.369 34.2299 118.569C34.192 118.618 34.4018 118.746 34.3619 118.838C34.2674 119.06 33.5595 119.343 33.6855 119.772L33.6856 119.772C33.4692 119.694 33.2329 119.693 33.0157 119.767C32.9758 119.787 33.0482 120 33.0134 120.036C32.9786 120.072 32.7795 119.995 32.7449 120.034C32.7111 120.073 32.7874 120.268 32.7429 120.301C32.6983 120.334 32.0845 120.442 32.2052 120.565C32.3431 120.702 32.2654 120.654 32.0687 120.697C32.1125 121.055 32.4172 121.152 32.7349 121.239C32.9442 121.213 32.7782 121.545 32.8672 121.641C32.9084 121.685 33.0829 121.606 33.1342 121.643C33.4131 121.838 33.5429 122.29 33.664 122.586C33.5047 122.61 33.5985 122.383 33.5319 122.317C33.5656 122.349 33.1666 122.159 33.2648 122.181C33.0632 122.135 32.4315 122.592 32.3277 122.041C32.0491 122.073 32.2872 122.629 32.0549 122.709C31.5016 122.81 31.8077 122.066 31.2542 122.168C31.0039 122.403 31.31 122.56 31.3842 122.839L31.3859 122.838C31.1321 122.717 30.8375 122.715 30.5818 122.833L30.5766 123.503C30.6102 123.909 29.7552 123.627 30.1718 124.036C29.9451 124.035 29.7255 124.033 29.5013 124.031C29.6401 124.531 29.2165 124.462 29.0956 124.699C28.9635 125.058 29.3746 124.861 29.4956 124.969C29.6174 125.076 29.5715 125.337 29.7644 125.374C29.6641 125.866 29.362 125.314 29.0931 125.637C28.9634 125.633 28.9907 125.473 28.961 125.368C28.7207 125.349 28.6762 125.53 28.4243 125.5C28.3803 125.853 28.7032 125.848 28.9571 125.906C29.012 126.276 28.4572 126.027 28.4189 126.303C28.218 126.608 28.7923 126.576 28.8181 126.708C28.8438 126.84 28.5232 127.057 28.5494 126.841C28.1936 126.795 28.6685 127.592 28.1439 127.374C28.1019 127.535 28.3591 127.44 28.411 127.509C28.4385 127.55 28.1626 127.806 28.4087 127.778C28.1634 128.075 27.3594 127.794 27.0666 128.038C27.2039 128.344 27.1509 128.847 27.3307 129.11C27.5705 128.993 27.6737 128.74 28.1368 128.849L28.1391 128.849C27.9369 129.175 27.5814 129.375 27.1973 129.378C27.0932 129.968 27.6275 129.93 27.7266 130.319C27.5927 131.195 26.8261 131.106 25.981 130.978C25.9615 130.447 26.1868 131.023 26.3843 130.709C26.5422 130.321 26.0979 130.405 25.9861 130.299C25.8226 130.145 25.688 129.963 25.5883 129.761C25.2977 129.736 25.5251 130.236 25.4499 130.429C25.2914 130.556 25.029 130.3 25.0484 130.293C24.8289 130.354 24.8666 130.682 24.6449 130.693C24.4231 130.704 24.5653 131.144 24.1048 131.091C24.2418 131.682 23.649 131.528 23.697 132.027C23.5194 132.025 23.3401 132.024 23.1614 132.023C23.0589 132.372 22.6618 132.825 23.0194 133.228C23.0014 133.523 22.4508 133.281 22.2151 133.358L22.2159 133.358C22.1056 133.481 21.9667 133.573 21.811 133.627C21.8374 133.858 21.58 133.973 21.8081 134.029C21.508 134.309 21.0898 134.469 21.1311 135.096L21.6668 135.099C21.6947 135.309 21.3561 135.143 21.2646 135.232C21.1431 135.347 21.2679 135.662 21.1261 135.766C20.9844 135.87 20.2695 135.641 20.4539 136.165C20.0441 136.26 20.061 135.93 19.6508 136.023L19.645 136.827C19.6665 137.118 19.1699 136.885 18.9744 136.957C18.6486 137.266 19.1807 137.317 19.238 137.629C18.9836 137.569 18.997 137.246 18.5695 137.356C18.5422 137.511 18.5976 137.596 18.7023 137.625L18.7032 137.625C18.464 137.936 18.1353 138.168 17.7613 138.288C17.8493 138.404 17.8962 138.546 17.8927 138.691C17.9043 138.895 17.6016 138.741 17.4898 138.823C17.2651 138.985 17.3709 139.556 16.9493 139.489C16.9105 139.709 17.0738 139.72 17.08 139.892C16.9299 140.164 16.6214 140.012 16.4084 140.157C16.2807 140.239 16.3325 140.547 16.1387 140.556C15.9911 140.563 16.0465 140.841 15.8649 140.822C15.9312 141.011 16.0764 141.16 16.2631 141.232C16.1269 141.498 16.0288 141.803 15.7226 141.898C15.7631 142.39 15.3342 142.813 15.5813 143.103C15.8454 143 16.066 142.637 15.8535 142.434C16.5749 142.406 15.8389 143.226 16.3826 143.51C16.4213 143.82 15.9939 143.656 15.9777 143.91C15.9115 144.33 16.3356 144.266 16.3746 144.583C16.2827 144.894 15.672 144.679 15.8341 145.249C15.3499 145.151 15.1438 144.777 14.632 144.705C14.5329 145.07 14.897 144.979 14.8963 145.243C14.8623 145.436 14.4965 145.286 14.4929 145.512C14.19 145.135 13.9736 145.501 13.6909 145.104C13.288 145.33 13.5396 145.59 13.551 146.041C13.4818 146.227 13.3341 146.374 13.1474 146.441C12.6992 146.149 13.3273 145.825 13.2875 145.503C12.72 145.367 13.4834 144.689 12.8901 144.698C12.8435 144.536 13.1193 144.632 13.1595 144.565C13.2631 144.39 12.9408 144.186 13.1647 143.894C13.1647 143.495 12.8191 143.437 12.7673 143.089C12.8996 142.729 13.0676 142.404 13.1828 142.02C12.9102 141.7 13.4633 141.398 12.9176 141.348C12.8979 140.756 12.9926 140.165 13.1967 139.609C12.945 139.507 13.1061 139.208 12.7955 139.471C12.7734 139.179 12.9077 139.045 13.2058 139.072C13.3003 138.77 12.956 138.753 12.9416 138.535C12.905 137.989 13.4475 137.518 13.7536 137.204L13.7535 137.204C13.6434 137.048 13.5966 136.856 13.6213 136.667C13.3662 136.786 13.0716 136.784 12.8187 136.662C13.0174 136.504 13.0305 136.156 13.2243 135.994C13.1027 135.751 12.8742 135.921 13.092 135.457C13.2042 135.22 13.4358 135.166 13.3635 134.922L12.8277 134.919C12.7363 134.563 13.1064 134.662 13.2327 134.52C13.088 134.053 13.4276 132.867 12.8439 132.508C13.2007 131.88 12.9461 131.516 13.1217 130.902C12.5821 130.858 13.2152 130.308 12.5912 130.228C12.7911 130.072 12.8027 129.723 12.9966 129.561C12.9078 129.248 12.5536 129.198 12.4645 128.888C12.6789 128.398 12.6633 129.2 13.0004 129.024C13.06 128.906 13.1191 128.786 13.2741 128.759C13.4178 128.644 12.8562 128.106 13.1469 127.821C13.3696 127.598 13.0076 127.75 13.0148 127.283C13.1445 127.287 13.1171 127.447 13.1468 127.552C13.6486 127.465 13.0508 127.106 13.5527 127.018C13.2617 126.739 13.6199 126.636 13.5574 126.215L13.1569 126.212C13.2462 125.854 13.5438 125.705 13.6975 125.412C13.8772 124.998 13.3068 124.662 13.7038 124.474C13.6521 124.036 13.068 124.124 12.7697 123.932L12.768 123.932C13.0343 123.723 13.3934 123.673 13.7056 123.804C13.6497 123.48 13.9528 123.515 13.8448 123.136C13.6063 123.094 13.5691 123.26 13.7084 123.268C13.5851 123.631 13.4116 122.96 13.175 122.996C13.3857 122.807 13.2854 122.299 13.7156 122.33C13.465 122.092 13.8777 121.94 13.5855 121.659C13.701 121.462 14.0186 121.469 14.2568 121.396C14.2543 121.266 14.0942 121.291 13.9905 121.26C13.8282 120.826 14.424 121.161 14.2617 120.727L13.9947 120.725L13.9933 120.724C13.9964 120.392 14.0925 120.067 14.2722 119.788C14.2262 119.601 14.0364 119.775 14.0028 119.921C13.7309 119.96 14.0323 119.534 14.1392 119.52C14.0617 119.25 13.8128 119.335 13.4715 119.247C13.3815 119.224 13.3497 119.112 13.3382 119.11C13.2462 119.094 13.1926 119.25 13.0693 119.241C13.0409 119.236 12.9352 119.05 12.8026 119.107C12.7652 119.122 12.8177 119.457 12.6671 119.373C12.4096 119.317 12.5634 118.853 12.1328 118.967L12.1354 118.567C12.4893 118.206 12.5976 118.381 13.0738 118.439L13.0749 118.437C13.1002 118.254 12.9853 118.08 12.8062 118.033C12.9255 117.638 13.0049 118.345 13.3419 118.17C13.3705 117.654 13.1377 117.399 12.6768 117.362C12.6969 117.517 12.6451 117.6 12.5404 117.629C12.3312 117.662 12.4993 117.31 12.41 117.225C12.273 117.095 11.8174 117.63 12.0099 116.955C11.5028 117.077 11.3815 116.957 11.0715 117.083C11.1469 117.368 11.5274 117.817 11.0657 117.887C11.1064 118.069 11.4008 118.001 11.6009 118.023C11.4825 118.354 11.0066 118.321 11.0601 118.825L10.5244 118.822C10.6372 119.339 10.1934 119.295 10.1168 119.622C9.83331 119.498 10.3727 119.086 10.2567 118.685C10.137 118.759 9.66689 119.083 9.98735 118.818C9.90564 118.492 9.31091 118.743 9.4496 119.082C9.29828 119.186 9.20503 118.944 9.1826 118.945C9.07626 118.952 9.04124 119.272 8.90876 119.211C8.77628 119.151 8.78181 118.998 8.77795 118.809C8.48661 118.784 8.71331 119.283 8.63875 119.477L8.63771 119.479C8.52899 119.602 8.38993 119.695 8.23424 119.749C8.13735 120.235 8.21983 120.902 7.8237 121.086C7.50664 121.386 8.17584 120.977 8.49275 121.09C8.21816 121.517 8.33683 121.562 8.2148 122.025C8.06839 122.371 7.72725 122.521 7.67281 122.96C8.0085 122.94 8.08908 123.169 8.20709 123.365C8.18008 123.474 8.07062 123.498 8.07077 123.632C7.64824 123.696 7.599 123.387 7.1337 123.492C7.2758 123.619 7.17207 123.987 7.53194 123.902C7.38874 124.028 7.48747 124.396 7.1284 124.302C6.92969 124.299 7.1147 124.138 7.12928 124.167L7.12852 124.167C7.02837 124.017 6.86976 123.917 6.691 123.89C6.51286 123.864 6.33171 123.913 6.19207 124.028C6.22681 124.338 6.54734 124.337 6.72708 124.165C6.82437 124.578 6.35793 124.419 6.45433 124.833C6.58477 124.838 6.55804 124.998 6.58715 125.102C7.11712 124.931 6.90829 125.595 7.25635 125.241C6.94904 125.867 7.75928 125.972 7.38081 126.715L7.38004 126.715C7.14835 126.665 6.906 126.712 6.70872 126.844C6.99426 127.216 6.62727 127.404 6.83641 127.784L6.83717 127.784C6.77242 128.093 6.72595 128.406 6.69662 128.72C6.93628 128.684 6.97125 128.849 6.82916 128.857C6.88484 129.227 7.25075 128.865 7.103 128.591C7.27804 128.728 7.59668 128.725 7.77159 128.863C7.69616 128.932 7.65299 129.029 7.65242 129.131C7.65198 129.232 7.69333 129.329 7.76796 129.399C7.7557 129.464 7.69917 129.511 7.63285 129.511C7.56652 129.51 7.51011 129.462 7.49945 129.397C7.22626 129.524 7.20688 129.913 7.22151 130.332C7.29929 130.259 7.39544 130.261 7.49076 130.2L7.48986 130.201C7.6151 130.132 7.75176 130.088 7.8933 130.07C7.95954 130.053 8.04759 129.935 8.02991 129.937C8.34127 129.916 8.56123 130.247 8.83465 129.809L8.83479 129.808C9.03227 130.052 9.32336 130.2 9.63618 130.215C9.68642 130.715 9.52367 131.001 9.0948 131.016C9.14616 131.478 9.45515 131.192 9.22489 131.687C9.72958 131.587 9.86436 131.855 10.2954 131.828C10.3527 131.929 9.82775 132.044 9.75874 131.96C9.6147 131.781 9.7171 131.963 9.62519 131.96C9.50129 131.954 8.91853 131.625 8.68737 131.954C8.65026 132.115 8.90265 132.02 8.95373 132.09C9.06737 132.235 8.91282 132.546 9.0861 132.626C8.96327 132.861 8.61489 132.867 8.41417 133.023C8.45556 133.484 8.72317 133.774 8.13622 133.958C8.15741 134.116 8.37998 134.074 8.53742 134.096C8.7729 134.138 9.22442 135.053 8.66537 135.035C8.54491 135.467 9.10644 135.22 9.06394 135.573C8.89302 135.816 8.41001 135.474 8.92979 135.841C8.80486 136.204 8.68243 135.481 8.26073 135.701C8.37508 135.811 8.33758 136.068 8.52943 136.106L8.52727 136.105C8.71217 136.079 8.8869 136.196 8.93335 136.377C9.09054 136.355 9.04756 136.133 9.06915 135.974C9.3501 135.919 9.42425 136.069 9.60492 136.111C9.60011 136.242 9.44029 136.215 9.3363 136.244C9.26205 136.666 9.62501 136.769 9.33055 137.049C9.08297 137.026 9.25107 136.593 9.0663 136.511C8.89234 136.694 8.48441 136.635 8.12787 136.639L8.12697 136.639C8.17486 136.816 8.34525 136.931 8.5269 136.91C8.41104 137.302 8.19032 136.738 7.85785 136.905C8.03869 137.45 7.5636 137.327 7.58332 137.709L8.2539 137.714C8.18139 137.416 8.51422 137.525 8.52375 137.314C8.83517 137.369 8.49623 137.667 8.51999 137.851C8.52175 137.841 8.74014 137.89 8.6533 137.987C8.51558 138.253 8.41758 138.557 8.11281 138.653L8.11371 138.652C8.2057 138.866 8.20406 139.109 8.10884 139.321C8.2226 139.412 8.36429 139.46 8.51003 139.459C8.47263 139.775 7.91653 139.537 7.9753 139.321C7.76607 139.292 7.92846 139.631 7.83873 139.723C7.73091 139.832 7.3535 139.685 7.30208 139.855L7.30145 139.854C7.40939 139.978 7.54719 140.071 7.70214 140.125C7.60677 140.545 7.34274 140.297 7.03082 140.254C7.28041 140.512 7.04323 140.597 7.02568 140.925C7.12317 141.139 7.68118 140.899 7.55843 141.33C7.91958 141.355 7.76699 141.13 8.09405 141.334C8.40021 141.526 8.2034 141.539 8.35856 141.87C8.37512 141.906 8.60946 141.838 8.62707 141.872C8.69589 142.016 8.49804 141.963 8.49046 142.006C8.4414 142.185 9.07361 142.404 8.48785 142.406C8.56954 142.858 8.86837 143.097 8.74635 143.748L8.74712 143.748C8.50607 143.604 8.21996 143.553 7.94402 143.607C8.09049 143.978 8.15118 144.361 7.5382 144.275C7.43759 144.64 7.80162 144.549 7.80272 144.812C7.87496 145.178 7.42936 144.942 7.2642 145.076C7.22044 145.113 7.29798 145.297 7.26347 145.345C7.09232 145.584 6.63598 145.687 6.45559 145.876C6.53789 146.194 7.28029 145.859 7.39048 146.154C7.5084 146.66 6.98019 146.139 6.85383 146.286C6.82974 146.315 7.49599 146.753 6.85082 146.689C6.99912 147.001 6.82081 147.048 7.11599 147.361C7.45927 147.132 7.58359 147.517 7.78668 147.231C7.98484 147.291 7.73283 147.401 7.7838 147.633C8.07008 147.57 8.03786 147.825 8.0525 148.037C8.27901 148.04 8.49887 148.04 8.72308 148.043C8.9251 148.732 8.33838 148.018 8.18546 148.306C8.09213 148.481 8.55491 148.386 8.58539 148.442C8.72882 148.701 8.3494 148.686 8.18185 148.842C8.09402 148.924 8.1787 149.206 7.90814 149.107C7.88287 149.399 8.01528 149.536 8.3081 149.513C8.14644 149.913 8.38045 150.304 7.89264 150.581C7.9489 150.836 8.18014 150.92 8.15628 151.253L8.15642 151.252C8.27733 151.194 8.36494 151.083 8.39204 150.952C8.41914 150.82 8.38316 150.684 8.29421 150.583C8.47703 150.559 8.64792 150.676 8.69477 150.854C8.44547 151.111 8.44947 150.958 8.55759 151.39L8.55682 151.39C8.5088 151.568 8.33587 151.683 8.15272 151.659C8.18325 152.185 8.26971 152.578 8.94911 152.735C9.00198 152.996 8.33775 152.928 8.54905 152.6C7.90485 152.84 8.82858 152.997 8.81207 153.405C8.33172 153.433 8.32364 152.999 7.87649 152.996C7.79992 153.323 8.12043 153.228 8.00658 153.667C7.95499 153.87 7.89073 153.84 8.0013 154.338L8.00054 154.338C8.08381 154.552 8.12765 154.779 8.13063 155.009C8.1697 155.281 7.74354 154.979 7.72944 154.871C7.31471 155.003 7.87609 155.237 7.99801 155.277C7.87825 155.512 7.57128 155.665 7.85945 155.946C7.7992 156.144 7.68889 155.89 7.45738 155.943C7.58685 156.079 7.51202 156.274 7.45389 156.478C7.39499 156.682 7.32983 156.94 7.18266 157.012C7.21893 157.322 7.53828 157.323 7.71843 157.149C7.80216 157.684 7.2061 157.529 6.77614 157.55C6.83751 157.561 6.86547 157.802 6.9091 157.819C7.10254 157.892 7.11456 157.69 7.17759 157.687C7.53552 157.671 7.51227 157.897 7.84905 157.557C7.99099 157.483 7.93662 157.818 7.98111 157.826C8.14066 157.854 8.17266 157.583 8.25495 157.56C8.48046 157.492 8.54781 157.765 8.78996 157.697C8.92475 157.525 8.66246 157.133 8.65786 157.159C8.70693 156.979 9.20586 156.895 8.5249 156.89C8.68312 156.486 9.13819 156.969 9.32904 156.896C9.36297 156.883 9.31622 156.543 9.46472 156.629C9.64629 156.671 9.5731 156.965 9.59709 157.166L9.8656 157.168C10.0554 157.379 10.2005 157.637 10.5319 157.708C10.49 157.946 10.3334 157.601 10.1298 157.706C10.0291 157.757 10.2638 157.879 10.2631 157.842C10.263 157.977 9.88628 157.979 9.9919 158.241C10.2093 158.206 10.2225 158.369 10.3934 158.378C10.4351 158.612 10.0361 158.61 10.124 158.511C9.81102 158.863 10.1631 159.235 9.58322 159.312C9.65976 159.739 9.33006 159.721 9.57835 159.981C9.85162 159.898 9.67067 159.354 9.98556 159.313C10.135 159.435 9.95153 159.636 10.385 159.717C10.1405 160.135 10.425 159.786 10.7848 159.988C10.6591 160.437 10.5346 160.057 10.1134 160.118C10.5557 160.74 11.2675 160.382 11.7225 159.995C12.2531 160.201 12.3996 160.658 13.0598 160.404C12.9722 160.542 12.7509 160.541 12.789 160.809C13.0051 160.871 13.0249 160.655 13.1919 160.677C13.3291 160.657 13.3154 160.999 13.5853 160.908L13.591 160.909ZM12.1194 118.286C11.5736 118.757 11.8057 117.854 12.1194 118.286ZM8.62206 120.277C8.70395 120.271 8.78038 120.259 8.75853 120.145L9.02703 120.147C9.2313 120.473 8.5683 120.533 8.62287 120.273L8.62206 120.277ZM9.54678 122.43C9.6354 122.429 9.72465 122.43 9.81375 122.432L9.81389 122.431C9.94329 122.096 10.1812 121.815 10.4888 121.631C10.2357 121.613 10.3977 121.188 10.0906 121.22C10.2206 120.972 9.69219 120.771 10.0941 120.685C10.3127 120.912 10.3806 121.289 10.6241 121.492L10.625 121.491C10.4814 121.893 10.2501 122.258 9.94791 122.559C9.99229 122.141 9.55902 122.898 9.54757 122.425L9.54678 122.43ZM8.17521 127.243C8.25697 127.251 8.33367 127.264 8.30775 127.38C7.99059 127.295 7.68596 127.197 7.64143 126.839C8.0741 126.718 7.82377 127.276 8.17603 127.239L8.17521 127.243ZM7.77414 126.302L7.77341 126.571L7.5049 126.568L7.50716 126.3L7.77414 126.302ZM8.31128 126.306C8.27128 126.147 7.60365 125.963 8.04704 125.768C8.05315 125.908 8.21738 125.874 8.18364 125.634C8.72976 125.556 8.61091 126.185 8.31581 126.302L8.31128 126.306ZM8.45264 124.97C8.60682 125.024 8.74463 125.117 8.85244 125.241C8.67881 125.253 8.12218 125.019 8.45809 124.962L8.45264 124.97ZM8.05544 124.298C8.49513 124.263 8.47183 124.727 8.32415 124.703C8.26589 124.688 8.12903 124.329 8.06089 124.29L8.05544 124.298ZM8.7239 124.571L9.12444 124.574C9.14139 124.814 8.98957 124.89 8.7211 124.843L8.7239 124.571ZM10.8637 125.121L10.866 124.852L11.1332 124.853L11.1325 125.122L10.8637 125.121ZM11.518 127.537C11.4944 127.352 11.6104 127.179 11.789 127.131C11.8094 127.311 11.6975 127.479 11.524 127.53L11.518 127.537ZM10.8432 128.202C10.677 127.673 11.2126 127.856 11.3823 127.67L11.3796 128.205C11.2049 128.196 11.0278 128.195 10.8495 128.193L10.8432 128.202ZM9.10159 127.789C9.10159 127.789 8.98647 127.98 8.8331 127.922C8.78933 127.905 8.76493 127.667 8.70014 127.653C8.98109 127.571 8.84966 127.289 8.97241 127.118C9.02082 127.05 9.28023 127.149 9.24103 126.985C8.74179 126.816 8.99327 126.3 8.8452 126.045C9.15819 126.002 9.42323 125.912 9.5174 125.647C9.13484 125.381 9.56967 124.812 9.52576 124.442L9.52667 124.441C9.76289 124.281 9.98802 124.103 10.1986 123.91C9.99995 123.883 10.0787 123.585 10.0662 123.373C10.4203 123.334 10.4086 123.66 10.4648 123.911L10.4649 123.911C10.6467 123.889 10.817 124.004 10.8648 124.181C10.6017 124.247 10.3949 124.451 10.3256 124.714C10.3231 124.818 10.4813 124.913 10.4586 124.983C10.446 125.023 10.225 125.02 10.1892 125.116C10.1428 125.231 10.2247 125.399 10.1863 125.518C10.6478 125.552 10.7688 125.919 10.8514 126.326C10.0722 126.075 10.3619 126.908 10.3094 127.394C9.95313 127.549 9.52204 127.132 9.50529 127.388C9.69541 127.598 9.94855 127.75 10.0374 128.062C9.55426 128.214 9.37788 127.864 9.10959 127.784L9.10159 127.789ZM9.09399 128.994C9.48629 129.111 8.92154 129.331 9.08885 129.665C8.83586 129.633 8.7928 129.814 8.5522 129.797C8.78475 129.456 8.4018 129.327 8.69063 129.129L8.69076 129.128C8.70219 129.193 8.75859 129.241 8.82492 129.242C8.89138 129.242 8.94805 129.194 8.95954 129.129C8.66892 129.149 8.90177 128.653 8.82959 128.457C8.71087 128.417 8.1509 128.184 8.56088 128.052C8.58297 128.21 8.77166 128.203 8.96234 128.189C8.72199 128.87 9.67076 128.379 9.62791 128.864C9.45907 129.184 9.23651 128.612 9.1025 128.986L9.09399 128.994ZM9.7562 130.204C9.7587 129.966 9.40023 129.424 9.7618 129.266C9.87321 129.661 10.0998 129.099 10.4324 129.271C10.5993 129.868 9.78738 129.816 10.1544 130.206L9.7562 130.204ZM10.0203 130.742C10.0806 131.159 9.6564 131.245 9.61737 130.875L9.6175 130.874C9.76717 130.877 9.91272 130.828 10.0289 130.734L10.0203 130.742ZM10.1524 131.281L10.1531 131.012L10.4216 131.014L10.4194 131.283L10.1524 131.281ZM10.4062 133.425L10.4091 133.023C10.7143 132.988 10.9132 133.058 10.944 133.295C10.769 133.328 10.6932 133.475 10.4132 133.417L10.4062 133.425ZM8.79706 133.549C8.90527 133.617 9.01061 133.226 9.07077 133.284C9.17731 133.379 9.03076 134 8.8056 133.541L8.79706 133.549ZM10.1232 135.03C9.92541 135.098 9.78501 135.226 9.5855 135.294C9.54837 135.02 9.22495 135.029 9.18719 134.754C9.66004 134.993 9.51787 134.669 9.99194 134.626L9.99271 134.627C9.9934 134.771 10.0438 134.911 10.1347 135.023L10.1232 135.03ZM10.9247 135.571L10.9269 135.303L11.1954 135.305L11.1932 135.574L10.9247 135.571ZM11.2999 139.727C11.5109 139.67 11.417 139.306 11.8377 139.463C11.9871 139.796 11.3931 140.047 11.3106 139.721L11.2999 139.727ZM7.80788 140.24C8.12125 140.252 9.24278 140.14 8.74431 140.518C8.5919 140.261 8.04623 140.66 7.82304 140.234L7.80788 140.24ZM9.65866 144.271C10.2203 144.378 9.77947 143.761 9.79571 143.736C9.85688 143.645 10.233 143.674 10.3324 143.604C10.5037 143.48 10.6043 143.282 10.6036 143.07C11.0259 143.097 11.4024 143.169 11.4044 143.611C10.9916 143.709 11.1498 143.243 10.7364 143.34C10.6887 143.611 10.4651 143.695 10.3308 143.873C10.2176 144.25 10.5177 144.221 10.4608 144.544L10.46 144.544C10.321 144.624 10.1546 144.639 10.0035 144.585C9.85239 144.532 9.73222 144.415 9.67382 144.266L9.65866 144.271ZM8.45083 144.532C8.50945 144.276 8.50272 143.955 8.85666 143.998L8.85589 143.998C8.85158 144.143 8.89763 144.286 8.98644 144.401C8.74951 144.363 8.70658 144.544 8.46524 144.527L8.45083 144.532ZM81.7951 98.3688C81.7879 98.2885 81.7755 98.2111 81.6618 98.2322L81.6641 97.9637C81.9948 97.761 82.0543 98.424 81.7951 98.3688ZM100.832 96.75C101.139 96.7155 101.336 96.7858 101.367 97.0223C101.061 97.0561 100.863 96.9855 100.832 96.75ZM101.226 98.0928C101.198 97.9447 101.249 97.7924 101.362 97.6921C101.419 97.6087 101.58 97.5208 101.636 97.4264C101.989 97.7868 101.44 97.9161 101.226 98.0928ZM91.1831 97.0907C91.1828 96.9127 90.9489 96.9656 90.9158 96.8166C91.1827 96.8866 91.2288 96.0777 91.4543 96.5525C91.0907 96.4575 91.5448 97.1925 91.1838 97.0909L91.1831 97.0907ZM93.1904 97.3687C93.3282 97.3851 93.4652 96.7924 93.5933 97.2365C93.4007 97.167 93.2638 97.7597 93.1904 97.3687ZM91.9842 97.3601L91.9849 97.3602C92.1667 97.3385 92.3377 97.4541 92.3847 97.6316C92.1733 97.6197 91.9197 97.6493 91.9845 97.3625L91.9842 97.3601ZM86.6252 97.8657C86.9673 97.8549 86.7706 97.2926 87.299 97.4673C87.3695 97.8253 86.7381 98.145 86.6252 97.8657ZM95.0546 99.9302C94.7317 99.7792 95.2687 99.2364 95.3245 99.5302C95.0992 99.5292 95.2434 99.9002 95.05 99.9294L95.0546 99.9302ZM90.6274 100.705C90.5685 100.285 90.7478 100.107 91.1665 100.173C91.251 100.622 90.9342 100.661 90.6227 100.704L90.6274 100.705ZM82.3283 99.3107C82.1558 99.1316 82.1547 98.8103 82.4653 98.7757C82.4371 98.9764 82.5055 99.27 82.3247 99.3085L82.3283 99.3107ZM87.5427 101.088C87.4983 101.443 88.2941 100.966 88.077 101.493C87.8266 101.496 87.2161 101.204 87.5381 101.087L87.5427 101.088ZM71.9931 102.058C71.9974 101.913 71.9506 101.77 71.8616 101.655C72.2893 101.93 72.2844 101.128 72.3983 101.523C72.2891 101.721 72.1514 101.9 71.9893 102.058L71.9931 102.058ZM70.7712 105.131C70.6189 104.855 70.9855 104.494 71.0449 104.866C70.8551 104.865 70.908 105.099 70.7631 105.132L70.7712 105.131ZM62.1956 105.075L62.1976 104.808L62.4661 104.811L62.4643 105.077L62.1956 105.075ZM68.6172 106.725C68.6103 106.643 68.5977 106.566 68.4839 106.588L68.4861 106.32C68.8082 106.117 68.8684 106.78 68.6091 106.726L68.6172 106.725ZM60.8546 105.737C60.7544 105.471 61.0509 105.557 61.1284 105.472C61.2059 105.386 61.1078 105.185 61.2648 105.205L61.265 105.204C61.2614 105.35 61.3075 105.492 61.3954 105.608C61.1984 105.648 61.1227 105.796 60.8426 105.738L60.8546 105.737ZM54.5375 108.644C54.5357 108.654 54.9913 108.565 54.9401 108.514C55.2494 108.836 54.4873 108.857 54.5265 108.644L54.5375 108.644ZM52.252 109.701C52.126 109.614 51.7086 109.657 51.8534 109.298C52.3394 108.991 52.548 109.122 53.0581 109.306C53.1551 109.926 52.5451 109.488 52.5196 109.704C52.52 109.882 52.754 109.829 52.7854 109.978C52.4368 110.129 52.4079 109.818 52.2409 109.702L52.252 109.701ZM55.9972 110.929C55.9981 110.794 55.8893 110.769 55.8651 110.66C56.0746 110.674 56.3288 110.645 56.2649 110.931C56.1649 110.933 56.0749 110.932 55.9855 110.932L55.9972 110.929ZM51.8448 110.633C51.74 110.662 51.6883 110.745 51.7091 110.9L51.4421 110.898C51.4455 110.753 51.3995 110.611 51.3107 110.496C51.4988 110.523 51.793 110.456 51.8323 110.637L51.8448 110.633ZM51.8418 111.171L51.8427 111.17C52.0219 111.122 52.1388 110.948 52.1135 110.764L52.5155 110.767C52.7207 111.246 52.0596 110.846 52.1105 111.167C52.2654 111.195 52.2541 111.38 52.2413 111.569C51.868 111.668 51.972 111.298 51.8302 111.173L51.8418 111.171ZM49.4274 111.425C49.4284 111.289 49.3196 111.264 49.2953 111.156C49.5063 111.17 49.7591 111.14 49.6951 111.427L49.4274 111.425ZM46.7496 111.14C46.6102 110.877 47.2501 111.177 47.1511 111.277C47.0522 111.376 46.758 111.178 46.7385 111.141L46.7496 111.14ZM47.5419 113.021C47.4473 112.611 47.681 112.533 47.6833 112.219L47.6836 112.218C47.792 112.204 47.8981 112.257 47.9507 112.353C48.0251 112.447 48.1032 112.215 48.0873 112.22C48.0407 112.233 47.8747 112.138 47.954 112.083L47.9541 112.083C48.0766 112.012 48.2248 112.001 48.3562 112.054C48.4868 112.107 48.5858 112.219 48.6235 112.355C48.3202 112.442 47.949 112.753 48.2162 113.023C47.8676 113.009 47.7867 112.772 47.5308 113.021L47.5419 113.021ZM43.1018 113.935C42.6637 113.971 42.4584 113.772 42.4355 113.395C42.6149 113.395 42.7933 113.398 42.9711 113.398L42.9704 113.398C42.9449 113.587 42.9918 113.779 43.1018 113.935ZM43.0984 114.471C43.0945 114.183 43.417 113.552 43.6376 113.938C43.3235 113.974 43.3363 114.346 43.0984 114.466L43.0984 114.471ZM45.1035 115.959L45.1028 115.958C45.2853 115.937 45.4557 116.051 45.5036 116.228C45.2932 116.21 45.0342 116.24 45.0996 115.954L45.1035 115.959ZM42.2894 115.941C42.2725 115.606 42.269 115.29 42.5625 115.272C42.5758 115.6 42.5784 115.917 42.2801 115.935L42.2894 115.941ZM37.3115 118.99L37.3109 118.989C37.5003 118.965 37.6918 119.014 37.8468 119.126C37.8654 119.505 37.4645 119.459 37.3076 119.658L37.3115 118.99ZM36.641 119.119C36.4698 119.126 36.4542 119.291 36.238 119.252C36.0277 118.915 36.6915 118.855 36.6372 119.114L36.641 119.119ZM35.1688 118.973C34.8931 119.204 34.9068 118.871 34.6306 119.105L34.6355 118.436C35.048 118.371 35.0067 118.771 35.169 118.972L35.1688 118.973ZM36.5123 118.311C36.5099 118.445 36.6201 118.471 36.6444 118.58C36.5108 118.579 36.4847 118.687 36.3758 118.713C36.3782 118.578 36.2688 118.552 36.2437 118.444C36.3743 118.443 36.3988 118.336 36.5079 118.309L36.5123 118.311ZM39.0655 117.121L39.0656 117.12C39.248 117.1 39.4183 117.215 39.4654 117.392C39.2513 117.377 38.997 117.406 39.061 117.12L39.0655 117.121ZM38.9156 119.532C38.5289 119.155 38.4056 118.527 37.8505 118.324C37.8873 117.878 37.7078 117.846 37.5868 117.653C37.3428 117.27 37.4817 117.244 37.0535 117.381C37.1541 116.779 37.4734 117.175 37.9933 117.12C38.2152 116.955 38.2448 116.537 38.399 116.452C38.4805 116.407 38.7367 116.519 38.801 116.454C38.8918 116.366 38.7288 116.021 38.9375 116.053C39.1331 116.37 39.2198 116.304 39.0674 116.724C38.9835 116.909 38.5521 116.74 38.5298 116.988C39.0401 116.884 38.6953 117.624 38.7911 117.929C39.0574 118.064 39.3619 118.163 39.4577 118.468C39.1449 118.51 38.8796 118.601 38.7855 118.866C39.1926 118.657 39.1305 119.556 38.9119 119.531L38.9156 119.532ZM37.8428 119.66C38.6669 119.781 37.7575 119.331 38.1151 119.254C38.1713 119.465 38.536 119.37 38.3786 119.792C38.1956 119.812 37.4018 119.81 37.8391 119.658L37.8428 119.66ZM34.4922 119.369C34.478 119.58 34.507 119.833 34.2208 119.769L34.2228 119.502C34.3564 119.503 34.382 119.393 34.4908 119.368L34.4922 119.369ZM36.2319 119.649L36.2328 119.649C36.4155 119.626 36.5858 119.742 36.6337 119.918C36.4224 119.901 36.1669 119.933 36.2305 119.648L36.2319 119.649ZM37.8347 120.463C37.5021 120.632 37.2822 120.067 37.1657 120.458C37.1659 120.636 37.4 120.583 37.4314 120.732C37.1999 120.973 36.9037 120.688 36.8971 120.326C37.0017 120.298 37.0535 120.216 37.0326 120.06L37.0335 120.059C37.3592 120.007 37.6816 120.17 37.8333 120.462L37.8347 120.463ZM39.0362 121.275C39.0677 121.037 38.9056 120.602 39.3074 120.741L39.3083 120.74C39.3212 120.955 39.2163 121.159 39.0346 121.274L39.0362 121.275ZM39.8378 121.416C40.143 121.38 40.3416 121.452 40.3728 121.687L40.3737 121.687C40.159 121.698 39.9553 121.592 39.8411 121.41L39.8378 121.416ZM33.4069 121.375C33.2497 121.347 33.0262 121.395 33.0055 121.239C33.0874 121.232 33.1639 121.219 33.1421 121.105C33.067 121.105 32.9906 120.996 33.1427 120.972C33.1714 121.159 33.3596 121.195 33.4065 121.373L33.4069 121.375ZM37.2858 122.338L37.2874 122.338C37.0731 122.351 36.8684 122.247 36.7533 122.066C36.8503 121.973 36.9956 121.952 37.1147 122.012C37.2345 122.073 37.3027 122.202 37.2855 122.335L37.2858 122.338ZM32.0549 123.243C32.3899 123.415 32.4777 122.715 32.5915 123.11C32.5096 123.117 32.4332 123.129 32.4551 123.243C32.7911 123.266 32.4882 123.696 32.4516 123.779C32.6506 123.937 32.999 123.949 33.1177 124.186L33.1186 124.185C32.8386 124.325 32.5016 124.28 32.267 124.072C32.0332 123.864 31.9489 123.534 32.0539 123.239L32.0549 123.243ZM32.7091 125.525L32.312 125.526C32.3099 125.659 32.4191 125.685 32.4442 125.794C32.1397 125.754 31.9409 125.818 31.9065 126.058C32.1611 126.117 32.2412 126.344 32.5743 126.33C32.3622 127.313 31.8715 126.355 31.6365 126.325C31.8516 126.352 31.078 126.971 31.2345 126.456C31.5306 126.441 31.2951 125.888 31.3759 125.654C31.8616 125.734 32.3955 125.169 32.7089 125.522L32.7091 125.525ZM31.7772 124.715C31.8903 125.145 31.5685 125.131 31.3716 125.248C31.3404 125.057 31.153 125.021 31.1029 124.843L31.1038 124.842C31.3005 124.709 31.5429 124.662 31.7755 124.711L31.7772 124.715ZM34.1842 125.535C34.1531 125.343 33.9649 125.307 33.9155 125.13C34.3915 125.014 34.6222 125.459 34.1832 125.531L34.1842 125.535ZM35.2493 126.743C34.6735 126.572 35.0211 126.319 34.8483 125.8L34.8494 125.799C35.0143 125.815 35.174 125.734 35.2606 125.593C35.3473 125.451 35.3455 125.273 35.2555 125.133C35.6765 125.073 35.6315 125.472 35.7884 125.672C35.309 125.673 35.3168 125.62 35.2507 125.936C35.2842 125.746 35.8916 126.379 35.3814 126.339C35.3535 126.188 35.2333 126.129 35.1157 126.065L35.1162 126.067C35.0647 126.3 35.1124 126.545 35.2475 126.744L35.2493 126.743ZM32.1647 127.124C32.49 126.706 32.8773 127.187 33.2387 126.86L33.2397 126.859C33.0831 126.805 32.943 126.712 32.8335 126.588C33.3731 126.775 33.3095 126.351 33.5072 126.19C33.4894 126.605 33.9257 126.575 33.7686 127.129C33.5151 127.158 33.4735 126.978 33.2328 126.992C33.2147 127.288 32.6641 127.046 32.4286 127.122L32.4287 127.121C32.4161 127.184 32.3614 127.229 32.298 127.23C32.2337 127.231 32.1773 127.187 32.1629 127.125L32.1647 127.124ZM32.4239 128.87C32.0948 129.001 32.1371 128.914 31.6189 129C31.515 128.477 32.4749 128.191 32.4202 128.869L32.4239 128.87ZM33.6252 129.414C33.3608 129.074 32.7634 128.596 33.4988 128.341C33.2448 128.714 33.7909 128.986 33.7629 128.879C33.8064 129.059 33.7496 129.386 33.6215 129.412L33.6252 129.414ZM28.1371 128.709L27.8686 128.707L27.8706 128.44L28.1378 128.44L28.1371 128.709ZM32.5529 129.542C32.9327 129.434 32.899 129.732 33.2221 129.681C33.3536 130.514 32.3812 130.193 32.5494 129.535L32.5529 129.542ZM31.3492 129.937C31.3248 129.645 31.4597 129.512 31.7526 129.537C31.8357 129.896 31.4661 129.798 31.341 129.934L31.3492 129.937ZM32.5478 130.213C32.9866 130.195 32.616 130.7 32.8129 130.885L32.1423 130.879C32.1628 130.364 32.252 130.222 32.5434 130.215L32.5478 130.213ZM31.3411 130.472C31.423 130.433 31.8595 130.142 31.8767 130.475C31.6359 130.589 31.4552 130.919 31.3375 130.469L31.3411 130.472ZM29.327 131.129C29.2184 130.749 29.5185 130.783 29.4656 130.46C29.9226 130.519 29.6288 130.821 30.134 130.598C30.1145 131.094 29.9379 130.934 29.5963 130.862C29.5764 131.024 29.55 131.178 29.3235 131.127L29.327 131.129ZM29.0549 131.797C29.0545 131.62 28.8206 131.673 28.7892 131.524C28.9696 131.483 29.0492 131.336 29.3258 131.391L29.3238 131.658C29.1891 131.664 29.1598 131.772 29.0521 131.795L29.0549 131.797ZM30.6604 132.081C30.614 132.344 30.8402 132.348 30.9293 132.484C30.6452 132.593 30.3233 132.126 30.6575 132.074L30.6604 132.081ZM29.4504 132.609L29.4514 132.608C29.4558 132.462 29.4089 132.319 29.3192 132.205C29.711 132.405 29.8185 132.055 29.988 132.476C29.8254 132.505 29.9046 132.626 29.9857 132.745C29.7294 132.767 29.6884 132.587 29.4477 132.602L29.4504 132.609ZM28.3798 132.334C28.3727 132.414 28.3591 132.492 28.2436 132.465C28.0397 132.061 28.9385 132.117 28.9149 132.336C28.7048 132.37 28.8191 132.628 28.912 132.738C28.4792 132.847 28.6345 132.383 28.377 132.327L28.3798 132.334ZM19.222 139.51C18.914 140.037 19.4909 140.125 19.752 140.452C19.4788 140.49 19.4866 140.813 19.2135 140.85C19.1816 140.704 18.9953 140.527 18.9464 140.714C18.9 140.978 19.1262 140.982 19.2151 141.119C18.8718 141.187 18.7447 141.293 18.5459 140.981C18.8137 141.005 18.58 140.595 18.6831 140.445C18.7315 140.377 18.9935 140.474 18.9523 140.313C18.9405 140.102 18.6122 140.206 18.6836 139.908C18.6864 139.731 18.9192 139.788 18.9575 139.642C18.9802 139.532 19.0642 139.481 19.2192 139.503L19.222 139.51ZM25.5375 136.737C25.4367 136.667 25.5576 136.534 25.4053 136.469C25.4605 136.492 25.0099 136.729 25.1383 136.332C25.2823 136.076 26.1631 136.464 26.3419 135.939L26.3422 135.937C26.1633 135.888 26.0483 135.715 26.0736 135.532C26.9003 135.621 26.1382 136.246 26.2008 136.739C26.0345 136.655 25.6897 136.83 25.5348 136.731L25.5375 136.737ZM25.2562 138.615C25.2461 138.273 24.6839 138.47 24.859 137.943C24.4443 137.909 24.4444 137.464 24.3279 137.134C24.6636 137.042 24.8799 137.004 25.1318 137.276C24.7804 137.371 25.1234 137.749 25.128 137.813C25.1294 137.805 24.8584 138.055 25.1258 138.081C25.1574 137.974 25.2386 137.926 25.3944 137.948C25.1455 137.709 25.5572 137.559 25.2652 137.277C25.9077 137.163 25.787 138.682 25.2541 138.605L25.2562 138.615ZM23.2427 139.664C23.5755 139.836 23.8024 139.276 23.9133 139.669C23.6407 139.757 23.3327 140.127 23.2427 139.664ZM24.1733 140.877C23.531 141.245 23.8518 140.435 24.1733 140.877ZM20.9602 140.454C20.8907 140.255 20.7636 140.115 20.6944 139.915C20.8531 139.894 21.075 139.941 21.0986 139.785L21.0979 139.785C20.9475 139.49 20.623 139.325 20.2958 139.377C20.1124 139.094 20.4789 139.025 20.5678 138.844C20.656 138.631 20.7031 138.404 20.7065 138.174C20.7009 138.075 20.574 138.037 20.574 138.037C20.5488 137.844 20.9026 137.528 20.5767 137.501C20.5438 137.648 20.3535 137.821 20.3075 137.634C20.518 137.399 20.8384 137.377 20.9818 137.102C20.9659 137.134 20.7783 136.968 20.9824 136.968C21.0106 137.073 21.0933 137.124 21.2495 137.104C21.0027 136.633 21.3524 136.669 21.5223 136.301C21.5496 136.147 21.5007 135.921 21.6584 135.902C21.6876 136.006 21.661 136.165 21.7906 136.17C21.9203 136.175 21.9511 136.063 22.06 136.037C22.155 136.404 21.7858 136.305 21.7885 136.572C21.9417 136.731 21.9321 137.045 21.9163 137.377C21.7588 137.396 21.5365 137.351 21.5136 137.508C21.7438 137.548 21.3885 137.921 21.7777 138.046C21.7806 137.869 22.0135 137.925 22.0516 137.78C22.0526 137.645 21.9441 137.618 21.9188 137.511C22.0961 137.375 22.4141 137.384 22.5901 137.247C22.5164 137.854 22.0644 137.659 22.3187 137.916L22.3196 137.916C22.5233 138.075 22.6236 138.331 22.5826 138.586C22.7652 138.564 22.9354 138.68 22.9824 138.857C22.6467 139.025 22.5644 138.784 22.4458 138.99C22.4875 139.17 22.6348 139.25 22.5783 139.526C22.3896 139.56 22.4236 139.819 22.3084 139.926C22.15 139.945 21.9277 139.9 21.9055 140.058C21.9271 140.437 21.3979 140.366 21.767 140.726C21.2724 140.813 21.3976 140.013 20.9556 140.453L20.9602 140.454ZM22.6966 141.537C22.5315 141.581 22.5642 141.741 22.4228 141.802C22.4414 141.056 22.7871 141.253 23.2303 141.139C23.3058 141.424 23.6873 141.871 23.2256 141.941C23.1626 141.733 22.9061 141.479 22.6866 141.535L22.6966 141.537ZM20.6853 141.658C21.2783 141.457 20.4712 140.84 20.8268 140.587C21.0358 140.989 21.4724 141.312 21.221 141.796C21.0143 141.77 20.7198 141.839 20.6784 141.657L20.6853 141.658ZM18.006 141.639C17.7933 141.445 17.6142 141.218 17.4743 140.967L18.0101 140.969C18.0809 141.052 18.3127 141.608 17.9988 141.639L18.006 141.639ZM21.0815 142.731C21.0427 142.377 21.3689 142.388 21.6198 142.334C21.6011 142.695 21.2992 142.972 21.0744 142.731L21.0815 142.731ZM21.8822 143.272C21.892 143.481 21.492 143.363 21.7485 143.272C21.8695 143.003 22.3354 143.334 22.0156 143.408C22.0013 143.323 21.9884 143.248 21.8742 143.272L21.8822 143.272ZM18.1283 143.65C18.2455 143.223 17.9192 143.234 17.8646 142.979L17.8639 142.979C18.0413 142.932 18.1568 142.761 18.1337 142.579C17.6531 142.654 17.7287 142.18 17.7374 141.772C18.2596 141.789 18.2234 142.357 18.2668 142.846L18.2667 142.847C18.4207 142.902 18.5585 142.995 18.6665 143.119C18.2367 143.048 18.6063 143.783 18.118 143.65L18.1283 143.65ZM17.0426 145.653C17.248 146.059 16.3477 146.002 16.3721 145.783C16.7428 145.896 16.7127 145.596 17.0347 145.654L17.0426 145.653ZM18.1162 145.526C18.1311 145.486 18.2664 145.683 18.2484 145.795C18.2404 145.84 18.0144 145.893 18.1128 146.061L18.1111 146.062C17.8181 146.082 17.5286 145.984 17.3091 145.788C17.5383 145.735 17.2818 145.616 17.3117 145.388C17.6121 145.264 17.8859 145.083 18.1189 144.856C18.0627 144.645 17.6981 144.739 17.8554 144.319C18.2791 144.113 18.6524 144.486 18.6603 144.056C18.9419 144.176 19.4605 144.065 19.3266 144.596C19.0051 144.675 18.3555 144.425 18.2538 144.723C18.2641 144.934 18.5941 144.83 18.5228 145.127C18.3777 145.33 18.1677 145.369 18.1082 145.527L18.1162 145.526ZM18.2487 146.062C18.8822 146.13 18.5045 145.899 18.3864 145.663C18.7191 145.834 18.944 145.272 19.0554 145.667C18.8085 145.843 18.4551 146.677 18.2386 146.061L18.2487 146.062ZM15.5681 146.314C15.9879 146.539 16.118 145.819 16.2388 146.184C16.0814 146.206 16.0884 146.396 16.1023 146.585C15.7861 146.621 15.5875 146.549 15.5578 146.314L15.5681 146.314ZM8.2002 145.864C8.19981 145.687 7.96588 145.74 7.93449 145.591C8.03926 145.562 8.091 145.479 8.07094 145.324C8.56058 145.274 8.46972 145.731 8.18996 145.864L8.2002 145.864ZM10.6107 146.148C10.3548 146.204 10.3656 146.529 9.93937 146.411C10.0057 146.107 10.2092 145.729 9.94497 145.474C10.1027 145.454 10.3249 145.499 10.3477 145.343C10.8879 145.495 10.8746 145.889 11.5519 145.619C11.6832 146.255 11.0984 146.163 10.6004 146.148L10.6107 146.148ZM16.4965 147.795C16.363 147.615 16.2778 147.389 16.0975 147.254C16.094 147.57 15.7323 147.204 15.8318 146.981L15.8301 146.981C16.1262 147.123 16.4699 147.125 16.7679 146.987C16.7869 147.283 16.6851 147.573 16.4866 147.793L16.4965 147.795ZM7.12034 147.064C6.90926 146.686 7.70207 146.698 7.65852 146.931L7.65698 146.931C7.46414 146.904 7.26842 146.95 7.11024 147.063L7.12034 147.064ZM10.4506 150.168C10.4366 150.378 10.4654 150.632 10.1794 150.567L10.1814 150.3C10.3056 150.3 10.332 150.191 10.4405 150.167L10.4506 150.168ZM13.2668 149.784C13.0296 149.752 12.5952 149.915 12.7333 149.513C13.0285 149.476 13.2232 149.547 13.2567 149.783L13.2668 149.784ZM17.0233 149.005L17.0213 149.272C16.9327 149.272 16.8435 149.272 16.7541 149.272L16.7564 149.003C16.8341 149.002 16.9231 149.004 17.0132 149.004L17.0233 149.005ZM18.3614 149.414C17.9575 148.96 18.8585 149.012 18.3614 149.414ZM17.2867 149.678C17.3159 149.096 17.521 149.435 17.959 149.413C17.9656 149.95 17.6069 149.764 17.2822 149.676L17.2867 149.678ZM13.6487 150.992C13.6715 150.656 13.4408 150.574 13.3836 150.319C13.8487 150.44 13.845 150.116 13.655 149.92C13.9044 149.793 14.0993 150.325 14.1906 149.923C13.8679 149.753 13.7604 149.371 13.6614 148.982C13.9148 148.953 13.9555 149.135 14.1965 149.118C14.2181 149.319 14.1455 149.614 14.3286 149.656L14.3287 149.656C14.6627 149.466 15.0262 149.333 15.4027 149.261C15.5142 149.638 15.8311 149.814 15.797 150.335C15.693 150.364 15.5324 150.338 15.5286 150.467L15.5295 150.467C15.2023 150.519 14.8792 150.355 14.7279 150.06C14.8106 149.874 15.2434 150.044 15.2657 149.796C15.1306 149.795 15.107 149.687 14.9985 149.661C14.7779 149.849 14.3674 149.831 14.3266 150.058C14.3249 150.068 14.5669 150.189 14.4588 150.326C14.3884 150.416 14.0116 150.247 14.0559 150.458C14.2663 150.552 14.6984 150.488 14.3246 150.863C14.1456 150.295 14.0097 150.985 13.6487 150.992ZM12.8358 152.323C12.7592 151.819 12.2214 150.245 13.119 150.716C13.1579 150.98 12.9362 150.982 12.8482 151.122C13.0593 151.136 13.3121 151.106 13.2483 151.392C13.0125 151.442 12.9066 151.19 12.8461 151.39C12.7325 151.989 13.8571 151.366 13.7812 151.931C13.5236 152.18 13.5385 151.849 13.1106 151.926L13.1114 151.926C13.0555 152.081 12.9616 152.219 12.8374 152.327L12.8358 152.323ZM47.7292 144.244C47.8636 144.293 47.8214 144.147 47.8656 144.111C48.1005 143.896 48.421 144.227 48.2711 144.382C48.1749 144.47 47.6866 144.337 47.7292 144.244ZM49.7301 145.061C49.5698 144.624 50.4586 144.917 50.1323 145.197C50.0161 145.3 49.7533 145.113 49.7301 145.061ZM48.3776 147.196C48.4594 147.19 48.536 147.177 48.5141 147.063C48.6034 147.064 48.6917 147.065 48.7811 147.065C48.797 147.401 49.0343 147.486 48.644 147.6C48.6872 147.337 48.4665 147.333 48.3809 147.196L48.3776 147.196ZM41.946 147.155C41.6695 146.722 42.1048 146.429 42.2242 146.218C42.1942 146.272 42.0357 146 42.3604 146.087C42.538 146.089 42.481 146.323 42.6262 146.361C42.4859 146.708 42.3982 147.116 41.9492 147.155L41.946 147.155ZM43.1389 149.172C42.8897 149.042 42.6873 149.571 42.6016 149.169C42.6883 149.131 43.1241 148.839 43.1421 149.172L43.1389 149.172ZM42.0718 148.361C42.1611 148.362 42.2494 148.363 42.3388 148.363C42.3097 147.886 42.4351 147.561 42.7472 147.428C42.9499 147.566 42.7073 147.726 42.7444 147.83C42.7814 147.934 43.1168 147.969 43.0131 148.235C42.6427 148.461 42.3271 149.062 42.0758 148.361L42.0718 148.361ZM32.55 149.505C32.5107 149.19 31.9161 149.422 32.0177 148.967C32.5292 148.856 33.0229 148.757 33.2167 149.241C32.896 149.221 32.8097 149.45 32.5533 149.504L32.55 149.505ZM32.0136 150.305C31.801 149.927 32.5941 149.937 32.5503 150.172C32.3676 150.217 32.2932 150.365 32.0136 150.305ZM30.9375 150.832L30.9395 150.565L31.208 150.568L31.206 150.835L30.9375 150.832ZM27.9802 152.022C27.8657 151.59 28.3306 151.743 28.3858 151.489C28.3043 151.48 28.2273 151.468 28.2532 151.352C28.453 151.376 28.7477 151.307 28.7883 151.489C28.4257 151.572 28.4514 152.049 27.9802 152.022ZM26.4869 155.094C26.4457 155.063 26.5158 154.872 26.4889 154.827C26.4767 154.807 26.28 154.725 26.489 154.692C26.4531 154.698 26.7579 154.948 26.7547 154.966C26.6625 155 26.5733 155.044 26.4885 155.095L26.4869 155.094ZM12.3939 158.619L12.3947 158.619C12.1041 158.814 11.8339 159.037 11.5869 159.284C11.6665 158.954 12.0177 158.204 12.3951 158.621L12.3939 158.619ZM11.0542 158.61L11.0577 158.074C11.4966 158.052 11.5833 158.708 11.0575 158.613L11.0542 158.61ZM11.1955 157.274L11.1948 157.543C11.0235 157.55 11.008 157.714 10.7919 157.675L10.7949 157.272L11.1955 157.274ZM12.1334 157.414L12.1341 157.414C11.9535 157.461 11.8365 157.635 11.8618 157.819C11.6301 157.77 11.3887 157.816 11.192 157.949C11.2069 157.865 11.1701 157.764 11.194 157.682C11.2425 157.505 11.3118 157.624 11.4626 157.549C11.5691 157.497 11.4579 157.41 11.5977 157.55C11.6534 157.606 11.8203 157.297 11.8716 157.284C11.9562 157.252 12.1447 157.328 12.1358 157.414L12.1334 157.414ZM8.38804 156.456C7.74585 156.824 8.0664 156.015 8.38804 156.456ZM12.8001 157.154C12.9712 157.147 12.9867 156.983 13.203 157.021C13.1854 157.364 12.9537 157.489 12.7957 157.69C12.7202 157.409 12.4666 157.304 12.5329 156.884C13.1282 156.787 12.4306 157.145 12.8064 157.149L12.8001 157.154ZM13.6051 157.024C13.6881 157.074 13.5303 157.489 13.7373 157.427C13.7446 157.346 13.7572 157.269 13.8738 157.295C14.0304 157.694 13.3055 157.867 13.2025 157.558C13.5824 157.62 13.394 156.894 13.6121 157.021L13.6051 157.024ZM10.6709 154.862C10.5013 155.295 11.1056 154.967 10.9352 155.4C10.6711 155.439 10.67 155.217 10.5351 155.13C10.1916 155.198 10.0646 155.304 9.86589 154.991C10.1441 155.051 10.4333 155.003 10.6778 154.858L10.6709 154.862ZM12.5626 153.531L12.2938 153.53C12.1865 153.497 12.0301 153.523 12.0268 153.393C12.2266 153.418 12.5219 153.349 12.5626 153.531ZM13.1011 153.132C13.4125 153.178 13.6773 153.273 13.7688 153.539C13.5894 153.538 13.4111 153.536 13.2317 153.535L13.2318 153.535C13.2352 153.39 13.189 153.248 13.1011 153.132ZM15.2432 153.283C15.2744 153.03 15.0938 152.987 15.1109 152.746C15.2749 152.762 15.4277 152.788 15.3766 153.02C15.5406 153.036 15.6934 153.062 15.6415 153.294L15.2432 153.283ZM24.4775 155.084C24.3882 155.083 24.2981 155.083 24.209 155.082C23.4759 155.112 24.5073 154.704 24.4779 155.082L24.4775 155.084ZM16.0449 153.689C16.4427 153.599 16.7059 153.533 16.8475 153.694L16.8481 153.695C16.7543 153.824 16.6034 153.899 16.4447 153.897C16.2853 153.895 16.137 153.817 16.046 153.687L16.0449 153.689ZM14.4365 153.678C14.3654 153.7 14.2416 154.097 14.1672 153.81C14.249 153.804 14.3255 153.792 14.3037 153.678L14.3043 153.679C14.1477 153.625 14.0084 153.532 13.8989 153.408C14.4828 153.595 14.1868 152.892 14.7059 153.012C14.6491 153.334 14.9494 153.304 14.836 153.682C14.6927 153.88 14.5521 153.642 14.4376 153.676L14.4365 153.678ZM23.1321 155.878C23.0499 155.887 22.9736 155.898 22.9952 156.013L22.9951 156.014C23.1408 156.017 23.2835 155.971 23.3982 155.881C23.4734 156.163 23.7281 156.266 23.6609 156.687C23.479 156.728 23.4006 156.876 23.1243 156.82C23.0432 156.669 23.2885 156.48 23.2607 156.418C23.2197 156.328 22.9025 156.355 22.8592 156.282C22.71 156.034 22.7578 155.507 23.1315 155.881L23.1321 155.878ZM14.557 155.689C14.4138 155.672 14.1489 155.748 14.0213 155.687C13.9567 155.654 14.0474 155.364 13.8885 155.417C13.9489 155.635 13.1583 155.629 13.2194 155.412C13.5593 155.324 12.7384 154.965 13.3566 154.877C13.3751 155.126 13.8095 154.964 13.89 155.149C13.8933 154.793 13.8446 154.383 14.0299 154.212C13.5595 154.107 13.4277 154.559 13.6248 154.746C13.2694 154.833 13.4664 154.514 13.3561 154.341C13.3014 154.252 13.0759 154.235 13.0904 154.067C13.3469 154.007 13.6645 154.485 13.627 153.935C14.041 153.839 13.8829 154.305 14.2955 154.208C14.9692 154.285 15.399 153.673 16.0375 154.219C15.9549 154.45 15.4019 154.204 15.3662 154.483C15.528 154.511 15.4473 154.632 15.3639 154.751L15.365 154.754C15.5109 154.757 15.6527 154.711 15.7687 154.622C15.6223 155.067 15.8071 155.082 15.6288 155.559C15.4596 155.581 15.0922 155.507 15.0906 155.691C15.0923 155.973 14.7154 155.706 14.5575 155.687L14.557 155.689ZM12.1382 156.341C12.1146 156.152 12.1642 155.96 12.2762 155.805C12.1686 155.774 12.012 155.801 12.0095 155.671C12.2002 155.639 12.2367 155.45 12.4129 155.402C12.2503 155.822 12.4837 155.983 12.1382 156.341ZM14.0112 157.291C13.972 156.975 13.5478 157.04 13.614 156.619C14.1379 156.492 14.5394 157.166 14.0118 157.292L14.0112 157.291ZM17.888 158.79C18.2209 158.773 17.9292 158.337 17.8908 158.255C18.2037 158.216 18.4697 157.972 18.56 158.393C18.2634 158.375 18.1917 159.261 17.888 158.79ZM17.7558 158.522C16.8891 158.813 17.3999 158.038 17.7558 158.522ZM16.2802 158.646C16.2521 158.393 16.4335 158.351 16.4173 158.111C16.0951 158.413 15.8729 157.866 15.8853 157.437C16.3479 157.383 16.2855 157.84 16.5516 157.977C16.7643 158.179 16.7448 158.743 16.2817 158.642L16.2802 158.646ZM15.8782 158.643C15.8636 158.308 15.6251 158.221 16.0152 158.108C16.1903 158.286 16.0957 158.513 15.8788 158.644L15.8782 158.643ZM14.8016 159.308C14.6032 159.204 14.8067 158.942 14.9388 158.772C14.9815 158.718 14.8955 158.555 14.9411 158.503C14.9709 158.469 15.264 158.56 15.2075 158.639C14.9075 158.693 15.2241 159.374 14.8024 159.308L14.8016 159.308ZM13.5979 159.702C14.0004 159.702 13.0364 159.325 13.6017 159.165C13.6127 159.64 14.0459 158.884 14.0029 159.303C13.8055 159.305 13.7899 160.143 13.5933 159.701L13.5979 159.702ZM10.7906 159.547C10.2149 158.986 11.2577 159.468 10.7933 159.011C11.2909 158.921 11.1255 159.483 11.3255 159.685L11.3263 159.685C11.133 159.713 10.9368 159.665 10.7793 159.548L10.7906 159.547ZM9.72799 158.199L9.99496 158.201L9.9965 158.202C9.99642 158.278 9.93398 158.341 9.85727 158.341C9.78057 158.341 9.71802 158.278 9.71811 158.202L9.72799 158.199ZM80.59 98.0955C80.1916 98.0584 79.9301 98.6221 79.7859 98.0897C79.9662 97.7624 80.1883 98.3331 80.3226 97.9573C80.1676 97.93 80.179 97.7446 80.1906 97.5528C80.5436 97.5202 80.5343 97.8373 80.59 98.0955ZM11.7143 160.358C11.8597 160.363 12.0025 160.316 12.117 160.227C12.1365 160.56 11.9045 160.643 11.8449 160.896C11.9185 160.895 11.9964 161.005 11.8443 161.029C11.8175 160.867 11.6961 160.945 11.5773 161.027C11.5236 160.704 11.8229 160.737 11.7143 160.358ZM20.7119 157.334C21.019 157.521 21.219 156.992 21.249 157.338C21.1664 157.344 21.0892 157.356 21.1126 157.47C21.3124 157.494 21.6068 157.426 21.6476 157.607C21.4838 157.621 21.3299 157.646 21.3735 157.874C20.9197 157.927 20.615 157.829 20.7119 157.334ZM9.72376 157.397C9.58726 157.381 9.44892 157.973 9.32081 157.529C9.51424 157.602 9.65133 157.009 9.72376 157.397ZM50.8214 142.655C51.3919 142.492 51.1782 143.103 51.4876 143.196L51.4884 143.196C51.5821 143.068 51.7323 142.992 51.8912 142.993C52.0508 142.994 52.2 143.072 52.2926 143.201C52.1313 143.228 52.2097 143.349 52.2919 143.47C51.6891 143.309 50.9098 143.324 50.8214 142.655ZM21.3663 139.114C21.0836 138.789 21.1059 138.971 21.3682 138.713C21.424 138.661 21.4558 138.589 21.4565 138.513C21.4573 138.436 21.4259 138.364 21.371 138.311C21.6202 138.441 21.8226 137.912 21.9067 138.315C21.3947 138.311 21.7799 138.617 21.7704 138.85C21.7718 138.81 21.6484 138.936 21.6338 138.983C21.5965 139.105 21.6616 139.26 21.6319 139.384C21.3601 139.468 21.4568 139.22 21.3663 139.114ZM7.85853 135.273C7.61197 135.429 8.16527 135.39 7.85504 135.809C8.22599 135.633 8.31064 136.342 8.1214 135.944C7.69444 135.728 7.36153 135.956 7.31428 136.476C6.79064 136.261 7.03419 136.822 6.77578 136.874C6.7754 136.697 6.54146 136.75 6.51008 136.6L6.50931 136.6C6.66996 136.443 6.80688 136.263 6.91591 136.066C6.71653 136.134 6.576 136.262 6.37816 136.33L6.37802 136.331C6.54913 136.069 6.49272 135.721 6.24883 135.525C6.72403 135.513 7.09927 135.398 7.19014 134.995L7.19091 134.995C7.44877 134.946 7.71099 135.055 7.85853 135.273ZM6.12017 134.591C6.20732 134.392 6.27734 134.341 6.38942 134.459C6.72431 134.798 6.97252 134.166 7.05786 134.597C6.85741 134.765 6.65245 135.142 6.3867 134.86C6.35897 135.017 6.40656 135.241 6.25013 135.262L6.24999 135.263C6.13526 135.03 5.94803 134.84 5.71735 134.722C5.71741 134.798 5.6076 134.874 5.5838 134.722C5.85956 134.687 5.61945 134.129 5.98936 134.189C6.0077 134.349 5.96361 134.573 6.1195 134.595L6.12017 134.591ZM8.5338 134.336C8.71296 134.935 7.49343 134.45 7.99805 134.333C8.02639 134.684 8.22764 134.157 8.53504 134.343L8.5338 134.336ZM6.13343 132.452C6.28951 132.782 6.64167 132.18 6.80214 132.589C6.46046 132.741 6.0694 132.739 5.73089 132.582C6.04162 132.165 5.48913 132.199 5.73424 132.047C6.043 132.005 5.88112 132.43 6.13343 132.452ZM6.67268 131.919C6.80668 131.545 7.02952 132.116 7.20933 131.787C7.23819 132.04 7.0561 132.082 7.07228 132.322C6.81884 132.351 6.77741 132.169 6.53714 132.185C6.69347 131.792 5.89811 131.683 6.27364 131.513C6.4013 131.651 6.53627 131.787 6.67268 131.919ZM37.8042 124.483C38.2963 124.648 38.093 124.034 38.078 124.217C38.1182 123.855 38.3155 123.431 38.8852 123.685C39.0153 123.836 38.6103 124.028 38.4801 124.22C38.3882 124.355 38.316 124.249 38.2107 124.353C38.1828 124.381 38.2426 124.607 38.21 124.621C38.0806 124.669 37.8079 124.583 37.8091 124.482L37.8042 124.483ZM13.9632 122.988C13.635 123.114 13.5234 122.383 13.699 122.451C13.7026 122.717 14.0672 122.623 13.9673 122.988L13.9632 122.988ZM6.73185 122.271C6.73174 122.406 6.62214 122.431 6.59617 122.538C6.75865 122.554 6.91297 122.581 6.86111 122.812L6.45891 122.81C6.24345 122.354 7.09278 122.018 6.73659 122.271L6.73185 122.271ZM7.82295 119.33C7.98543 119.346 8.13975 119.373 8.0879 119.604C7.85073 119.85 7.6736 119.568 7.5544 119.333C7.86312 119.376 7.70555 118.947 7.95947 118.933C8.22848 119.237 7.92854 119.077 7.82768 119.331L7.82295 119.33ZM60.147 109.886C60.2599 110.148 59.9356 110.076 59.8732 110.152C59.8393 110.196 59.9149 110.386 59.8712 110.419C59.7421 110.509 59.4476 110.507 59.4683 110.416C59.7849 110.329 59.8354 109.976 60.147 109.886ZM6.40933 131.252C6.57335 131.268 6.7264 131.293 6.67504 131.526C6.30395 131.334 5.87542 131.283 5.47009 131.384C5.26481 130.907 5.92606 131.306 5.87502 130.985C5.76723 130.955 5.72025 130.872 5.7422 130.716C6.06436 130.772 6.03554 130.474 6.41275 130.586C6.42674 130.911 6.66351 130.994 6.41 131.248L6.40933 131.252Z" fill="white"/>
<path d="M18.8518 34.2244C18.6435 33.0427 16.9544 31.7564 15.7727 31.9648C15.1818 32.069 15.2257 33.2392 15.4525 34.9863C15.7812 37.0811 16.024 40.5313 15.7641 43.664C15.5412 46.5465 14.9963 49.4452 15.0727 49.8785C15.2325 50.7845 16.8033 52.0916 17.5912 51.9527C18.4972 51.7929 19.8162 47.9861 21.1606 44.784C23.4437 39.3043 25.1475 34.4547 26.8019 34.163C27.314 34.0727 28.0902 34.7888 28.2986 35.9706C28.5278 37.2705 28.3838 39.4486 28.1286 41.6869C27.7389 45.005 27.1198 47.7137 27.349 49.0136C27.4949 49.8408 27.8332 50.1468 28.424 50.0426C29.8422 49.7925 30.7742 46.0945 31.3448 41.7291C31.7136 38.9833 31.7487 36.4183 31.4223 34.5668C30.9916 32.1245 28.2484 29.9275 26.4364 30.247C24.0334 30.6707 21.5371 36.5535 18.4704 44.7303C19.0386 40.8121 19.1366 35.8395 18.8518 34.2244ZM49.5322 31.4954C49.1988 29.6046 46.3769 26.7309 43.8558 27.1755C38.656 28.0923 34.2102 39.2742 35.0367 43.9619C35.4327 46.2073 38.8316 48.2074 41.1952 47.7907C43.3223 47.4156 45.4429 44.9296 46.91 42.1933C47.4797 44.7329 48.4433 46.5126 49.3888 46.3459C50.2948 46.1862 49.8595 43.9477 49.8621 41.429C49.8788 38.2986 49.9022 36.5885 49.6938 35.4068C49.6383 35.0916 49.3788 34.7718 49.0405 34.4659C49.4137 33.5878 49.685 32.362 49.5322 31.4954ZM38.3457 43.3784C37.7692 40.1089 41.5567 30.9521 44.7868 30.3825C45.8504 30.195 46.543 31.8194 46.8903 33.789L46.8973 33.8284C46.5566 33.9697 46.3689 34.2871 46.3526 34.6555C45.9487 39.9664 42.7458 44.146 40.4611 44.5489C39.5157 44.7156 38.5124 44.3239 38.3457 43.3784ZM55.4914 13.751C54.7824 13.876 54.6224 14.351 54.8169 15.454C55.0739 16.9115 55.4022 22.4588 55.2343 29.7995C55.1268 36.5609 54.3128 41.6191 54.542 42.919C54.7017 43.825 56.3513 45.1182 57.0998 44.9863C57.8483 44.8543 58.9493 41.6545 60.4282 38.0631C62.7507 32.5765 64.5309 28.1602 66.4217 27.8268C66.8944 27.7435 67.6428 28.302 67.8164 29.2868C68.004 30.3504 67.9273 31.9886 67.7463 33.7264C67.4492 37.1094 66.6378 40.3394 66.9365 42.0333C67.0823 42.8605 67.46 43.1595 68.0115 43.0622C69.6659 42.7705 70.6027 38.1781 71.0506 33.3469C71.2664 31.1155 71.32 29.1158 71.0491 27.5795C70.6809 25.4917 67.7177 22.968 66.4177 23.1972C63.9754 23.6278 61.2869 27.9605 57.6452 38.6351C59.0437 29.2902 59.0798 19.8201 58.545 16.7869C58.288 15.3294 56.4762 13.5774 55.4914 13.751Z" fill="white"/>
</svg>
