<svg width="107" height="175" viewBox="0 0 107 175" fill="none" xmlns="http://www.w3.org/2000/svg">
<path fill-rule="evenodd" clip-rule="evenodd" d="M96.7756 159.339C96.8432 159.14 96.9719 158.999 97.0398 158.801C97.3363 158.854 97.2288 159.586 96.7756 159.339ZM83.753 155.539C84.1303 155.561 84.1223 155.974 84.4263 156.07C84.5987 155.477 83.9243 154.972 83.753 155.539ZM91.3808 153.881C91.1983 153.631 90.7874 153.96 90.845 154.018C90.9337 154.108 91.4242 153.979 91.3808 153.881ZM73.2728 151.05C72.8458 151.199 72.5913 150.98 72.338 151.459C72.6675 151.34 73.2651 151.487 73.2728 151.05ZM98.3279 150.62L98.3287 150.62C98.423 150.523 98.4455 150.376 98.3847 150.256C98.323 150.134 98.1916 150.067 98.0573 150.086C98.0204 150.392 98.0916 150.59 98.3271 150.62L98.3279 150.62ZM70.3173 149.997C70.2986 150.156 70.0808 150.302 70.3202 150.399C70.3388 150.24 70.5567 150.094 70.3173 149.997ZM69.6468 149.868C69.4862 149.698 69.1406 149.814 68.9776 150.007C69.1686 150.036 69.2051 150.225 69.3824 150.275C69.412 150.079 69.6014 150.046 69.6468 149.868ZM62.4011 148.311C62.3184 148.273 61.8837 147.983 61.8654 148.314C62.1085 148.181 62.3151 148.707 62.4009 148.305L62.4011 148.311ZM65.3274 144.942L65.3282 144.942C65.324 144.797 65.3702 144.655 65.4592 144.541L65.1922 144.543C65.0413 144.728 65.0481 144.865 65.3273 144.937L65.3274 144.942ZM91.58 143.3C91.92 143.438 92.1709 142.843 91.8441 142.761C91.845 143.022 91.4791 142.929 91.5798 143.294L91.58 143.3ZM90.6371 142.635L90.638 142.635C90.6142 142.819 90.7311 142.993 90.9103 143.04C90.906 142.895 90.952 142.752 91.0407 142.636L90.6371 142.635ZM59.8204 142.966L59.8181 142.698L59.5512 142.7L59.5534 142.968L59.8204 142.966ZM98.7737 137.486C99.0503 137.602 99.3729 137.134 99.0424 137.081C99.0323 137.293 98.7014 137.188 98.7737 137.486ZM99.5716 136.543C99.5378 136.643 99.197 136.684 99.3026 136.946C99.7328 136.883 100.079 136.737 99.966 136.138C99.7529 136.132 99.5511 136.234 99.4319 136.41C99.4821 136.359 99.6024 136.463 99.5755 136.543L99.5716 136.543ZM98.3607 135.745C98.6092 135.616 98.8108 136.144 98.8965 135.742C98.8178 135.704 98.3821 135.413 98.3647 135.745L98.3607 135.745ZM75.9684 133.077C75.9956 133.266 75.948 133.458 75.837 133.614L76.239 133.611C76.2768 133.305 76.2056 133.108 75.9684 133.077ZM76.6376 132.938C76.2342 133.436 76.1844 132.534 76.6376 132.938ZM98.4756 132.256C98.6135 132.657 99.2846 132.516 99.6794 132.651C99.5702 132.39 99.9466 132.377 99.9481 132.246C99.9468 132.189 99.5469 132.079 99.6784 131.847C99.8894 131.832 100.144 131.861 100.078 131.575C99.5457 131.808 98.5835 131.612 98.4756 132.256ZM75.9675 132.674C76.2179 132.641 75.89 132.455 76.0996 132.405C76.1978 132.191 76.7558 132.431 76.634 132C76.6544 131.78 75.8022 131.786 75.8298 132.006C76.187 132.197 75.3396 132.307 75.5668 132.81C75.7221 132.789 75.9454 132.827 75.9675 132.674ZM97.9323 131.058C98.1034 131.064 98.1175 131.229 98.3346 131.191C98.541 130.859 97.8771 130.799 97.9323 131.058ZM79.4294 129.437C79.4768 128.939 79.4445 128.527 79.0208 128.502C79.1606 128.877 79.1768 129.072 78.6223 129.04C78.613 129.454 79.0308 129.437 79.4294 129.437ZM99.3839 127.835C99.8047 127.894 99.7604 127.494 99.9165 127.294C99.4968 127.233 99.5413 127.633 99.3839 127.835ZM96.1436 124.503C95.9611 124.482 95.7907 124.596 95.7428 124.773C95.9253 124.795 96.0957 124.68 96.1436 124.503ZM67.9976 123.48C67.9069 123.836 68.2762 123.737 68.4079 123.878C68.4966 123.52 68.1278 123.622 68.001 123.482L67.9976 123.48ZM97.8479 117.794L97.8456 117.526C97.7562 117.526 97.6662 117.526 97.5771 117.528L97.5791 117.795C97.6694 117.796 97.7585 117.794 97.8479 117.794ZM95.4285 116.871C95.1612 117.145 95.4905 117.133 95.5672 117.406C95.9326 117.415 95.8351 117.181 96.1028 117.403C96.0031 116.932 95.6316 116.565 95.1587 116.471C95.1159 116.735 95.3428 116.735 95.4285 116.871ZM92.2133 116.892C92.2444 116.701 92.4326 116.664 92.482 116.487C92.2024 116.373 91.8796 116.838 92.2133 116.892ZM67.9536 116.379C67.6187 116.359 67.5372 116.588 67.4209 116.785C67.7736 116.82 67.9984 116.732 67.9536 116.379ZM95.5544 116.067C95.3547 116.091 95.06 116.021 95.0194 116.204C95.201 116.377 95.5223 116.378 95.5567 116.067L95.5544 116.067ZM92.8751 116.086C93.0674 115.89 93.0689 115.567 92.6043 115.681L92.6041 115.68C92.5813 115.865 92.6977 116.036 92.877 116.084L92.8751 116.086ZM56.953 114.173L56.686 114.175C56.6043 114.182 56.5276 114.196 56.5527 114.311C56.6346 114.318 56.7126 114.33 56.6893 114.445C56.5815 114.475 56.4252 114.449 56.4219 114.579C56.7712 114.613 56.9963 114.526 56.953 114.173ZM62.9668 111.588C62.3851 111.536 63.1025 110.81 62.9668 111.588ZM40.8237 106.371C40.8386 106.872 40.9764 106.752 40.8287 107.175C41.0374 107.291 41.2917 107.289 41.4985 107.17C41.3681 106.808 41.4339 106.248 40.8237 106.371ZM39.351 106.649C39.3678 106.986 39.3807 107.337 39.7582 107.317L39.7581 107.316C39.82 107.021 39.642 106.729 39.351 106.649ZM50.6026 105.775C50.563 106.129 50.89 106.117 51.1403 106.173C51.1778 105.816 50.8576 105.826 50.6026 105.775ZM51.8068 105.634C52.2616 106.037 52.2101 105.135 51.8068 105.634ZM34.1116 104.538C33.835 104.423 33.5123 104.889 33.8429 104.943C33.8779 104.756 34.0652 104.714 34.1116 104.538ZM46.9669 103.115C46.6099 103.163 46.5161 103.47 46.4347 103.789C46.8109 103.761 47.0043 103.552 46.9669 103.115ZM43.7463 102.465C43.9732 102.465 43.8229 102.837 44.0171 102.871C44.0453 102.766 44.1279 102.714 44.2841 102.734C44.423 102.392 43.8274 102.14 43.7463 102.465ZM38.2427 101.028C38.5777 101.048 38.659 100.819 38.7755 100.623C38.4252 100.587 38.1978 100.675 38.2436 101.029L38.2427 101.028ZM37.5713 100.898C37.8952 100.954 37.8608 100.652 38.2405 100.76L38.2414 100.76C38.2363 100.615 38.2831 100.472 38.3721 100.358C38.2294 100.262 37.7523 99.8389 37.567 100.228C38.1553 100.196 37.5857 100.707 37.5722 100.899L37.5713 100.898ZM2.31989 99.2515C2.38073 98.8295 1.95649 98.8996 1.91255 98.5831C1.83402 98.3485 2.06944 97.7953 1.77121 97.7815C1.73678 98.0572 1.17878 97.8171 1.23832 98.1863L1.23819 98.1855C1.39389 98.2387 1.53357 98.3312 1.64306 98.4542C1.39579 98.743 0.81506 98.7015 0.708839 99.1307C1.0885 99.2385 1.05498 98.9407 1.37804 98.9921C1.34652 99.1677 1.56754 99.0575 1.64666 99.1251C1.72579 99.1926 1.63258 99.5072 1.92037 99.39C1.93975 99.2308 2.12989 99.2415 2.31989 99.2515ZM2.31353 98.3138C2.24357 98.7873 2.79012 98.6395 2.72107 99.1136C2.57953 99.1227 2.61628 99.2863 2.85768 99.2469C2.90481 98.7023 2.80001 98.3143 2.31353 98.3138ZM2.44635 98.0444C2.59705 97.7687 2.23108 97.4022 2.17251 97.7787C2.35254 97.777 2.29967 98.011 2.44635 98.0444ZM93.1532 159.632C93.1463 159.714 93.1337 159.79 93.0199 159.769C93.0204 159.695 92.9102 159.617 92.8864 159.769C93.0108 160.035 93.5724 159.798 93.1532 159.632ZM92.4827 159.637C92.7562 159.215 92.3895 159.463 92.0797 159.505C92.0218 159.23 92.0676 158.943 92.2083 158.7C92.2722 158.278 91.543 158.654 91.669 158.167C91.4899 158.169 91.3113 158.17 91.1334 158.171C90.7884 158.205 91.3196 158.401 91.1364 158.708C90.8027 158.448 90.377 158.12 90.1986 158.714C89.7411 158.434 90.1459 158.325 90.1936 157.909C89.8128 157.889 89.9338 158.365 89.3915 158.182C89.4514 158.302 89.5105 158.422 89.6653 158.448C89.4975 158.783 89.0156 158.311 89.1261 157.915C88.9335 157.949 89.0834 158.315 88.8573 158.32C88.629 158.37 88.6036 158.217 88.5836 158.055C88.5492 157.909 88.3163 157.965 88.3098 157.789C88.1533 157.817 88.199 158.036 88.179 158.191C88.0236 158.171 87.941 158.223 87.912 158.327C87.5971 158.286 87.6122 157.914 87.3729 157.795C87.3067 157.644 87.6236 157.715 87.6399 157.659C87.7367 157.329 87.166 157.165 87.2314 156.724C86.6702 156.757 86.5983 156.511 86.1603 156.732L86.1594 156.731C86.0476 156.577 85.998 156.385 86.0215 156.195C85.8672 156.307 85.6757 156.356 85.4866 156.333C85.389 155.838 85.9533 155.997 86.1522 155.793C86.1242 155.41 86.1362 155.061 86.5509 155.121C86.6642 155.498 86.364 155.469 86.4208 155.791C86.4815 155.911 86.5396 156.03 86.6946 156.057C86.9301 156.015 86.5914 155.862 86.6918 155.655C86.716 155.604 87.0505 155.581 87.0932 155.518C87.1759 155.391 86.9607 155.408 86.9568 155.386C86.9158 155.194 87.1565 155.231 86.953 154.849C86.3588 154.893 85.6592 155.226 85.6104 154.456C85.3839 154.459 85.164 154.459 84.9398 154.461C84.6925 154.732 85.2024 154.91 85.2118 154.994C85.2305 155.172 84.9931 155.042 84.9447 155.13C84.8088 155.351 85.0901 155.466 85.0831 155.799C84.7838 155.882 84.9501 155.412 84.6729 155.401C84.4901 155.391 84.5604 155.041 84.5357 154.865C84.3026 154.763 84.2132 154.965 84.1343 155.002L84.1329 155.003C83.9964 155.036 83.8621 155.082 83.7329 155.139C83.6215 155.247 83.7245 155.58 83.4642 155.544C83.4773 155.734 83.4893 155.924 83.3335 155.946C83.3781 156.477 83.7977 155.793 83.7385 156.346C83.4983 156.365 83.4537 156.184 83.2018 156.213C83.1195 155.787 83.4505 155.798 83.197 155.544C82.7382 155.446 83.0297 156.089 82.529 155.95C82.6948 155.737 82.6118 155.778 82.3928 155.55C82.209 155.355 81.9929 155.031 81.7193 155.018C81.6804 154.798 81.8439 154.787 81.8499 154.615C81.4777 154.922 81.187 154.485 80.7794 154.757C80.7142 154.387 81.2778 154.627 81.3122 154.351C81.0673 153.868 80.944 154.591 80.643 154.489L80.6409 154.087C80.3546 154.025 80.3871 154.281 80.3722 154.492C80.0794 154.518 79.9451 154.385 79.9672 154.093C79.6807 154.397 79.5092 153.985 79.0294 154.099C78.9556 153.918 79.122 153.597 79.0245 153.43C78.8971 153.209 77.881 153.273 78.7507 153.164C78.4389 152.759 78.212 152.271 77.5386 152.233L77.5399 152.231C77.721 151.994 77.719 151.663 77.5344 151.429C77.2759 151.443 77.771 151.954 77.2699 151.965C77.4565 152.045 77.2937 152.481 77.5419 152.498C77.531 152.84 77.0441 152.819 76.8727 152.637C76.7986 152.495 77.1323 152.548 77.1398 152.501C77.1659 152.335 76.9304 152.444 76.8706 152.369C76.7439 152.211 76.8526 151.805 76.732 151.7L76.7321 151.701C76.6184 151.791 76.4767 151.84 76.3308 151.838C76.3296 152.154 76.5646 152.231 76.4722 152.639C76.2913 152.663 76.2938 151.866 76.0673 152.371C75.7919 152.334 75.7978 152.013 75.6622 151.836C75.4632 151.838 75.647 152.001 75.6631 151.971C75.4512 152.384 75.4554 151.821 74.9925 151.977C75.0976 151.164 74.334 151.427 74.0498 151.313C74.0376 151.122 74.0248 150.933 74.1821 150.91C74.2385 150.589 73.5726 150.988 73.7771 150.511C73.4107 150.416 73.5089 150.78 73.2421 150.782C72.9302 150.785 72.6181 150.787 72.3052 150.789C72.1062 150.849 72.359 150.96 72.3073 151.191C71.9704 151.209 71.8902 151.45 71.7706 151.059C71.4627 151.326 71.6215 151.025 71.3677 150.926C71.377 150.665 71.9427 151.205 71.7659 150.516C71.7236 150.334 71.4302 150.406 71.2293 150.384C71.1071 150.494 71.0146 150.633 70.9606 150.788C70.5355 150.513 71.0222 150.097 70.5543 149.987C70.573 149.739 71.0074 149.902 71.0878 149.716L71.0848 149.178C71.0245 148.98 70.9132 149.232 70.6827 149.181C70.5206 149.007 70.6282 148.971 70.6801 148.781C70.5716 148.807 70.5476 148.917 70.413 148.916C70.3928 149.296 70.8685 149.176 70.6857 149.719C70.4518 149.76 70.364 149.702 70.2835 149.586C70.2982 149.607 70.1483 149.205 70.1471 149.319C70.1484 149.206 70.2991 149.186 70.28 149.051C70.2412 148.785 70.0257 148.658 70.1415 148.381C69.6961 148.426 69.7697 148.991 69.7472 149.455C69.6695 149.657 69.4554 149.465 69.4786 149.458C69.3899 149.488 69.2367 149.727 69.2129 149.732C69.0403 149.762 68.7891 149.445 68.6773 149.735C68.3817 149.754 68.6669 149.182 68.4044 149.067C68.0011 148.887 68.2436 149.164 68.268 148.665C67.9881 148.576 67.9136 148.804 67.733 148.802C67.4241 148.8 67.425 148.549 67.0609 148.539C66.9221 149.038 67.5659 148.747 67.4679 149.205L67.4672 149.206C67.0987 149.278 66.7408 149.042 66.6604 148.676C66.2506 148.581 66.1727 148.816 65.8573 148.817C65.4801 148.607 66.156 148.098 65.7174 147.88C65.5528 147.956 65.8197 148.398 65.1845 148.285C65.3194 148.48 65.369 148.722 65.323 148.954C64.9843 148.962 65.1586 148.856 65.1866 148.687C65.153 148.452 64.9543 148.388 64.6488 148.423C64.5737 148.127 64.9044 148.231 64.9175 148.018C65.0698 147.325 63.9867 147.884 63.9749 147.355C63.8394 147.443 63.8388 147.664 63.5697 147.627C63.4642 147.769 63.7077 147.88 63.7054 147.894C63.6802 148.061 63.4835 148.062 63.4397 148.168C63.3761 148.314 63.5687 148.258 63.5759 148.299C63.5911 148.386 63.2865 148.69 63.5787 148.701C63.5436 149.143 62.8672 148.479 63.3049 148.435C63.2162 148.3 62.9962 148.299 63.035 148.035C62.983 148.018 62.5008 148.419 62.4994 148.039C62.4963 147.68 62.2455 148.097 61.9621 148.042C62.0885 147.556 61.3594 147.934 61.423 147.51C60.9184 147.573 60.7935 147.25 60.4815 147.109C60.3824 146.744 60.7465 146.835 60.746 146.572C60.5049 146.748 60.0691 146.456 59.6755 146.714C59.658 146.377 59.4213 146.299 59.6704 146.043C59.4156 146.101 59.0944 146.096 59.1376 146.449C58.8447 146.474 58.7109 146.343 58.7272 146.05C58.531 146.049 58.3062 146.618 58.3251 146.053C57.9604 146.178 58.5123 146.473 58.3301 146.857C57.9286 146.993 58.0917 146.559 58.0589 146.323L58.0595 146.322C57.8627 146.431 57.6828 146.568 57.5252 146.728C57.1768 146.802 57.2773 146.533 56.9872 146.462C56.9402 146.452 56.7509 146.504 56.7202 146.464C56.6895 146.425 57.0826 145.779 56.5838 146.063C56.593 145.873 56.603 145.683 56.4476 145.663C56.4673 145.505 56.6914 145.547 56.8488 145.525C57.1022 145.509 56.9384 145.082 57.2471 145.115C57.225 144.99 56.8899 144.933 56.7104 144.982C56.659 144.991 56.4685 145.252 56.4447 145.256C56.3734 145.269 56.1956 145.131 56.042 145.126C55.8022 145.116 55.627 145.342 55.3728 145.264C55.1927 144.642 55.8145 144.813 55.6366 144.19C55.4388 144.356 55.4368 144.703 55.2394 144.862L54.0333 144.871C53.9154 144.494 53.5966 144.323 53.6177 143.801C54.0333 143.786 54.0032 144.22 54.5575 144.063L54.557 143.795C54.5303 143.643 54.4215 143.722 54.4219 143.796C54.2857 143.665 54.1486 143.534 54.0185 143.397L54.0171 143.398C53.8372 143.35 53.7211 143.176 53.7456 142.992C54.1582 143.09 54 142.623 54.414 142.72C54.4968 142.996 54.6244 143.227 55.0862 143.118C55.2699 142.944 55.4794 142.482 55.0814 142.449C55.1719 142.384 55.3335 142.161 55.4865 142.177C55.7243 142.202 55.6674 142.355 56.0228 142.441C56.0805 142.455 56.1918 142.575 56.1592 142.574C56.2663 142.576 56.3755 142.378 56.5607 142.438C56.6446 142.465 56.6768 142.858 57.0983 142.701C57.1611 142.416 56.9053 142.45 56.6934 142.432C56.5336 142.167 56.9366 142.228 56.9592 142.158C57.0338 141.94 56.7445 141.856 56.822 141.623C57.1014 141.485 57.0072 141.839 57.0958 141.888C57.3973 142.069 57.5811 141.9 57.9 141.883C57.8354 142.158 57.9437 142.669 58.3078 142.684C58.492 142.693 58.3423 142.88 58.4435 142.951C58.5447 143.023 58.5957 142.823 58.5768 142.814C58.9638 142.973 59.1145 143.433 59.5179 143.478C59.584 143.467 59.6333 143.41 59.6325 143.343C59.6318 143.276 59.5823 143.22 59.5166 143.21C59.5742 143.03 59.6353 143.202 59.7851 143.208C59.746 143.206 59.852 142.991 59.9176 143.072C60.1237 143.325 60.4353 143.051 60.7241 143.335C61.0315 143.638 60.7719 143.045 61.3926 143.197L61.3919 143.198C61.5745 143.224 61.7547 143.268 61.93 143.329C62.1831 143.477 62.1024 143.894 62.6013 143.593C62.1862 144.029 63.2814 143.7 63.0091 144.394C63.3013 144.418 63.4337 144.281 63.4073 143.983C63.8162 143.884 63.8027 144.212 64.2116 144.113C64.0523 144.291 64.1617 144.323 64.2145 144.515L64.7502 144.512C64.7328 144.844 64.9642 144.928 65.023 145.18C65.2497 145.179 65.4725 145.177 65.692 145.175C65.7637 145.362 65.9136 145.508 66.1025 145.574C66.1293 145.996 66.2021 146.373 66.6438 146.375C66.6906 146.147 66.5369 146.122 66.37 146.109C66.4942 145.809 66.6736 145.534 66.8999 145.301C66.6654 145.039 66.997 145.023 67.1644 144.765C67.1961 144.533 67.3925 144.458 67.6977 144.493C67.81 144.874 67.9188 145.258 68.5063 145.158C68.8522 145.55 68.4902 145.955 68.9139 146.093C69.3312 145.719 68.9148 145.313 69.3098 145.019L69.3104 145.018C69.4886 145.297 69.5852 145.621 69.5891 145.953C69.7439 146.014 69.6589 145.707 69.7221 145.684C69.9178 145.61 69.9735 145.822 70.124 145.815C70.2745 145.807 70.2996 145.578 70.3897 145.541C70.4566 145.517 70.7889 145.836 70.7918 145.538C70.9476 145.78 71.0984 145.631 71.4631 145.802L71.4624 145.803C71.5124 145.889 71.5574 145.978 71.598 146.069C71.6924 146.084 71.8256 145.862 72.0002 145.933C71.6656 146.439 72.7151 146.502 73.2101 146.596C73.2287 146.835 73.0483 146.88 73.0778 147.132C73.3633 147.195 73.3308 146.939 73.3468 146.729C73.5978 146.704 73.8671 146.711 73.8844 146.992C73.8961 147.189 74.2049 147.092 74.4221 147.257L74.4223 147.257C74.3303 147.471 74.3319 147.714 74.4271 147.926C74.7031 147.98 74.9884 147.929 75.2295 147.785C75.2072 147.537 74.7757 147.705 74.6917 147.521C74.6939 147.39 74.8543 147.415 74.9581 147.385L74.9588 147.385C74.847 147.231 74.7982 147.039 74.821 146.85C75.1614 146.955 75.166 147.398 75.3624 147.651C75.5975 147.401 75.7776 147.682 75.9008 147.914C76.0365 147.827 76.037 147.605 76.3001 147.644C75.8301 148.253 76.714 148.422 77.1107 148.577C77.307 149.304 76.6944 149.23 76.7156 149.781C77.1365 149.84 77.0916 149.442 77.2485 149.242C77.3573 149.173 77.6956 149.328 77.7841 149.238C77.791 149.237 77.7786 149.104 77.7835 149.105C77.8964 149.104 78.3693 149.431 78.317 148.833C79.1488 148.935 79.4938 149.533 79.9325 150.029C80.3887 149.782 80.5764 150.043 81.1387 150.02C81.1188 150.356 81.3473 150.437 81.5442 150.553L81.5449 150.552C81.941 150.462 82.3527 150.46 82.7498 150.546C82.9113 150.394 82.9916 150.163 83.4184 150.273C83.3983 150.429 83.4501 150.511 83.5548 150.54C83.5693 150.905 83.333 150.812 83.5576 151.076C83.5137 151.33 83.8675 151.233 83.9624 151.345C84.0022 151.391 83.9199 151.579 83.9644 151.612C84.009 151.645 84.1961 151.571 84.2329 151.61C84.3774 151.787 84.554 151.649 85.0372 151.739C85.0805 151.747 85.1508 152.002 85.1729 152.006C85.5605 152.074 85.9443 151.949 86.3792 151.998C86.3489 152.253 86.6704 152.152 86.7841 152.267C86.8977 152.382 86.7978 152.704 87.0553 152.666C87.3889 152.571 86.8043 152.31 86.9161 151.998C87.2766 151.903 87.1781 152.273 87.321 152.397C87.602 152.452 87.6754 152.303 87.8561 152.26L87.8539 152.261C87.8066 152.083 87.6337 151.968 87.4506 151.992C87.3937 151.67 87.6925 151.7 87.5799 151.322C87.5376 151.14 87.2444 151.213 87.044 151.189L87.0405 150.653C87.2163 150.699 87.2518 150.887 87.4439 150.922L87.4432 150.923C87.4112 150.553 87.3182 150.192 87.169 149.852C87.1879 149.695 86.9744 149.785 86.9005 149.72C86.8268 149.657 86.8957 149.348 86.6267 149.455C86.5526 148.824 86.4943 148.614 86.8874 148.247C86.6314 148.059 86.4044 147.835 86.2126 147.582L86.2074 146.911C86.1358 146.725 85.9859 146.579 85.7972 146.513C85.9519 146.157 85.5356 145.725 85.7921 145.708C85.8293 145.547 85.5738 145.645 85.5231 145.578C85.3746 145.377 85.4627 144.804 84.9822 144.91C85.366 144.413 84.5695 144.188 84.0381 143.978C84.0737 143.673 84.0023 143.475 83.7669 143.445L83.7677 143.445C83.8748 143.321 84.0133 143.227 84.1675 143.173C83.8607 142.856 84.1036 142.009 83.7616 142.639C83.6851 142.519 83.2055 142.15 83.4905 142.106L83.4907 142.107C83.3819 141.984 83.243 141.891 83.0873 141.838C83.2902 141.625 82.8911 141.093 83.3482 140.9C83.2894 140.701 83.1772 140.953 82.9475 140.902C82.632 140.947 82.8714 141.538 82.4146 141.441L82.4145 141.44C82.5329 141.332 82.5709 141.161 82.5106 141.012C82.4495 140.863 82.3029 140.767 82.1424 140.772C82.1881 140.596 82.3772 140.56 82.4111 140.367L82.4112 140.368C82.3897 140.147 82.2729 139.947 82.0916 139.82C81.9101 139.692 81.6821 139.651 81.4679 139.705C81.2228 139.603 81.5476 139.561 81.735 139.569C81.7591 139.276 81.6241 139.142 81.3315 139.169C81.3994 138.971 81.5273 138.831 81.5957 138.631C81.5129 138.646 81.3448 138.841 81.1943 138.768C81.1086 138.726 81.3075 138.58 81.3268 138.631C81.2908 138.535 80.7052 138.21 80.7863 137.966C80.9654 137.964 81.1441 137.963 81.3219 137.962C81.378 137.639 80.7125 138.041 80.917 137.563C80.3592 137.679 80.2833 137.306 79.8431 137.299C79.9154 137.104 79.6824 136.608 79.9732 136.629C79.8862 136.517 79.3445 136.212 79.3017 136.499C79.1501 136.473 79.2267 136.365 79.3011 136.365C79.2738 136.21 79.3292 136.125 79.4339 136.096L79.4338 136.095C79.3851 135.918 79.2122 135.803 79.0297 135.826C79.2773 135.589 78.993 135.412 78.7585 135.293C78.3412 135.497 79.1557 135.868 78.7634 136.097C78.5653 136.027 78.4251 135.9 78.2257 135.833C78.5507 135.478 77.8734 134.961 78.6228 135.026C78.4459 134.44 77.7706 134.36 77.2765 134.096C77.6141 133.768 76.9933 133.813 77.1352 133.295C77.1128 133.137 76.8885 133.183 76.7322 133.163L76.7321 133.162C76.78 132.985 76.9503 132.869 77.132 132.891C77.1047 132.736 76.8855 132.78 76.7301 132.76C76.8111 132.641 76.891 132.52 76.7279 132.492C76.8992 132.216 77.4788 132.346 77.5286 131.951C77.4939 131.606 77.2996 132.137 76.9929 131.954C76.8811 131.8 76.8315 131.608 76.8558 131.419C76.647 131.45 76.2333 131.938 76.0527 131.561C75.7173 131.717 75.6071 132.092 75.1178 132.103C75.2297 131.63 74.9047 131.639 74.8492 131.97C74.522 131.837 75.1082 131.375 74.4433 131.435C74.4466 131.306 74.6075 131.331 74.71 131.301C74.9841 131.214 74.7446 130.623 75.2444 130.762C75.3038 130.341 74.9052 130.386 74.7036 130.229C74.8101 129.896 74.6286 129.539 74.2966 129.428C73.845 129.405 74.196 129.849 74.1642 129.965C74.0793 130.295 73.8327 130.399 73.7679 130.772C73.4512 130.577 73.5164 130.489 73.0964 130.642C73.1062 130.535 73.2497 130.501 73.2293 130.372C73.198 130.195 73.0558 130.335 72.9608 130.24C72.8479 130.129 72.9466 129.805 72.6884 129.835C72.6637 129.726 72.7404 129.713 72.821 129.698C72.7316 129.519 72.5336 129.45 72.2832 129.434C72.3896 128.97 72.0295 128.87 72.2782 128.63C72.1895 128.494 71.9695 128.494 72.0068 128.23L72.0084 128.23C71.7765 128.279 71.535 128.232 71.3377 128.1C71.3956 127.787 71.4997 127.731 71.1993 127.431C71.1256 127.359 71.2188 127.304 71.0627 127.298C70.8807 127.289 70.8954 126.933 70.7899 126.63C70.6601 126.634 70.6876 126.795 70.6577 126.899C70.4055 126.908 70.4993 126.642 70.3854 126.494L70.386 126.493C70.1456 126.21 69.8119 126.022 69.4455 125.962C69.8853 125.519 69.0833 125.644 69.1712 125.161C69.3063 125.16 69.44 125.16 69.5742 125.158C69.7129 124.658 69.0698 124.949 69.1668 124.49C69.7405 124.527 69.2979 123.776 69.2948 123.551C69.2463 123.398 69.0557 123.214 69.0258 123.421C68.8719 123.302 69.1059 123.045 68.4878 123.155C68.292 122.821 68.1598 122.632 68.3479 122.218C68.3122 121.94 67.7591 122.185 67.6766 121.954C67.6332 121.646 68.0626 121.803 68.0748 121.544C68.1384 121.12 67.4096 121.499 67.5357 121.012C68.1975 121.132 68.4631 120.862 68.3341 120.202C68.0355 120.263 67.9848 120.863 67.6685 120.877C67.37 120.889 67.4784 120.669 67.2651 120.608C67.0061 120.664 67.2601 121.221 66.7309 121.014L66.7318 121.015C66.9074 120.71 67.1322 120.437 67.3958 120.205C67.3696 120.097 67.2594 120.073 67.2601 119.938C66.8345 120.072 66.5243 120.439 66.4631 120.882C66.5526 121.061 66.7504 121.129 67.0008 121.145C67.0588 121.425 66.9116 121.501 66.8687 121.683C66.9598 122.083 67.154 121.552 67.4043 121.68C67.2896 121.877 67.3006 122.2 66.8715 122.085C66.7358 122.173 66.7346 122.394 66.4715 122.355C66.6203 122.19 66.5858 122.08 66.3352 122.089C66.4512 121.98 66.4133 121.72 66.6039 121.684C66.4075 121.212 65.886 121.471 65.6623 121.283C65.6372 120.947 65.8649 120.862 66.0609 120.745C65.9278 120.564 65.7008 120.478 65.5223 120.345C65.8133 120.067 65.4548 119.962 65.5165 119.541C65.9326 119.855 66.304 119.235 66.5849 118.998L66.5843 118.998C66.4748 118.875 66.3359 118.783 66.1802 118.73C66.0186 118.692 66.117 118.946 66.048 118.998C65.8847 119.122 65.4797 118.901 65.513 119.27C65.4311 119.07 65.2227 119.265 65.246 119.272C64.9051 119.164 65.0017 118.891 64.4396 119.009C64.5285 119.145 64.7485 119.146 64.7104 119.414C64.0876 119.341 63.9038 119.603 63.5042 119.423C63.4068 119.059 64.1373 119.515 64.0391 119.151C64.0606 118.77 63.1616 119.319 63.3673 118.754C63.1743 118.947 62.942 118.858 62.9624 118.485L62.9631 118.485C63.1953 118.532 63.4371 118.482 63.6315 118.346C63.6532 118.057 63.1563 118.288 62.9609 118.217C62.8698 117.92 63.2352 118.023 63.2296 117.812C63.2232 117.654 62.8679 117.649 62.8248 117.543C62.7407 117.331 63.0364 117.241 62.9572 117.007C62.8697 116.735 62.33 116.922 62.2852 116.609C62.2198 116.324 62.4742 116.349 62.6853 116.34C62.7446 115.918 62.3219 115.988 62.2779 115.671C62.1329 115.705 62.189 115.938 62.0122 115.945C61.7921 115.984 61.7807 115.82 61.6093 115.813C61.7015 115.456 62.2367 115.545 62.4101 115.272C62.3408 115.086 62.1932 114.939 62.0065 114.872C61.4094 114.773 61.8348 115.679 61.0718 115.416C61.1725 115.717 61.584 115.705 61.6123 116.081C61.8407 116.031 61.8653 116.184 61.8862 116.347C61.7104 116.301 61.6747 116.112 61.4828 116.078C61.2239 116.789 62.2826 116.164 62.0242 116.878C61.796 116.93 61.7702 116.775 61.7505 116.614C61.6384 116.78 61.0498 117.143 61.3533 117.285C61.3233 117.631 61.1212 117.099 60.8176 117.288C60.7665 117.061 60.9201 117.035 61.0833 117.014C61.1097 116.806 60.7721 116.972 60.6788 116.882C60.5683 116.776 60.7065 116.398 60.5425 116.347C60.4063 116.436 60.4056 116.656 60.1373 116.62L60.1345 116.218C59.8552 116.275 59.7786 116.128 59.5978 116.085C59.4624 116.174 59.4618 116.395 59.1926 116.357L59.1912 116.359C59.3021 116.202 59.3488 116.01 59.3233 115.82C59.1114 115.834 58.8112 115.76 58.7883 115.957C58.4483 115.707 58.9089 115.488 58.647 115.156C58.6247 114.908 58.1932 115.076 58.109 114.89C57.714 115.01 58.4209 115.089 58.2461 115.426C57.8393 115.433 57.9082 114.958 57.8383 114.625C58.2639 114.468 58.1651 114.832 58.3768 114.889C58.7864 114.753 58.2198 114.532 58.2383 114.354C57.9031 114.332 57.8216 114.561 57.7054 114.759L57.7063 114.759C57.5096 114.626 57.2673 114.58 57.0351 114.631C56.9306 114.128 57.3834 114.175 57.5671 113.957C57.4933 113.682 56.9327 113.929 57.2948 113.551C56.9483 113.515 56.7186 113.603 56.762 113.957C56.631 113.954 56.6574 113.794 56.6263 113.69C56.4714 113.717 56.388 113.661 56.3569 113.557C56.0153 113.844 55.5967 113.44 55.4199 113.697L55.4197 113.696C55.2396 113.581 55.1357 113.377 55.1493 113.163C54.6476 113.466 54.2376 112.698 53.6723 112.636C53.5534 112.204 53.8805 112.22 53.936 111.965C53.8427 112.135 53.5391 112.136 53.401 112.236C53.3052 112.29 53.2535 112.396 53.2686 112.504C52.8429 112.467 52.5031 112.132 52.4589 111.706C52.1796 111.764 52.1031 111.617 51.9222 111.574C52.0118 111.459 52.058 111.317 52.0537 111.171C51.7168 111.189 51.6451 111.424 51.3831 111.176C51.3262 110.853 51.6266 110.884 51.5132 110.506C51.4795 110.135 50.7573 110.462 50.8396 109.973C50.46 109.866 50.4937 110.165 50.1705 110.113C49.8977 110.198 50.1363 110.789 49.6375 110.651C49.3855 110.398 49.6208 110.314 49.6326 109.982C49.3896 109.891 49.1789 110.154 48.9634 110.121C48.8347 110.099 48.904 109.752 48.827 109.719C48.7729 109.695 48.4907 109.92 48.292 109.856C48.1969 109.824 48.0901 109.537 48.0212 109.451C47.6973 109.395 47.7318 109.698 47.352 109.589C47.2402 109.435 47.1906 109.244 47.2149 109.054C46.8492 109.044 46.9462 109.28 46.6777 109.057C46.9725 108.859 46.5617 108.758 46.5423 108.657C46.5116 108.483 46.8194 108.3 46.5385 108.12C46.1632 108.324 45.7566 108.463 45.3352 108.531C45.4899 108.179 44.9176 107.957 45.4675 107.994C45.4248 107.72 45.1028 107.734 45.0617 107.46C44.8236 107.536 44.5074 107.532 44.3933 107.733C44.0466 107.409 43.8231 106.962 43.4477 106.667C43.1625 106.548 43.2702 106.863 43.1827 106.941C43.0479 107.051 42.7648 106.957 42.7773 107.212C42.2839 107.114 42.1046 106.536 41.8396 107.218C41.4979 106.967 41.9592 106.744 41.698 106.415C41.6108 106.28 41.3891 106.278 41.4281 106.015C41.012 105.853 40.4132 106.534 40.3554 105.888C39.921 105.726 40.2547 106.322 39.8219 106.159C39.9125 105.803 39.5434 105.903 39.417 105.76C39.5098 105.676 39.5752 105.568 39.6052 105.446C39.4196 105.102 38.7845 105.421 38.5341 105.454C38.6497 105.742 39.1227 105.666 39.3411 105.85C39.4571 106.409 39.0844 106.485 39.0774 106.925C38.8104 106.927 38.5418 106.928 38.2731 106.93C38.3562 106.441 37.9925 106.406 37.5995 106.398C37.7061 105.885 37.3116 105.881 37.0591 105.732C36.8313 105.683 36.8062 105.837 36.7933 106.006C36.4862 106.193 36.2877 105.663 36.2576 106.009C36.1061 105.984 36.1827 105.876 36.257 105.875C35.9029 105.495 35.7934 105.569 35.3155 105.474C35.2767 105.254 35.4415 105.242 35.4477 105.071L35.4468 105.07C35.2319 104.879 35.049 104.653 34.906 104.403C34.1731 104.517 34.0547 104.007 33.6962 103.741C33.4486 103.763 33.6165 104.195 33.432 104.279C33.0959 104.302 32.7815 104.308 32.7599 104.015C32.5831 104.152 32.2624 104.145 32.2272 104.421C32.0566 104.391 32.0491 104.021 32.2243 104.019C32.176 103.844 31.9866 103.81 31.9544 103.619C31.5819 104.076 31.3021 103.889 30.7508 104.028C30.7467 103.762 30.3812 103.861 30.4796 103.494C30.1542 103.439 30.1832 103.742 29.8104 103.633C29.861 103.359 29.6466 103.346 29.539 103.233C29.5126 103.205 29.2719 102.974 29.2652 102.968C29.237 102.897 29.6681 102.499 29.1286 102.565C29.1412 102.233 29.3765 102.15 29.1237 101.896C28.8079 101.895 28.7308 102.13 28.3206 102.038C28.1884 102.441 28.621 102.274 28.8584 102.302C28.6689 102.712 28.911 102.722 28.7312 103.24C28.1565 103.274 28.1819 102.799 27.6577 103.113C27.6074 102.886 27.7602 102.86 27.9234 102.839C27.5899 102.343 27.0181 102.926 26.5815 102.581C26.5987 102.248 27.0351 102.538 27.1187 102.577C27.4901 102.441 27.2864 102.035 27.2466 101.773C27.0566 102.118 26.3292 101.935 26.3124 102.45C26.104 102.555 26.0954 102.062 26.0425 102.05C25.9526 102.024 25.544 102.591 25.3718 101.92C25.326 101.745 25.4332 101.527 25.2341 101.52C25.0778 101.513 25.1205 101.265 25.0977 101.118C25.0749 100.971 24.851 101.007 24.6955 100.986L24.6963 100.986C24.6432 100.707 24.5505 100.437 24.4228 100.184C24.0022 100.122 24.0715 100.546 23.7564 100.589C23.8935 100.905 24.2197 101.019 24.6979 100.99C24.7821 101.517 24.4019 101.586 24.0322 101.665C24.0154 101.327 23.7828 101.197 23.625 100.997C23.4685 101.024 23.5142 101.243 23.4941 101.399C23.1816 101.362 22.8685 101.067 22.9592 101.671C22.8137 101.577 22.6401 101.57 22.5559 101.402C22.5975 101.486 22.6973 101.312 22.6869 101.266C22.704 101.363 22.4941 101.097 22.5503 101.133C22.4531 101.075 22.2846 101.406 22.2846 101.406C22.0994 101.374 22.2584 101.217 22.1483 101.14C22.0895 101.098 21.9372 101.185 21.8813 101.142C21.8247 101.099 21.785 100.892 21.7456 100.875C21.6795 100.846 21.5344 100.919 21.4771 100.877C21.2637 100.721 21.16 100.366 20.8036 100.345C21.0063 100.207 20.5599 99.4074 20.3973 99.5437C20.3973 99.5437 20.3425 99.7803 20.264 99.6803C20.119 99.4994 20.1243 99.6867 19.9968 99.816C19.6735 100.144 19.6111 100.019 19.1926 99.6865C18.9763 99.6305 18.7458 100.189 19.0605 100.225L19.0594 100.223C18.7063 100.467 18.2554 100.521 17.8548 100.366C17.6437 100.241 17.7811 100.02 17.3181 100.234C17.0933 99.9681 17.3291 100.063 17.3144 99.6966C16.8641 99.9777 16.4921 100.012 16.3745 99.4352C16.0483 99.5141 15.6865 99.5565 15.7083 99.9766C15.6 99.8826 15.3406 99.7702 15.3061 99.9787L15.3054 99.9788C15.1285 99.931 15.0129 99.7599 15.0354 99.578C14.8804 99.6053 14.7971 99.5496 14.7668 99.4451C14.4122 99.7488 14.0831 99.25 13.8289 99.5851C13.4178 99.6576 13.7444 99.2671 13.6928 99.1852C13.5775 99.0022 13.4729 99.167 13.2898 99.053C13.2479 99.0263 13.3277 98.8193 13.2876 98.7845C13.1762 98.691 12.9769 98.7586 12.8849 98.6538C12.7883 99.0663 13.2548 98.9081 13.1576 99.3215C12.8911 99.3258 12.9956 99.6901 12.6226 99.593C12.7315 99.2147 12.4328 99.2476 12.4857 98.9243C11.7516 98.9549 11.6294 98.5714 11.0101 98.8001C10.9948 99.0408 11.173 99.0822 11.1472 99.3351C10.6203 99.5094 10.7973 98.9705 10.608 98.803C10.5388 98.6166 10.3912 98.4703 10.2037 98.4029C10.0954 98.4299 10.0704 98.5395 9.93675 98.5393C9.88678 98.7 10.1752 98.604 10.2052 98.6715C10.3217 98.8835 9.82967 99.1118 10.209 99.2087C10.1514 99.4023 10.0935 99.195 9.94048 99.2109C9.48062 99.209 9.58753 99.6449 9.27178 99.3478C9.17825 99.2615 8.98304 99.4327 9.00465 99.4835C8.85172 99.5492 8.92703 99.2362 8.8691 99.2171C8.2176 99.003 7.44157 99.2759 6.72452 99.0978C6.70309 99.0929 6.73926 98.854 6.72226 98.8293C5.89576 99.3586 4.17221 99.551 3.50694 98.8497C3.35128 98.8281 3.2688 98.8806 3.23981 98.9854C2.88434 98.674 3.21634 98.0673 2.96495 97.9155C3.01887 97.6158 3.67566 97.806 3.76909 97.9098C3.92282 97.8621 4.10658 97.6707 3.90115 97.6405C3.94032 97.3244 4.36453 97.3888 4.29835 96.9686C3.86477 96.8062 4.19921 97.4021 3.76486 97.2398C4.0133 97.4736 3.7846 97.7062 3.36662 97.6501C3.6136 97.3867 3.79276 97.4967 3.63086 97.1124C3.51607 96.8337 3.23936 97.0272 3.62799 96.7103C3.60174 96.6019 3.49152 96.5778 3.4923 96.4432C3.148 96.4596 3.28008 96.9441 3.09384 97.1169C2.81739 97.1325 2.99449 96.7509 2.82234 96.5819C2.79441 96.5536 2.56926 96.6178 2.55536 96.5839C2.5214 96.4989 2.73563 96.4311 2.68742 96.3146C2.66547 96.1588 2.44104 96.2047 2.28551 96.1838C2.3053 96.0269 2.25356 95.9443 2.1492 95.9176C2.47156 95.3775 2.92456 96.0538 3.22317 96.3119C3.27566 96.2418 3.87307 96.1087 3.48889 96.0381C3.54312 95.7042 4.00817 96.0272 3.89375 96.3068C4.13933 96.318 3.91736 95.9024 4.02612 95.7701C4.01763 95.7803 4.37712 95.9352 4.42833 95.768L4.42729 95.7666C4.39034 95.4046 4.43402 95.0378 4.5545 94.6939C4.84752 94.6691 5.13793 94.7642 5.35949 94.9577C5.80854 94.831 5.42833 94.7067 5.48945 94.2862C5.71358 94.5077 5.84397 94.8256 6.29706 94.8161L6.29932 95.0846C6.67745 95.1927 6.64443 94.8932 6.96776 94.9461C7.29951 95.3788 8.04927 95.105 8.5769 95.0697C8.80111 95.0539 8.806 95.2073 8.97958 95.2004C9.30945 95.1873 9.60731 95.0106 9.91665 95.0605C10.0069 95.6441 10.7424 95.5721 10.9944 95.992L10.9943 95.9912C11.1089 95.9014 11.2507 95.8534 11.3959 95.8555C11.4786 95.7595 11.567 95.6688 11.6609 95.5826C11.7312 95.4966 11.8753 95.3898 11.9266 95.3087C12.0367 95.1478 11.8382 94.8071 12.1956 94.9054C12.3038 95.0477 12.0603 95.1563 12.0627 95.174C12.1202 95.5633 12.5731 95.2114 12.6019 95.7069L13.0047 95.7039C13.1999 95.7027 13.0643 95.4316 13.1354 95.3012C13.2327 95.1219 13.5522 95.1487 13.5349 94.8978C13.689 94.8343 13.6095 95.1417 13.6712 95.1641C13.8618 95.2357 13.7519 94.7022 14.2047 95.0273C14.4039 94.9684 14.1516 94.8563 14.2018 94.6252C14.5938 94.9959 14.5478 94.183 15.1382 94.347L15.1387 94.3453C15.0918 94.5774 15.1416 94.8194 15.2771 95.0138C15.3955 94.9541 15.5156 94.895 15.5428 94.7399C15.7334 94.9412 16.0419 95.3139 15.8156 95.5421L15.8157 95.5428C16.0692 95.4151 16.3393 95.3232 16.6177 95.2693C16.7142 95.4042 16.7445 95.5981 16.8892 95.8044C16.9236 95.8513 17.1383 95.8941 17.1582 95.9349C17.178 95.9757 17.1245 96.1789 17.1605 96.2034C17.2499 96.2667 17.4642 96.1498 17.561 96.2008C17.6267 96.3537 17.313 96.2793 17.2948 96.3371C17.2003 96.6266 17.8272 96.6118 17.9653 96.332C17.96 95.9564 17.6012 96.6532 17.6915 96.0663C18.0051 96.0236 18.2435 95.8013 18.4958 96.0613C18.7616 96.0571 18.6578 95.6926 19.0293 95.79C19.0529 95.6728 18.9761 95.6634 18.8927 95.6567C18.922 95.4641 19.2921 95.6076 19.2927 95.3869L19.2936 95.3875C19.6677 95.5082 19.9964 95.7397 20.2356 96.0511C20.492 96.0343 20.0751 95.6032 20.2298 95.247C20.5104 95.3224 20.6146 95.5769 21.0362 95.5097C20.9805 95.2522 20.4232 95.5047 20.6304 94.9754C20.9958 95.2986 21.1046 95.0951 21.705 95.2391L21.7052 95.2399C21.7303 95.4229 21.6147 95.5967 21.4365 95.6448C21.3962 95.8069 21.8266 96.1035 21.8391 95.7754C22.2539 95.9072 21.5493 95.9974 21.5704 96.1803C21.549 96.4712 22.0457 96.2381 22.241 96.3096C22.1836 96.4329 22.1256 96.557 21.9761 96.5833C22.3017 97.1072 23.0638 97.1856 23.7238 97.3761C23.7383 97.1355 23.5609 97.094 23.5852 96.8414C23.5643 96.6782 23.2365 96.6893 23.1803 96.5727C23.0902 96.3845 23.1987 96.0356 23.0446 96.3056C22.7739 96.3533 23.0696 95.9176 23.1768 95.9026L23.1766 95.9011C23.3607 95.9271 23.5354 95.8101 23.582 95.6303C23.8538 95.7136 23.6741 96.2555 23.9874 96.2967C24.316 96.2807 24.0139 95.8547 23.851 95.8952C23.7837 95.7197 24.52 95.8318 24.3887 96.1595C24.5819 96.0123 24.7157 96.0133 24.7917 96.2917C24.9223 96.2877 24.894 96.1273 24.9245 96.0223C25.1859 95.9572 25.36 96.6352 25.0631 96.6915C25.0212 96.8531 25.2855 96.7551 25.3317 96.8245C25.4488 96.9952 25.2459 97.3782 25.4701 97.4929C25.7721 97.4159 25.3061 97.2846 25.6023 97.09L25.6016 97.0901C25.8567 97.2096 26.1522 97.2073 26.4057 97.0843C26.2638 97.141 26.3599 97.3716 26.2735 97.4873C26.2442 97.5273 26.0195 97.5898 26.0065 97.6237C25.9756 97.7043 26.0992 97.8043 26.143 97.7563C26.0359 97.8803 25.8034 97.8581 25.7437 98.026C25.8332 98.4262 26.0285 97.8967 26.2793 98.0225C26.3688 98.2029 26.5667 98.2708 26.817 98.2868C27.1217 98.0859 27.0186 97.9586 26.9471 97.6161C27.3827 97.5788 27.5922 97.7712 27.6192 98.1485L27.6193 98.1492C27.7425 98.0405 27.8357 97.9007 27.8889 97.745C28.0446 97.7666 28.1263 97.7142 28.1553 97.6095C28.4782 97.5525 28.4486 97.8512 28.8267 97.7394C28.8046 98.0312 28.9389 98.1649 29.2371 98.1377C29.392 98.1103 29.3478 97.8911 29.3677 97.735C29.6161 97.605 29.8176 98.1334 29.9034 97.7315C30.0918 97.7774 29.9165 97.9672 29.7712 98C29.9277 98.4256 30.7163 98.2153 30.714 98.7986L30.7138 98.7979C30.8208 98.6778 30.9916 98.6374 31.142 98.6963C31.2915 98.7545 31.3891 98.9003 31.3859 99.0614C31.7017 99.0626 31.7789 98.8276 32.189 98.9198C31.9769 99.4483 32.7639 98.9639 32.7275 99.3183C32.9769 98.943 33.8363 99.1742 33.7947 98.5077C34.0269 98.6226 34.2157 98.81 34.3331 99.0408C34.5238 99.0277 34.713 99.0149 34.7374 99.1712C34.8442 99.7771 34.3618 98.9701 34.4686 99.576C34.269 99.5068 34.1287 99.3797 33.9309 99.3118C33.9289 99.7179 34.4031 99.6438 34.7364 99.7084C34.7877 99.9366 34.634 99.9621 34.4707 99.9822C34.566 100.402 34.8301 100.155 35.1421 100.112C35.1051 100.328 35.2695 100.341 35.2783 100.512C35.6798 100.421 35.149 100.227 35.2748 99.9765C35.4737 99.9066 35.6112 99.7764 35.8098 99.705L35.8089 99.7044C35.7974 99.6392 35.7401 99.5923 35.6746 99.5928C35.6082 99.5934 35.5518 99.6413 35.5412 99.7065C35.1293 99.5774 35.693 99.3475 35.6733 99.1683C35.8176 99.2156 35.7684 99.4165 35.9471 99.434C36.2943 99.474 37.0034 99.0326 37.0218 99.6977C36.7418 99.7558 36.666 99.6086 36.4851 99.5654C36.0838 99.9762 36.6955 100.435 36.6243 100.503L36.6237 100.503C36.5793 100.507 36.5342 100.507 36.4901 100.504C36.9693 101.185 38.0402 100.764 38.5064 101.43C38.6274 101.654 38.875 101.062 39.1755 101.29C39.2761 101.368 38.907 101.427 38.9085 101.427L38.9077 101.427C38.9906 101.565 39.0806 101.699 39.1784 101.827C39.3735 101.866 39.4043 101.462 39.7126 101.421C39.8591 101.395 39.9876 101.51 40.2504 101.685C40.4818 101.841 40.754 101.918 40.6567 102.487C40.9796 102.228 41.7337 102.396 42.2637 102.343L42.2638 102.344C42.5646 102.856 43.1578 103.121 43.7406 103.004L43.7435 103.406C43.9012 103.206 44.248 103.194 44.4097 102.999C44.5898 103.047 44.7058 103.22 44.6821 103.405C45.0005 103.416 45.318 103.369 45.6191 103.264C45.631 103.269 45.6142 103.532 45.6213 103.533C45.8206 103.51 45.8174 103.218 46.1547 103.261C46.1455 103.451 46.1355 103.641 46.2924 103.66C46.3344 103.97 45.9055 103.812 45.8942 104.071C45.8574 104.288 46.0215 104.3 46.0306 104.472C46.2277 104.357 46.2206 104.038 46.2941 103.8C46.7536 104.226 47.1531 103.989 47.229 103.392C47.4775 103.411 47.3091 103.846 47.5003 103.926C47.9321 103.953 48.0653 103.685 48.5715 103.784C48.55 103.94 48.6025 104.023 48.7072 104.052C48.6118 104.295 48.4635 104.073 48.3052 104.054C48.1695 104.142 48.1684 104.364 47.9054 104.326L47.9046 104.326C48.1158 104.519 48.3409 104.697 48.578 104.857C48.6432 104.846 48.691 104.789 48.6911 104.723C48.6905 104.656 48.6425 104.599 48.5773 104.589C48.9902 104.006 49.3207 105.346 49.6512 104.852C50.0064 104.808 49.5301 105.605 50.0563 105.387C50.191 105.617 49.7921 105.732 49.7873 105.79C49.7837 106.115 50.3219 106.185 50.5952 106.456C51.3662 106.375 51.7031 105.863 52.6013 105.906C52.7133 106.061 52.7621 106.253 52.7385 106.442C53.5221 106.513 53.8609 106.03 54.4797 106.296C54.5132 106.311 54.4549 106.528 54.482 106.565C54.7223 106.582 54.7641 106.402 55.017 106.428C55.115 106.701 55.4413 106.955 55.1586 107.231C55.3851 107.228 55.605 107.228 55.8292 107.226C55.8255 107.505 55.9795 107.603 56.1007 107.761C56.2376 107.941 56.5067 108.018 56.5062 108.293C56.9278 108.226 56.8116 108.702 57.3111 108.556C57.2578 108.837 57.4052 108.911 57.4482 109.091C57.6847 109.222 57.7863 108.825 57.8482 108.822C57.9102 108.819 58.167 109.068 58.1219 109.087C58.2226 109.047 58.2088 108.642 58.3864 108.55C58.4169 108.535 58.6549 108.705 58.7891 108.681C58.7991 108.679 58.8179 108.553 58.9217 108.545C59.0642 108.537 59.1923 108.792 59.5923 108.675C59.5899 108.804 59.4297 108.779 59.326 108.81C59.4129 109.124 59.42 109.622 60.1343 109.609C59.9124 109.875 60.1485 109.779 60.1381 110.146C60.1337 110.345 60.4175 110.201 60.5408 110.277C60.5799 110.301 60.5136 110.508 60.5428 110.544C60.5983 110.621 60.8965 110.581 60.9457 110.676C61.0886 110.8 60.9901 111.169 61.3493 111.076C61.4061 111.398 61.1058 111.368 61.2192 111.747C61.3197 112.182 61.8485 111.709 61.4912 112.28C61.6053 112.479 61.9243 112.471 62.1625 112.544L62.1628 112.541C62.2853 112.433 62.3778 112.294 62.4318 112.138C62.5604 112.055 62.5393 112.263 62.5683 112.27C62.7179 112.307 62.7675 112.019 62.834 111.997C62.9681 111.986 63.1025 111.986 63.2363 111.995C63.4722 111.97 63.5214 111.858 63.7711 111.857C63.7411 111.862 63.8335 111.987 63.9077 111.99C64.1732 112.003 64.3297 111.97 64.311 112.259C64.5232 112.247 64.8232 112.32 64.8468 112.122C65.0287 112.163 64.9602 112.455 64.9838 112.657C65.4733 112.625 65.4966 112.47 65.9215 112.65C65.8974 113.034 65.9098 113.383 66.3273 113.319C66.2823 113.495 66.0933 113.531 66.0583 113.723C66.0765 114.018 66.6269 113.776 66.8626 113.852L66.8632 113.851C66.7488 114.265 66.5187 114.638 66.2012 114.927C66.2608 115.046 66.3192 115.166 66.475 115.193C66.6242 115.07 66.4641 114.893 66.7393 114.655C67.4934 114.635 67.3239 114.531 68.0743 114.512L68.0752 114.512C68.1657 114.626 68.2137 114.768 68.2118 114.914C68.6639 114.908 69.1053 114.909 69.0197 115.446L69.0195 115.445C69.1331 115.354 69.275 115.306 69.421 115.309C69.7607 115.589 69.0848 115.833 69.4257 116.111C69.6792 116.096 69.5153 115.668 69.8239 115.701C70.3113 115.702 70.4156 116.092 70.3661 116.636C70.7457 116.744 70.7122 116.446 71.0353 116.497L71.0354 116.498C71.1465 116.653 71.1959 116.843 71.1723 117.032C71.4269 116.996 71.6819 117.097 71.8437 117.297C71.8816 117.345 71.6718 117.474 71.7117 117.566C71.8062 117.788 72.5141 118.071 72.3881 118.5L72.388 118.499C72.6044 118.422 72.8407 118.42 73.0579 118.495C73.0978 118.515 73.0254 118.728 73.0602 118.764C73.095 118.8 73.2941 118.723 73.3287 118.761C73.3625 118.801 73.2862 118.996 73.3307 119.028C73.3753 119.062 73.9891 119.169 73.8684 119.293C73.7305 119.43 73.8082 119.382 74.0049 119.425C73.9611 119.783 73.6564 119.88 73.3387 119.967C73.1294 119.941 73.2954 120.272 73.2064 120.369C73.1652 120.413 72.9907 120.334 72.9394 120.371C72.6605 120.566 72.5307 121.018 72.4097 121.314C72.5689 121.338 72.4751 121.111 72.5417 121.044C72.508 121.077 72.907 120.887 72.8088 120.909C73.0104 120.863 73.6421 121.319 73.7459 120.769C74.0245 120.801 73.7864 121.357 74.0187 121.437C74.5721 121.538 74.2659 120.793 74.8195 120.896C75.0697 121.131 74.7636 121.288 74.6894 121.567L74.6877 121.566C74.9415 121.445 75.2361 121.442 75.4918 121.56L75.497 122.231C75.4634 122.637 76.3185 122.355 75.9018 122.764C76.1285 122.763 76.3481 122.761 76.5723 122.759C76.4335 123.258 76.8571 123.189 76.978 123.427C77.1101 123.785 76.699 123.589 76.578 123.696C76.4562 123.804 76.5021 124.065 76.3093 124.101C76.4095 124.594 76.7116 124.041 76.9806 124.365C77.1102 124.36 77.0829 124.201 77.1126 124.096C77.3529 124.077 77.3974 124.257 77.6493 124.228C77.6933 124.581 77.3704 124.575 77.1165 124.634C77.0616 125.004 77.6164 124.755 77.6547 125.031C77.8556 125.335 77.2813 125.304 77.2556 125.436C77.2298 125.568 77.5504 125.785 77.5242 125.569C77.88 125.523 77.4051 126.32 77.9297 126.101C77.9717 126.263 77.7145 126.168 77.6626 126.237C77.6351 126.278 77.911 126.533 77.6649 126.506C77.9102 126.802 78.7142 126.522 79.007 126.766C78.8697 127.072 78.9227 127.575 78.7429 127.838C78.5031 127.72 78.4 127.467 77.9368 127.577L77.9345 127.577C78.1367 127.903 78.4922 128.103 78.8763 128.105C78.9804 128.696 78.4461 128.657 78.347 129.047C78.4809 129.922 79.2475 129.834 80.0926 129.706C80.1121 129.175 79.8868 129.75 79.6893 129.437C79.5314 129.049 79.9757 129.133 80.0875 129.027C80.251 128.873 80.3857 128.69 80.4853 128.488C80.7759 128.463 80.5486 128.964 80.6237 129.157C80.7822 129.284 81.0446 129.027 81.0252 129.02C81.2447 129.081 81.207 129.41 81.4287 129.421C81.6505 129.431 81.5083 129.872 81.9688 129.819C81.8318 130.41 82.4247 130.256 82.3766 130.755C82.5542 130.753 82.7336 130.752 82.9122 130.751C83.0147 131.099 83.4118 131.553 83.0542 131.956C83.0722 132.251 83.6228 132.009 83.8585 132.086L83.8577 132.086C83.968 132.209 84.1069 132.301 84.2626 132.354C84.2362 132.586 84.4936 132.7 84.2655 132.756C84.5656 133.036 84.9838 133.197 84.9425 133.824L84.4068 133.827C84.3789 134.037 84.7175 133.871 84.809 133.959C84.9305 134.075 84.8057 134.389 84.9475 134.494C85.0893 134.598 85.8041 134.368 85.6197 134.893C86.0295 134.987 86.0126 134.658 86.4228 134.751L86.4286 135.555C86.4071 135.846 86.9037 135.612 87.0992 135.685C87.425 135.994 86.8929 136.044 86.8357 136.357C87.0901 136.297 87.0766 135.974 87.5041 136.084C87.5314 136.239 87.476 136.324 87.3713 136.353L87.3704 136.353C87.6096 136.664 87.9383 136.895 88.3123 137.016C88.2243 137.131 88.1774 137.274 88.1809 137.419C88.1693 137.623 88.472 137.469 88.5838 137.551C88.8085 137.713 88.7027 138.284 89.1243 138.217C89.1631 138.437 88.9998 138.448 88.9936 138.619C89.1437 138.892 89.4522 138.739 89.6652 138.885C89.7929 138.967 89.7411 139.275 89.9349 139.284C90.0825 139.291 90.0271 139.569 90.2087 139.55C90.1424 139.738 89.9972 139.888 89.8105 139.96C89.9467 140.225 90.0448 140.531 90.351 140.625C90.3105 141.118 90.7394 141.541 90.4923 141.83C90.2282 141.727 90.0076 141.365 90.2202 141.162C89.4987 141.134 90.2348 141.953 89.691 142.238C89.6523 142.548 90.0798 142.384 90.0959 142.637C90.1621 143.058 89.7381 142.994 89.699 143.311C89.7909 143.621 90.4017 143.407 90.2395 143.976C90.7237 143.878 90.9298 143.504 91.4416 143.433C91.5407 143.798 91.1766 143.707 91.1773 143.971C91.2113 144.163 91.5771 144.013 91.5807 144.24C91.8836 143.863 92.1 144.229 92.3827 143.832C92.7856 144.058 92.534 144.318 92.5226 144.769C92.5919 144.955 92.7395 145.102 92.9262 145.169C93.3744 144.877 92.7464 144.553 92.7861 144.231C93.3536 144.095 92.5902 143.416 93.1835 143.426C93.2301 143.264 92.9543 143.359 92.9141 143.293C92.8105 143.118 93.1328 142.914 92.9089 142.622C92.9089 142.223 93.2545 142.164 93.3063 141.817C93.174 141.456 93.006 141.132 92.8908 140.748C93.1634 140.428 92.6103 140.126 93.156 140.076C93.1757 139.484 93.081 138.893 92.8769 138.336C93.1286 138.234 92.9675 137.935 93.2781 138.198C93.3002 137.907 93.1659 137.773 92.8678 137.8C92.7733 137.497 93.1176 137.481 93.132 137.263C93.1687 136.717 92.6261 136.246 92.32 135.931L92.3201 135.932C92.4302 135.776 92.477 135.584 92.4523 135.395C92.7074 135.514 93.002 135.511 93.2549 135.389C93.0562 135.231 93.0431 134.883 92.8493 134.721C92.9709 134.478 93.1995 134.649 92.9816 134.185C92.8694 133.947 92.6378 133.894 92.7101 133.65L93.2459 133.647C93.3373 133.291 92.9673 133.39 92.8409 133.248C92.9856 132.781 92.646 131.595 93.2297 131.236C92.8729 130.608 93.1275 130.244 92.9519 129.63C93.4915 129.586 92.8584 129.036 93.4824 128.955C93.2825 128.799 93.2709 128.451 93.077 128.289C93.1658 127.976 93.52 127.926 93.6092 127.615C93.3947 127.126 93.4103 127.927 93.0732 127.752C93.0136 127.633 92.9545 127.513 92.7995 127.487C92.6558 127.371 93.2174 126.834 92.9267 126.549C92.704 126.326 93.066 126.477 93.0588 126.01C92.9291 126.015 92.9565 126.175 92.9268 126.28C92.425 126.193 93.0228 125.833 92.5209 125.745C92.8119 125.467 92.4537 125.364 92.5162 124.943L92.9167 124.94C92.8275 124.582 92.5299 124.432 92.3761 124.139C92.1964 123.726 92.7668 123.39 92.3698 123.202C92.4215 122.764 93.0056 122.851 93.304 122.66L93.3056 122.66C93.0394 122.451 92.6802 122.401 92.368 122.532C92.424 122.208 92.1208 122.243 92.2288 121.864C92.4673 121.822 92.5045 121.988 92.3652 121.996C92.4885 122.359 92.662 121.688 92.8986 121.724C92.688 121.534 92.7882 121.026 92.358 121.058C92.6087 120.82 92.1959 120.668 92.4881 120.387C92.3726 120.19 92.055 120.196 91.8168 120.124C91.8193 119.994 91.9794 120.019 92.0831 119.988C92.2454 119.554 91.6496 119.889 91.8119 119.455L92.0789 119.453L92.0803 119.452C92.0772 119.12 91.9811 118.795 91.8014 118.516C91.8474 118.328 92.0372 118.503 92.0708 118.649C92.3427 118.688 92.0413 118.262 91.9344 118.247C92.0119 117.978 92.2608 118.062 92.6021 117.975C92.6921 117.952 92.7239 117.84 92.7354 117.838C92.8274 117.822 92.881 117.978 93.0044 117.969C93.0327 117.964 93.1384 117.778 93.271 117.835C93.3084 117.849 93.256 118.184 93.4065 118.101C93.664 118.045 93.5102 117.581 93.9408 117.695L93.9382 117.295C93.5843 116.934 93.476 117.109 92.9998 117.167L92.9987 117.165C92.9735 116.981 93.0884 116.808 93.2674 116.76C93.1481 116.366 93.0687 117.073 92.7317 116.897C92.7031 116.381 92.9359 116.127 93.3968 116.09C93.3767 116.245 93.4285 116.328 93.5332 116.357C93.7424 116.39 93.5743 116.038 93.6636 115.953C93.8006 115.823 94.2562 116.357 94.0637 115.683C94.5708 115.804 94.6921 115.685 95.0021 115.811C94.9267 116.096 94.5462 116.544 95.0079 116.615C94.9672 116.797 94.6728 116.728 94.4727 116.751C94.5911 117.081 95.067 117.049 95.0135 117.553L95.5492 117.55C95.4364 118.067 95.8802 118.023 95.9568 118.35C96.2403 118.226 95.7009 117.813 95.8169 117.413C95.9367 117.486 96.4067 117.811 96.0863 117.545C96.168 117.219 96.7627 117.47 96.624 117.81C96.7753 117.914 96.8686 117.672 96.891 117.673C96.9974 117.68 97.0324 117.999 97.1649 117.939C97.2973 117.878 97.2918 117.726 97.2957 117.537C97.587 117.512 97.3603 118.011 97.4349 118.205L97.4359 118.207C97.5446 118.33 97.6837 118.423 97.8394 118.476C97.9363 118.963 97.8538 119.63 98.2499 119.813C98.567 120.113 97.8978 119.705 97.5809 119.818C97.8555 120.245 97.7368 120.29 97.8588 120.753C98.0052 121.099 98.3464 121.249 98.4008 121.687C98.0651 121.667 97.9845 121.897 97.8665 122.093C97.8935 122.202 98.003 122.226 98.0028 122.359C98.4254 122.423 98.4746 122.115 98.9399 122.219C98.7978 122.347 98.9015 122.715 98.5417 122.63C98.6849 122.756 98.5861 123.124 98.9452 123.03C99.1439 123.027 98.9589 122.865 98.9443 122.895L98.9451 122.895C99.0452 122.745 99.2038 122.644 99.3826 122.618C99.5607 122.592 99.7419 122.641 99.8815 122.756C99.8468 123.066 99.5263 123.064 99.3465 122.893C99.2492 123.305 99.7157 123.147 99.6193 123.561C99.4888 123.565 99.5156 123.726 99.4865 123.83C98.9565 123.659 99.1653 124.323 98.8173 123.968C99.1246 124.594 98.3143 124.7 98.6928 125.443L98.6936 125.442C98.9253 125.393 99.1676 125.439 99.3649 125.572C99.0794 125.944 99.4463 126.132 99.2372 126.512L99.2364 126.512C99.3012 126.821 99.3477 127.133 99.377 127.448C99.1373 127.412 99.1024 127.577 99.2445 127.584C99.1888 127.955 98.8229 127.593 98.9706 127.319C98.7956 127.456 98.4769 127.452 98.302 127.591C98.3774 127.66 98.4206 127.756 98.4212 127.858C98.4216 127.96 98.3803 128.057 98.3056 128.127C98.3179 128.192 98.3744 128.239 98.4408 128.239C98.5071 128.238 98.5635 128.19 98.5742 128.125C98.8473 128.252 98.8667 128.64 98.8521 129.06C98.7743 128.986 98.6782 128.988 98.5828 128.928L98.5838 128.928C98.4585 128.859 98.3218 128.816 98.1803 128.798C98.1141 128.781 98.026 128.663 98.0437 128.664C97.7323 128.643 97.5124 128.975 97.239 128.537L97.2388 128.536C97.0413 128.78 96.7502 128.927 96.4374 128.943C96.3872 129.443 96.5499 129.729 96.9788 129.744C96.9274 130.206 96.6185 129.92 96.8487 130.414C96.344 130.315 96.2092 130.582 95.7782 130.556C95.7209 130.657 96.2459 130.772 96.3149 130.688C96.4589 130.509 96.3565 130.691 96.4484 130.687C96.5723 130.681 97.1551 130.353 97.3862 130.682C97.4234 130.843 97.171 130.748 97.1199 130.817C97.0062 130.962 97.1608 131.274 96.9875 131.354C97.1103 131.589 97.4587 131.595 97.6594 131.751C97.618 132.212 97.3504 132.502 97.9374 132.686C97.9162 132.844 97.6936 132.802 97.5362 132.824C97.3007 132.866 96.8492 133.781 97.4082 133.762C97.5287 134.194 96.9672 133.948 97.0097 134.301C97.1806 134.544 97.6636 134.201 97.1438 134.568C97.2687 134.931 97.3912 134.208 97.8129 134.429C97.6985 134.539 97.736 134.796 97.5442 134.834L97.5463 134.833C97.3614 134.807 97.1867 134.924 97.1403 135.104C96.9831 135.083 97.0261 134.86 97.0045 134.702C96.7235 134.647 96.6494 134.796 96.4687 134.839C96.4735 134.97 96.6333 134.943 96.7373 134.972C96.8116 135.393 96.4486 135.497 96.7431 135.776C96.9906 135.754 96.8225 135.321 97.0073 135.239C97.1813 135.422 97.5892 135.363 97.9457 135.367L97.9466 135.367C97.8987 135.544 97.7284 135.659 97.5467 135.638C97.6626 136.03 97.8833 135.465 98.2158 135.633C98.0349 136.177 98.51 136.055 98.4903 136.436L97.8197 136.441C97.8922 136.144 97.5594 136.252 97.5499 136.041C97.2384 136.096 97.5774 136.395 97.5536 136.579C97.5519 136.569 97.3335 136.617 97.4203 136.715C97.558 136.98 97.656 137.285 97.9608 137.381L97.9599 137.38C97.8679 137.594 97.8695 137.837 97.9648 138.049C97.851 138.14 97.7093 138.188 97.5636 138.187C97.601 138.502 98.1571 138.265 98.0983 138.048C98.3075 138.02 98.1451 138.359 98.2349 138.451C98.3427 138.56 98.7201 138.413 98.7715 138.583L98.7722 138.582C98.6642 138.706 98.5264 138.799 98.3715 138.853C98.4668 139.273 98.7309 139.025 99.0428 138.982C98.7932 139.24 99.0304 139.324 99.0479 139.653C98.9504 139.867 98.3924 139.627 98.5152 140.058C98.154 140.082 98.3066 139.858 97.9796 140.062C97.6734 140.254 97.8702 140.267 97.715 140.598C97.6985 140.634 97.4641 140.565 97.4465 140.6C97.3777 140.744 97.5756 140.691 97.5831 140.734C97.6322 140.913 97 141.131 97.5858 141.134C97.5041 141.586 97.2052 141.824 97.3273 142.476L97.3265 142.476C97.5675 142.332 97.8536 142.281 98.1296 142.334C97.9831 142.706 97.9224 143.088 98.5354 143.003C98.636 143.367 98.272 143.277 98.2709 143.539C98.1986 143.906 98.6442 143.67 98.8094 143.804C98.8532 143.841 98.7756 144.025 98.8101 144.072C98.9813 144.312 99.4376 144.415 99.618 144.604C99.5357 144.922 98.7933 144.587 98.6831 144.882C98.5652 145.388 99.0934 144.867 99.2198 145.014C99.2439 145.043 98.5776 145.481 99.2228 145.417C99.0745 145.729 99.2528 145.775 98.9576 146.088C98.6143 145.859 98.49 146.244 98.2869 145.958C98.0888 146.019 98.3408 146.129 98.2898 146.36C98.0035 146.298 98.0358 146.552 98.0211 146.765C97.7946 146.768 97.5747 146.768 97.3505 146.77C97.1485 147.459 97.7352 146.745 97.8881 147.034C97.9815 147.209 97.5187 147.114 97.4882 147.17C97.3448 147.429 97.7242 147.414 97.8918 147.57C97.9796 147.651 97.8949 147.934 98.1655 147.835C98.1907 148.127 98.0583 148.264 97.7655 148.24C97.9272 148.641 97.6932 149.032 98.181 149.309C98.1247 149.564 97.8935 149.648 97.9173 149.98L97.9172 149.98C97.7963 149.922 97.7087 149.811 97.6816 149.68C97.6545 149.548 97.6905 149.411 97.7794 149.31C97.5966 149.287 97.4257 149.404 97.3788 149.582C97.6281 149.838 97.6241 149.686 97.516 150.118L97.5168 150.117C97.5648 150.296 97.7377 150.411 97.9209 150.386C97.8904 150.913 97.8039 151.306 97.1245 151.463C97.0716 151.724 97.7359 151.656 97.5246 151.328C98.1688 151.568 97.245 151.725 97.2615 152.133C97.7419 152.161 97.75 151.727 98.1971 151.724C98.2737 152.051 97.9532 151.955 98.067 152.395C98.1186 152.598 98.1829 152.567 98.0723 153.066L98.0731 153.066C97.9898 153.28 97.946 153.507 97.943 153.737C97.9039 154.008 98.3301 153.707 98.3442 153.599C98.7589 153.73 98.1975 153.965 98.0756 154.004C98.1954 154.239 98.5023 154.393 98.2142 154.674C98.2744 154.872 98.3847 154.618 98.6162 154.671C98.4868 154.807 98.5616 155.002 98.6197 155.206C98.6786 155.41 98.7438 155.668 98.891 155.74C98.8547 156.05 98.5353 156.051 98.3552 155.877C98.2715 156.411 98.8675 156.257 99.2975 156.278C99.2361 156.289 99.2081 156.529 99.1645 156.546C98.9711 156.62 98.959 156.417 98.896 156.414C98.5381 156.398 98.5613 156.624 98.2246 156.284C98.0826 156.211 98.137 156.546 98.0925 156.554C97.933 156.582 97.901 156.311 97.8187 156.288C97.5932 156.22 97.5258 156.493 97.2836 156.425C97.1489 156.253 97.4111 155.861 97.4157 155.887C97.3667 155.707 96.8677 155.623 97.5487 155.618C97.3905 155.214 96.9354 155.697 96.7446 155.624C96.7106 155.611 96.7574 155.27 96.6089 155.357C96.4273 155.399 96.5005 155.693 96.4765 155.893L96.208 155.896C96.0182 156.106 95.8731 156.364 95.5417 156.436C95.5836 156.674 95.7402 156.329 95.9438 156.433C96.0445 156.484 95.8098 156.607 95.8105 156.57C95.8106 156.705 96.1873 156.707 96.0817 156.969C95.8643 156.934 95.8511 157.097 95.6803 157.105C95.6385 157.34 96.0375 157.337 95.9496 157.238C96.2626 157.591 95.9105 157.963 96.4904 158.04C96.4139 158.467 96.7435 158.448 96.4953 158.709C96.222 158.626 96.4029 158.082 96.0881 158.041C95.9386 158.162 96.1221 158.364 95.6886 158.445C95.9331 158.863 95.6487 158.514 95.2888 158.716C95.4145 159.164 95.539 158.785 95.9603 158.846C95.5179 159.468 94.8061 159.11 94.3511 158.722C93.8205 158.929 93.674 159.386 93.0138 159.131C93.1014 159.269 93.3227 159.268 93.2846 159.537C93.0686 159.599 93.0487 159.383 92.8817 159.405C92.7445 159.385 92.7582 159.727 92.4883 159.636L92.4827 159.637ZM93.9543 117.014C94.5 117.485 94.2679 116.582 93.9543 117.014ZM97.4515 119.005C97.3697 118.998 97.2932 118.986 97.3151 118.873L97.0466 118.875C96.8423 119.201 97.5053 119.261 97.4507 119.001L97.4515 119.005ZM96.5268 121.157C96.4382 121.157 96.349 121.158 96.2599 121.159L96.2597 121.159C96.1303 120.824 95.8924 120.542 95.5848 120.359C95.8379 120.341 95.6759 119.915 95.983 119.948C95.853 119.7 96.3814 119.498 95.9795 119.413C95.7609 119.639 95.693 120.017 95.4495 120.219L95.4486 120.219C95.5922 120.621 95.8235 120.986 96.1257 121.287C96.0813 120.869 96.5146 121.626 96.526 121.153L96.5268 121.157ZM97.8984 125.971C97.8166 125.978 97.7399 125.992 97.7659 126.108C98.083 126.022 98.3876 125.924 98.4322 125.567C97.9995 125.446 98.2498 126.004 97.8976 125.967L97.8984 125.971ZM98.2995 125.03L98.3002 125.298L98.5687 125.296L98.5664 125.028L98.2995 125.03ZM97.7623 125.033C97.8023 124.874 98.47 124.691 98.0266 124.496C98.0205 124.636 97.8562 124.602 97.89 124.362C97.3438 124.284 97.4627 124.913 97.7578 125.03L97.7623 125.033ZM97.621 123.698C97.4668 123.752 97.329 123.845 97.2212 123.969C97.3948 123.981 97.9514 123.746 97.6155 123.689L97.621 123.698ZM98.0182 123.026C97.5785 122.99 97.6018 123.454 97.7495 123.431C97.8077 123.416 97.9446 123.057 98.0127 123.017L98.0182 123.026ZM97.3497 123.299L96.9492 123.301C96.9322 123.542 97.084 123.618 97.3525 123.57L97.3497 123.299ZM95.2099 123.849L95.2077 123.58L94.9404 123.581L94.9411 123.849L95.2099 123.849ZM94.5556 126.265C94.5792 126.08 94.4632 125.907 94.2846 125.858C94.2642 126.038 94.3761 126.207 94.5496 126.258L94.5556 126.265ZM95.2304 126.929C95.3966 126.401 94.861 126.584 94.6913 126.397L94.694 126.933C94.8687 126.924 95.0458 126.923 95.2242 126.921L95.2304 126.929ZM96.972 126.517C96.972 126.517 97.0871 126.708 97.2405 126.649C97.2843 126.633 97.3087 126.395 97.3735 126.381C97.0925 126.299 97.2239 126.017 97.1012 125.846C97.0528 125.778 96.7934 125.876 96.8326 125.713C97.3318 125.543 97.0803 125.028 97.2284 124.773C96.9154 124.729 96.6504 124.639 96.5562 124.374C96.9388 124.108 96.5039 123.54 96.5478 123.17L96.5469 123.169C96.3107 123.009 96.0856 122.831 95.875 122.637C96.0737 122.611 95.9949 122.313 96.0074 122.101C95.6534 122.062 95.665 122.388 95.6088 122.639L95.6087 122.638C95.4269 122.617 95.2567 122.732 95.2088 122.909C95.4719 122.975 95.6787 123.179 95.748 123.442C95.7505 123.546 95.5924 123.64 95.615 123.711C95.6276 123.75 95.8486 123.748 95.8844 123.843C95.9308 123.959 95.8489 124.127 95.8873 124.246C95.4259 124.279 95.3048 124.647 95.2222 125.053C96.0014 124.803 95.7117 125.636 95.7642 126.122C96.1205 126.277 96.5516 125.86 96.5683 126.116C96.3782 126.325 96.1251 126.477 96.0362 126.79C96.5194 126.942 96.6957 126.592 96.964 126.512L96.972 126.517ZM96.9796 127.722C96.5873 127.839 97.1521 128.059 96.9848 128.393C97.2377 128.361 97.2808 128.542 97.5214 128.525C97.2889 128.184 97.6718 128.055 97.383 127.856L97.3828 127.856C97.3714 127.921 97.315 127.969 97.2487 127.97C97.1822 127.969 97.1256 127.922 97.1141 127.856C97.4047 127.876 97.1718 127.381 97.244 127.185C97.3627 127.145 97.9227 126.912 97.5127 126.78C97.4906 126.937 97.3019 126.93 97.1113 126.917C97.3516 127.598 96.4028 127.106 96.4457 127.591C96.6145 127.912 96.8371 127.34 96.9711 127.714L96.9796 127.722ZM96.3174 128.932C96.3149 128.693 96.6734 128.152 96.3118 127.994C96.2004 128.389 95.9738 127.827 95.6412 127.999C95.4743 128.596 96.2862 128.544 95.9192 128.934L96.3174 128.932ZM96.0533 129.47C95.993 129.887 96.4172 129.973 96.4562 129.602L96.4561 129.602C96.3064 129.605 96.1609 129.556 96.0448 129.462L96.0533 129.47ZM95.9212 130.008L95.9205 129.74L95.652 129.742L95.6542 130.01L95.9212 130.008ZM95.6674 132.153L95.6645 131.751C95.3593 131.715 95.1604 131.785 95.1296 132.023C95.3046 132.056 95.3804 132.203 95.6604 132.145L95.6674 132.153ZM97.2765 132.277C97.1683 132.345 97.063 131.954 97.0028 132.012C96.8963 132.107 97.0429 132.728 97.268 132.269L97.2765 132.277ZM95.9504 133.758C96.1482 133.826 96.2886 133.954 96.4881 134.022C96.5252 133.748 96.8487 133.757 96.8864 133.482C96.4136 133.72 96.5557 133.396 96.0817 133.354L96.0809 133.354C96.0802 133.498 96.0298 133.639 95.9389 133.751L95.9504 133.758ZM95.1489 134.299L95.1467 134.031L94.8782 134.033L94.8804 134.302L95.1489 134.299ZM94.7737 138.455C94.5627 138.398 94.6566 138.034 94.2359 138.191C94.0865 138.523 94.6805 138.775 94.763 138.448L94.7737 138.455ZM98.2657 138.967C97.9524 138.98 96.8308 138.868 97.3293 139.246C97.4817 138.988 98.0274 139.387 98.2506 138.962L98.2657 138.967ZM96.4149 142.999C95.8533 143.106 96.2941 142.489 96.2779 142.464C96.2167 142.373 95.8406 142.402 95.7413 142.332C95.5699 142.208 95.4693 142.01 95.47 141.798C95.0477 141.825 94.6713 141.897 94.6692 142.339C95.082 142.437 94.9238 141.97 95.3372 142.068C95.3849 142.338 95.6085 142.422 95.7428 142.6C95.8561 142.978 95.5559 142.949 95.6128 143.272L95.6136 143.272C95.7526 143.352 95.919 143.367 96.0701 143.313C96.2212 143.259 96.3414 143.143 96.3998 142.994L96.4149 142.999ZM97.6228 143.26C97.5642 143.004 97.5709 142.683 97.2169 142.726L97.2177 142.725C97.222 142.871 97.176 143.014 97.0872 143.129C97.3241 143.091 97.367 143.272 97.6084 143.254L97.6228 143.26ZM24.2785 97.0966C24.2857 97.0162 24.2981 96.9389 24.4118 96.96L24.4095 96.6915C24.0788 96.4888 24.0193 97.1518 24.2785 97.0966ZM5.2414 95.4778C4.93476 95.4433 4.73758 95.5136 4.7065 95.75C5.01224 95.7839 5.21095 95.7133 5.2414 95.4778ZM4.8478 96.8206C4.87548 96.6725 4.82411 96.5202 4.7115 96.4199C4.65489 96.3365 4.49387 96.2486 4.43766 96.1541C4.08441 96.5146 4.63396 96.6439 4.8478 96.8206ZM14.8905 95.8185C14.8908 95.6405 15.1247 95.6934 15.1578 95.5444C14.8909 95.6144 14.8448 94.8055 14.6193 95.2803C14.9829 95.1853 14.5289 95.9203 14.8898 95.8186L14.8905 95.8185ZM12.8833 96.0965C12.7454 96.1129 12.6084 95.5202 12.4803 95.9643C12.6729 95.8948 12.8098 96.4875 12.8833 96.0965ZM14.0894 96.0879L14.0887 96.088C13.9069 96.0663 13.7359 96.1819 13.6889 96.3594C13.9003 96.3474 14.1539 96.3771 14.0891 96.0903L14.0894 96.0879ZM19.4484 96.5935C19.1064 96.5826 19.303 96.0204 18.7746 96.1951C18.7041 96.5531 19.3355 96.8728 19.4484 96.5935ZM11.019 98.658C11.3419 98.5069 10.8049 97.9642 10.7491 98.2579C10.9744 98.257 10.8302 98.628 11.0236 98.6572L11.019 98.658ZM15.4463 99.4331C15.5051 99.013 15.3258 98.835 14.9071 98.9009C14.8226 99.35 15.1394 99.3883 15.4509 99.4323L15.4463 99.4331ZM23.7453 98.0385C23.9178 97.8594 23.9189 97.5381 23.6083 97.5035C23.6365 97.7042 23.5681 97.9978 23.7489 98.0363L23.7453 98.0385ZM18.5309 99.8153C18.5754 100.171 17.7795 99.6939 17.9966 100.221C18.247 100.224 18.8575 99.9317 18.5355 99.8145L18.5309 99.8153ZM34.0805 100.786C34.0762 100.641 34.123 100.498 34.212 100.383C33.7843 100.658 33.7892 99.8559 33.6753 100.251C33.7845 100.448 33.9222 100.628 34.0844 100.785L34.0805 100.786ZM35.3024 103.858C35.4547 103.582 35.0881 103.222 35.0287 103.593C35.2185 103.593 35.1656 103.827 35.3105 103.859L35.3024 103.858ZM43.878 103.803L43.876 103.536L43.6075 103.538L43.6093 103.805L43.878 103.803ZM37.4564 105.453C37.4634 105.371 37.476 105.294 37.5897 105.316L37.5875 105.048C37.2654 104.845 37.2052 105.508 37.4645 105.454L37.4564 105.453ZM45.2191 104.465C45.3193 104.199 45.0227 104.285 44.9452 104.199C44.8677 104.114 44.9658 103.913 44.8088 103.932L44.8086 103.932C44.8122 104.077 44.7661 104.22 44.6782 104.336C44.8752 104.376 44.9509 104.523 45.231 104.465L45.2191 104.465ZM51.5361 107.372C51.5379 107.382 51.0823 107.292 51.1335 107.241C50.8242 107.564 51.5863 107.585 51.5472 107.372L51.5361 107.372ZM53.8216 108.429C53.9476 108.341 54.365 108.385 54.2203 108.026C53.7342 107.719 53.5256 107.849 53.0155 108.034C52.9185 108.654 53.5285 108.216 53.554 108.432C53.5536 108.609 53.3196 108.556 53.2883 108.706C53.6368 108.857 53.6657 108.545 53.8327 108.43L53.8216 108.429ZM50.0764 109.657C50.0755 109.522 50.1843 109.497 50.2085 109.387C49.999 109.401 49.7448 109.373 49.8087 109.659C49.9087 109.661 49.9987 109.66 50.0881 109.66L50.0764 109.657ZM54.2288 109.361C54.3336 109.39 54.3853 109.473 54.3645 109.628L54.6315 109.626C54.6281 109.481 54.6741 109.339 54.7629 109.223C54.5748 109.251 54.2806 109.183 54.2413 109.364L54.2288 109.361ZM54.2318 109.898L54.2309 109.898C54.0517 109.85 53.9348 109.676 53.9601 109.492L53.5581 109.495C53.3529 109.973 54.014 109.574 53.9631 109.895C53.8082 109.922 53.8195 110.108 53.8323 110.297C54.2056 110.396 54.1016 110.026 54.2434 109.901L54.2318 109.898ZM56.6462 110.153C56.6452 110.017 56.754 109.992 56.7783 109.884C56.5673 109.898 56.3145 109.868 56.3785 110.155L56.6462 110.153ZM59.324 109.868C59.4634 109.605 58.8235 109.905 58.9225 110.005C59.0214 110.103 59.3156 109.906 59.3351 109.868L59.324 109.868ZM58.5317 111.749C58.6263 111.339 58.3926 111.261 58.3903 110.947L58.3901 110.945C58.2816 110.931 58.1755 110.985 58.1229 111.081C58.0485 111.175 57.9704 110.943 57.9863 110.948C58.0329 110.961 58.1989 110.866 58.1196 110.811L58.1195 110.81C57.997 110.74 57.8488 110.729 57.7174 110.782C57.5868 110.835 57.4878 110.946 57.4502 111.083C57.7534 111.17 58.1246 111.481 57.8574 111.75C58.2061 111.736 58.2869 111.5 58.5428 111.749L58.5317 111.749ZM62.9718 112.663C63.4099 112.699 63.6152 112.5 63.6381 112.122C63.4587 112.123 63.2803 112.125 63.1025 112.126L63.1032 112.126C63.1287 112.315 63.0818 112.507 62.9718 112.663ZM62.9752 113.199C62.9791 112.911 62.6566 112.28 62.436 112.666C62.7501 112.702 62.7373 113.074 62.9752 113.194L62.9752 113.199ZM60.9701 114.686L60.9708 114.686C60.7883 114.665 60.6179 114.779 60.57 114.956C60.7804 114.938 61.0394 114.968 60.974 114.682L60.9701 114.686ZM63.7842 114.669C63.8011 114.334 63.8046 114.017 63.5112 113.999C63.4978 114.328 63.4952 114.644 63.7935 114.663L63.7842 114.669ZM68.7621 117.718L68.7627 117.717C68.5733 117.693 68.3818 117.741 68.2268 117.853C68.2082 118.232 68.6091 118.187 68.766 118.386L68.7621 117.718ZM69.4326 117.847C69.6038 117.853 69.6194 118.018 69.8356 117.979C70.0459 117.643 69.3821 117.583 69.4364 117.842L69.4326 117.847ZM70.9048 117.701C71.1805 117.932 71.1668 117.599 71.443 117.833L71.4381 117.164C71.0256 117.099 71.0669 117.499 70.9046 117.7L70.9048 117.701ZM69.5613 117.038C69.5637 117.173 69.4536 117.199 69.4292 117.308C69.5628 117.307 69.5889 117.415 69.6978 117.441C69.6954 117.306 69.8048 117.28 69.8299 117.171C69.6993 117.171 69.6748 117.063 69.5657 117.037L69.5613 117.038ZM67.0081 115.849L67.008 115.848C66.8256 115.827 66.6553 115.943 66.6082 116.12C66.8223 116.105 67.0766 116.134 67.0126 115.847L67.0081 115.849ZM67.158 118.26C67.5447 117.883 67.668 117.254 68.2231 117.052C68.1863 116.605 68.3658 116.574 68.4868 116.381C68.7308 115.998 68.5919 115.972 69.0201 116.109C68.9195 115.506 68.6002 115.903 68.0803 115.847C67.8584 115.683 67.8288 115.264 67.6746 115.179C67.5932 115.134 67.3369 115.247 67.2726 115.182C67.1818 115.094 67.3448 114.749 67.1361 114.781C66.9405 115.098 66.8538 115.032 67.0062 115.452C67.0901 115.637 67.5215 115.468 67.5438 115.716C67.0335 115.612 67.3783 116.352 67.2825 116.656C67.0162 116.792 66.7117 116.891 66.616 117.195C66.9287 117.238 67.194 117.329 67.2882 117.594C66.881 117.384 66.9431 118.284 67.1617 118.259L67.158 118.26ZM68.2308 118.387C67.4068 118.509 68.3161 118.059 67.9585 117.982C67.9023 118.193 67.5376 118.098 67.695 118.52C67.878 118.54 68.6718 118.538 68.2345 118.386L68.2308 118.387ZM71.5814 118.097C71.5956 118.308 71.5666 118.561 71.8528 118.497L71.8508 118.23C71.7172 118.23 71.6916 118.121 71.5828 118.096L71.5814 118.097ZM69.8417 118.377L69.8408 118.376C69.6581 118.354 69.4878 118.469 69.44 118.646C69.6512 118.629 69.9067 118.66 69.8431 118.376L69.8417 118.377ZM68.2389 119.191C68.5715 119.359 68.7915 118.795 68.908 119.186C68.9077 119.364 68.6736 119.311 68.6422 119.46C68.8737 119.701 69.1699 119.416 69.1765 119.054C69.0719 119.026 69.0202 118.943 69.041 118.788L69.0401 118.787C68.7144 118.735 68.392 118.897 68.2403 119.19L68.2389 119.191ZM67.0374 120.002C67.0059 119.765 67.168 119.33 66.7662 119.469L66.7653 119.468C66.7524 119.682 66.8573 119.887 67.039 120.002L67.0374 120.002ZM66.2359 120.144C65.9306 120.108 65.732 120.18 65.7008 120.415L65.6999 120.415C65.9147 120.426 66.1183 120.32 66.2325 120.138L66.2359 120.144ZM72.6667 120.103C72.8239 120.075 73.0475 120.123 73.0681 119.966C72.9863 119.959 72.9097 119.947 72.9315 119.833C73.0066 119.833 73.083 119.723 72.9309 119.7C72.9022 119.887 72.7141 119.923 72.6671 120.1L72.6667 120.103ZM68.7879 121.066L68.7862 121.065C69.0006 121.079 69.2052 120.975 69.3203 120.793C69.2233 120.701 69.078 120.679 68.9589 120.74C68.8391 120.801 68.7709 120.93 68.7881 121.063L68.7879 121.066ZM74.0187 121.971C73.6837 122.143 73.5959 121.443 73.4821 121.838C73.564 121.845 73.6404 121.857 73.6185 121.971C73.2825 121.994 73.5854 122.424 73.622 122.506C73.423 122.665 73.0746 122.676 72.9559 122.913L72.955 122.913C73.235 123.052 73.572 123.008 73.8066 122.8C74.0404 122.592 74.1247 122.262 74.0197 121.967L74.0187 121.971ZM73.3645 124.253L73.7616 124.253C73.7637 124.387 73.6545 124.413 73.6294 124.522C73.9339 124.482 74.1328 124.546 74.1672 124.786C73.9125 124.844 73.8324 125.072 73.4993 125.058C73.7114 126.041 74.2021 125.083 74.4371 125.053C74.222 125.079 74.9956 125.699 74.8391 125.183C74.543 125.168 74.7785 124.616 74.6977 124.382C74.212 124.462 73.6781 123.896 73.3647 124.25L73.3645 124.253ZM74.2964 123.443C74.1833 123.873 74.5051 123.859 74.702 123.975C74.7333 123.785 74.9206 123.749 74.9707 123.57L74.9698 123.57C74.7731 123.437 74.5307 123.389 74.2981 123.438L74.2964 123.443ZM71.8894 124.262C71.9206 124.071 72.1087 124.035 72.1581 123.858C71.6821 123.741 71.4514 124.187 71.8904 124.259L71.8894 124.262ZM70.8243 125.471C71.4001 125.3 71.0525 125.047 71.2253 124.528L71.2242 124.527C71.0593 124.542 70.8997 124.462 70.813 124.321C70.7263 124.179 70.7281 124.001 70.8181 123.861C70.3971 123.801 70.4421 124.2 70.2852 124.4C70.7646 124.401 70.7568 124.347 70.8229 124.664C70.7894 124.474 70.1821 125.107 70.6922 125.067C70.7201 124.915 70.8403 124.857 70.9579 124.793L70.9574 124.795C71.0089 125.028 70.9612 125.273 70.8261 125.472L70.8243 125.471ZM73.9089 125.852C73.5836 125.434 73.1963 125.915 72.835 125.588L72.8339 125.587C72.9905 125.533 73.1307 125.44 73.2401 125.316C72.7005 125.503 72.7641 125.079 72.5664 124.917C72.5843 125.333 72.148 125.303 72.305 125.857C72.5585 125.886 72.6002 125.705 72.8408 125.72C72.8589 126.016 73.4095 125.774 73.645 125.849L73.6449 125.849C73.6575 125.911 73.7123 125.957 73.7756 125.958C73.8399 125.959 73.8963 125.915 73.9107 125.853L73.9089 125.852ZM73.6497 127.598C73.9788 127.729 73.9365 127.642 74.4547 127.727C74.5586 127.205 73.5987 126.919 73.6534 127.597L73.6497 127.598ZM72.4484 128.141C72.7128 127.802 73.3102 127.323 72.5748 127.069C72.8288 127.442 72.2828 127.713 72.3107 127.607C72.2672 127.787 72.324 128.113 72.4521 128.14L72.4484 128.141ZM77.9365 127.437L78.205 127.435L78.203 127.168L77.9358 127.168L77.9365 127.437ZM73.5207 128.27C73.1409 128.162 73.1746 128.46 72.8515 128.409C72.72 129.242 73.6924 128.921 73.5242 128.263L73.5207 128.27ZM74.7244 128.665C74.7488 128.372 74.6139 128.24 74.321 128.265C74.238 128.624 74.6075 128.526 74.7326 128.662L74.7244 128.665ZM73.5259 128.941C73.087 128.923 73.4576 129.428 73.2607 129.612L73.9313 129.607C73.9108 129.092 73.8216 128.95 73.5302 128.943L73.5259 128.941ZM74.7325 129.199C74.6506 129.161 74.2141 128.87 74.1969 129.203C74.4377 129.317 74.6184 129.647 74.7361 129.197L74.7325 129.199ZM76.7466 129.857C76.8552 129.477 76.5551 129.511 76.608 129.187C76.151 129.247 76.4448 129.549 75.9396 129.326C75.9591 129.822 76.1357 129.662 76.4773 129.59C76.4972 129.752 76.5236 129.906 76.7502 129.854L76.7466 129.857ZM77.0187 130.525C77.0191 130.348 77.253 130.401 77.2844 130.251C77.104 130.21 77.0244 130.064 76.7478 130.119L76.7498 130.386C76.8845 130.392 76.9138 130.5 77.0215 130.523L77.0187 130.525ZM75.4132 130.808C75.4596 131.071 75.2334 131.076 75.1443 131.212C75.4284 131.321 75.7503 130.854 75.4161 130.802L75.4132 130.808ZM76.6232 131.337L76.6222 131.335C76.6179 131.19 76.6647 131.047 76.7544 130.932C76.3626 131.133 76.2551 130.783 76.0856 131.204C76.2482 131.233 76.169 131.354 76.0879 131.472C76.3442 131.495 76.3852 131.315 76.6259 131.33L76.6232 131.337ZM77.6938 131.062C77.7009 131.142 77.7145 131.22 77.83 131.193C78.034 130.788 77.1351 130.845 77.1587 131.064C77.3688 131.098 77.2546 131.356 77.1616 131.466C77.5944 131.574 77.4391 131.111 77.6966 131.055L77.6938 131.062ZM86.8516 138.238C87.1597 138.765 86.5827 138.853 86.3216 139.179C86.5948 139.217 86.587 139.541 86.8601 139.578C86.892 139.432 87.0783 139.255 87.1272 139.442C87.1736 139.705 86.9474 139.71 86.8585 139.847C87.2018 139.915 87.329 140.021 87.5277 139.709C87.2599 139.733 87.4936 139.322 87.3905 139.173C87.3421 139.105 87.0801 139.202 87.1213 139.041C87.1331 138.83 87.4614 138.933 87.39 138.636C87.3872 138.458 87.1544 138.515 87.1161 138.37C87.0935 138.259 87.0094 138.209 86.8544 138.231L86.8516 138.238ZM80.5361 135.465C80.6369 135.395 80.516 135.262 80.6683 135.197C80.6131 135.22 81.0637 135.457 80.9353 135.06C80.7913 134.804 79.9105 135.192 79.7317 134.667L79.7314 134.665C79.9103 134.616 80.0253 134.443 80 134.259C79.1733 134.348 79.9354 134.974 79.8728 135.467C80.0391 135.383 80.3839 135.558 80.5389 135.458L80.5361 135.465ZM80.8174 137.343C80.8275 137.001 81.3897 137.198 81.2146 136.671C81.6293 136.637 81.6292 136.192 81.7457 135.862C81.41 135.77 81.1937 135.732 80.9418 136.003C81.2932 136.099 80.9502 136.477 80.9456 136.541C80.9442 136.533 81.2152 136.782 80.9478 136.809C80.9162 136.702 80.835 136.653 80.6792 136.676C80.9281 136.437 80.5164 136.286 80.8084 136.005C80.1659 135.891 80.2866 137.41 80.8195 137.332L80.8174 137.343ZM82.8309 138.392C82.4982 138.564 82.2712 138.003 82.1603 138.397C82.4329 138.485 82.7409 138.855 82.8309 138.392ZM81.9003 139.605C82.5427 139.973 82.2218 139.163 81.9003 139.605ZM85.1134 139.181C85.1829 138.983 85.31 138.843 85.3792 138.643C85.2205 138.622 84.9986 138.669 84.975 138.513L84.9758 138.513C85.1261 138.217 85.4506 138.053 85.7778 138.105C85.9612 137.822 85.5947 137.753 85.5058 137.571C85.4176 137.358 85.3705 137.132 85.3671 136.901C85.3727 136.803 85.4996 136.765 85.4996 136.765C85.5248 136.572 85.171 136.256 85.4969 136.229C85.5298 136.375 85.7201 136.549 85.7661 136.361C85.5556 136.127 85.2353 136.105 85.0918 135.829C85.1077 135.861 85.2953 135.696 85.0912 135.696C85.063 135.8 84.9804 135.852 84.8241 135.831C85.0709 135.361 84.7212 135.396 84.5513 135.029C84.524 134.874 84.5729 134.649 84.4152 134.629C84.3861 134.733 84.4127 134.893 84.283 134.898C84.1533 134.903 84.1225 134.791 84.0136 134.765C83.9186 135.132 84.2878 135.033 84.2851 135.3C84.1319 135.458 84.1415 135.773 84.1573 136.105C84.3149 136.124 84.5371 136.079 84.56 136.235C84.3299 136.276 84.6851 136.649 84.2959 136.774C84.293 136.597 84.0601 136.653 84.022 136.508C84.021 136.372 84.1295 136.346 84.1548 136.239C83.9775 136.103 83.6595 136.112 83.4835 135.975C83.5572 136.582 84.0092 136.386 83.7549 136.644L83.754 136.643C83.5504 136.803 83.4501 137.059 83.491 137.314C83.3084 137.292 83.1382 137.408 83.0912 137.585C83.4269 137.753 83.5092 137.511 83.6278 137.717C83.5861 137.898 83.4388 137.978 83.4953 138.253C83.684 138.287 83.65 138.547 83.7652 138.653C83.9237 138.673 84.1459 138.628 84.1681 138.786C84.1465 139.165 84.6757 139.094 84.3066 139.454C84.8012 139.541 84.676 138.741 85.118 139.18L85.1134 139.181ZM83.3771 140.265C83.5421 140.309 83.5095 140.469 83.6508 140.53C83.6322 139.783 83.2865 139.98 82.8433 139.866C82.7678 140.152 82.3863 140.599 82.848 140.669C82.911 140.461 83.1675 140.207 83.387 140.263L83.3771 140.265ZM85.3883 140.386C84.7953 140.185 85.6024 139.568 85.2468 139.314C85.0378 139.717 84.6012 140.04 84.8526 140.524C85.0593 140.498 85.3539 140.567 85.3952 140.384L85.3883 140.386ZM88.0676 140.366C88.2803 140.173 88.4594 139.946 88.5993 139.694L88.0635 139.697C87.9927 139.78 87.7609 140.336 88.0748 140.367L88.0676 140.366ZM84.9921 141.458C85.0309 141.104 84.7047 141.116 84.4538 141.061C84.4725 141.423 84.7745 141.7 84.9992 141.459L84.9921 141.458ZM84.1914 142C84.1816 142.209 84.5816 142.091 84.3251 142C84.2041 141.731 83.7382 142.062 84.058 142.136C84.0723 142.051 84.0852 141.976 84.1994 142L84.1914 142ZM87.9453 142.378C87.8281 141.951 88.1544 141.962 88.209 141.707L88.2097 141.706C88.0323 141.66 87.9168 141.489 87.9399 141.306C88.4205 141.381 88.3449 140.908 88.3362 140.499C87.814 140.516 87.8502 141.085 87.8068 141.574L87.8069 141.575C87.6529 141.63 87.5151 141.723 87.4071 141.846C87.8369 141.776 87.4673 142.51 87.9556 142.378L87.9453 142.378ZM89.031 144.381C88.8257 144.787 89.7259 144.729 89.7015 144.511C89.3308 144.624 89.3609 144.324 89.0389 144.381L89.031 144.381ZM87.9574 144.254C87.9425 144.214 87.8072 144.411 87.8252 144.523C87.8332 144.568 88.0592 144.621 87.9608 144.789L87.9625 144.79C88.2555 144.81 88.545 144.711 88.7645 144.516C88.5353 144.463 88.7918 144.344 88.7619 144.116C88.4616 143.991 88.1878 143.811 87.9547 143.584C88.0109 143.373 88.3755 143.467 88.2182 143.046C87.7945 142.841 87.4212 143.214 87.4134 142.783C87.1317 142.904 86.6131 142.793 86.747 143.324C87.0685 143.403 87.7181 143.153 87.8198 143.451C87.8095 143.662 87.4795 143.558 87.5508 143.854C87.6959 144.058 87.9059 144.096 87.9654 144.254L87.9574 144.254ZM87.8249 144.79C87.1914 144.857 87.5691 144.626 87.6872 144.39C87.3545 144.562 87.1296 144 87.0182 144.395C87.2651 144.571 87.6185 145.405 87.835 144.789L87.8249 144.79ZM90.5055 145.042C90.0857 145.267 89.9556 144.547 89.8348 144.912C89.9922 144.934 89.9852 145.123 89.9713 145.313C90.2875 145.348 90.4861 145.277 90.5158 145.042L90.5055 145.042ZM97.8734 144.592C97.8738 144.415 98.1077 144.468 98.1391 144.318C98.0344 144.289 97.9826 144.207 98.0027 144.051C97.513 144.002 97.6039 144.459 97.8837 144.592L97.8734 144.592ZM95.4629 144.876C95.7188 144.932 95.708 145.256 96.1342 145.139C96.0679 144.835 95.8644 144.457 96.1286 144.201C95.9709 144.182 95.7487 144.227 95.726 144.071C95.1857 144.223 95.199 144.617 94.5217 144.346C94.3905 144.983 94.9752 144.89 95.4732 144.875L95.4629 144.876ZM89.5771 146.522C89.7106 146.342 89.7958 146.117 89.9761 145.982C89.9796 146.298 90.3413 145.931 90.2419 145.708L90.2435 145.709C89.9474 145.851 89.6037 145.853 89.3057 145.715C89.2867 146.011 89.3886 146.301 89.5871 146.521L89.5771 146.522ZM98.9533 145.791C99.1644 145.414 98.3715 145.426 98.4151 145.659L98.4166 145.659C98.6095 145.631 98.8052 145.678 98.9634 145.79L98.9533 145.791ZM95.623 148.896C95.637 149.106 95.6082 149.36 95.8942 149.295L95.8922 149.028C95.768 149.028 95.7416 148.919 95.6331 148.895L95.623 148.896ZM92.8068 148.512C93.044 148.48 93.4784 148.642 93.3403 148.24C93.0452 148.204 92.8504 148.275 92.8169 148.511L92.8068 148.512ZM89.0503 147.733L89.0523 148C89.1409 148 89.2301 147.999 89.3195 147.999L89.3173 147.731C89.2395 147.73 89.1505 147.732 89.0604 147.732L89.0503 147.733ZM87.7122 148.142C88.1161 147.687 87.2151 147.74 87.7122 148.142ZM88.7869 148.406C88.7578 147.823 88.5526 148.162 88.1146 148.141C88.108 148.677 88.4667 148.492 88.7914 148.404L88.7869 148.406ZM92.425 149.719C92.4021 149.383 92.6328 149.302 92.69 149.047C92.2249 149.168 92.2286 148.844 92.4186 148.647C92.1692 148.52 91.9743 149.052 91.883 148.651C92.2058 148.481 92.3132 148.099 92.4122 147.71C92.1588 147.681 92.1181 147.863 91.8771 147.846C91.8556 148.047 91.9281 148.342 91.745 148.384L91.7449 148.383C91.4109 148.194 91.0474 148.061 90.6709 147.989C90.5594 148.366 90.2425 148.542 90.2766 149.063C90.3806 149.092 90.5412 149.065 90.5451 149.195L90.5442 149.195C90.8713 149.247 91.1944 149.083 91.3457 148.788C91.263 148.602 90.8302 148.772 90.8079 148.524C90.943 148.523 90.9666 148.415 91.0751 148.388C91.2957 148.576 91.7062 148.559 91.747 148.786C91.7487 148.795 91.5067 148.916 91.6148 149.054C91.6852 149.144 92.062 148.975 92.0177 149.186C91.8073 149.28 91.3752 149.216 91.749 149.591C91.928 149.023 92.0639 149.713 92.425 149.719ZM93.2378 151.05C93.3144 150.547 93.8522 148.973 92.9546 149.444C92.9157 149.708 93.1374 149.709 93.2254 149.85C93.0143 149.864 92.7615 149.834 92.8253 150.119C93.0611 150.17 93.167 149.918 93.2275 150.117C93.3411 150.717 92.2165 150.094 92.2924 150.659C92.55 150.908 92.5351 150.577 92.963 150.654L92.9622 150.654C93.0181 150.809 93.112 150.947 93.2362 151.055L93.2378 151.05ZM58.3444 142.971C58.2101 143.021 58.2522 142.875 58.208 142.839C57.9731 142.624 57.6526 142.955 57.8025 143.11C57.8987 143.198 58.3871 143.065 58.3444 142.971ZM56.3435 143.788C56.5038 143.352 55.615 143.645 55.9413 143.925C56.0575 144.028 56.3203 143.841 56.3435 143.788ZM57.696 145.924C57.6142 145.917 57.5376 145.905 57.5595 145.791C57.4702 145.792 57.3819 145.793 57.2925 145.793C57.2766 146.129 57.0393 146.214 57.4296 146.328C57.3864 146.065 57.6071 146.061 57.6928 145.923L57.696 145.924ZM64.1276 145.883C64.4041 145.45 63.9688 145.157 63.8494 144.946C63.8794 145 64.0379 144.728 63.7132 144.815C63.5356 144.817 63.5926 145.051 63.4475 145.089C63.5877 145.436 63.6754 145.844 64.1244 145.882L64.1276 145.883ZM62.9347 147.9C63.1839 147.77 63.3863 148.299 63.472 147.897C63.3853 147.859 62.9495 147.567 62.9315 147.9L62.9347 147.9ZM64.0018 147.089C63.9125 147.089 63.8242 147.091 63.7348 147.091C63.7639 146.614 63.6385 146.289 63.3264 146.156C63.1237 146.294 63.3663 146.454 63.3292 146.558C63.2922 146.662 62.9568 146.697 63.0605 146.963C63.4309 147.189 63.7465 147.789 63.9978 147.089L64.0018 147.089ZM73.5236 148.233C73.5629 147.918 74.1575 148.15 74.0559 147.695C73.5444 147.584 73.0507 147.485 72.8569 147.969C73.1776 147.949 73.2639 148.178 73.5203 148.232L73.5236 148.233ZM74.06 149.032C74.2726 148.655 73.4795 148.665 73.5233 148.9C73.706 148.945 73.7804 149.093 74.06 149.032ZM75.1361 149.56L75.1341 149.293L74.8656 149.295L74.8676 149.562L75.1361 149.56ZM78.0934 150.749C78.2079 150.318 77.743 150.471 77.6878 150.217C77.7693 150.208 77.8463 150.196 77.8204 150.08C77.6206 150.104 77.3259 150.034 77.2854 150.217C77.6479 150.3 77.6222 150.777 78.0934 150.749ZM79.5867 153.822C79.6279 153.791 79.5578 153.6 79.5847 153.555C79.5969 153.535 79.7936 153.453 79.5846 153.42C79.6205 153.426 79.3157 153.676 79.3189 153.694C79.4111 153.728 79.5003 153.772 79.5851 153.822L79.5867 153.822ZM93.6797 157.347L93.6789 157.347C93.9695 157.541 94.2397 157.764 94.4867 158.012C94.4071 157.682 94.0559 156.932 93.6786 157.349L93.6797 157.347ZM95.0194 157.337L95.0159 156.802C94.577 156.779 94.4904 157.436 95.0161 157.341L95.0194 157.337ZM94.8781 156.002L94.8788 156.271C95.0501 156.278 95.0656 156.442 95.2818 156.403L95.2787 156L94.8781 156.002ZM93.9402 156.142L93.9395 156.142C94.1201 156.189 94.2371 156.363 94.2118 156.547C94.4435 156.498 94.6849 156.544 94.8816 156.677C94.8667 156.592 94.9036 156.492 94.8796 156.41C94.8311 156.233 94.7618 156.351 94.611 156.277C94.5045 156.224 94.6157 156.138 94.4759 156.278C94.4202 156.334 94.2533 156.024 94.2021 156.012C94.1174 155.98 93.9289 156.055 93.9378 156.142L93.9402 156.142ZM97.6856 155.184C98.3278 155.552 98.0072 154.743 97.6856 155.184ZM93.2735 155.881C93.1024 155.875 93.0869 155.711 92.8706 155.749C92.8883 156.092 93.1199 156.217 93.2779 156.418C93.3534 156.137 93.607 156.032 93.5407 155.611C92.9455 155.515 93.643 155.873 93.2672 155.877L93.2735 155.881ZM92.4685 155.752C92.3855 155.802 92.5433 156.217 92.3363 156.155C92.329 156.073 92.3164 155.997 92.1998 156.023C92.0432 156.422 92.7681 156.595 92.8711 156.286C92.4912 156.348 92.6796 155.622 92.4615 155.749L92.4685 155.752ZM95.4027 153.59C95.5723 154.022 94.968 153.695 95.1385 154.127C95.4025 154.167 95.4036 153.945 95.5385 153.858C95.882 153.926 96.009 154.032 96.2077 153.719C95.9295 153.778 95.6403 153.73 95.3958 153.586L95.4027 153.59ZM93.511 152.258L93.7798 152.258C93.8872 152.225 94.0435 152.251 94.0468 152.121C93.847 152.145 93.5517 152.076 93.511 152.258ZM92.9725 151.86C92.6611 151.906 92.3963 152.001 92.3048 152.267C92.4842 152.266 92.6626 152.264 92.8419 152.263L92.8418 152.262C92.8384 152.118 92.8846 151.976 92.9725 151.86ZM90.8304 152.01C90.7992 151.757 90.9799 151.714 90.9627 151.474C90.7987 151.49 90.6459 151.516 90.697 151.748C90.533 151.764 90.3802 151.79 90.4321 152.021L90.8304 152.01ZM81.5961 153.812C81.6854 153.811 81.7755 153.811 81.8647 153.81C82.5977 153.84 81.5663 153.432 81.5957 153.81L81.5961 153.812ZM90.0288 152.417C89.6309 152.327 89.3677 152.26 89.2261 152.422L89.2255 152.423C89.3193 152.551 89.4702 152.627 89.6289 152.625C89.7883 152.623 89.9366 152.545 90.0276 152.415L90.0288 152.417ZM91.6372 152.406C91.7082 152.428 91.832 152.825 91.9064 152.538C91.8246 152.532 91.7481 152.519 91.7699 152.406L91.7693 152.406C91.9259 152.353 92.0653 152.259 92.1747 152.136C91.5908 152.322 91.8868 151.619 91.3677 151.739C91.4245 152.062 91.1242 152.031 91.2376 152.41C91.3809 152.608 91.5216 152.369 91.636 152.404L91.6372 152.406ZM82.9415 154.606C83.0237 154.615 83.1 154.626 83.0784 154.741L83.0785 154.742C82.9328 154.745 82.7901 154.698 82.6754 154.609C82.6002 154.891 82.3455 154.994 82.4127 155.415C82.5947 155.456 82.673 155.604 82.9493 155.547C83.0304 155.397 82.7851 155.208 82.8129 155.146C82.8539 155.056 83.1711 155.083 83.2144 155.01C83.3637 154.762 83.3158 154.235 82.9421 154.609L82.9415 154.606ZM91.5166 154.417C91.6598 154.4 91.9247 154.476 92.0523 154.415C92.1169 154.382 92.0262 154.092 92.1852 154.145C92.1247 154.363 92.9153 154.356 92.8542 154.14C92.5143 154.052 93.3352 153.692 92.717 153.604C92.6985 153.854 92.2641 153.691 92.1837 153.877C92.1803 153.521 92.229 153.111 92.0437 152.939C92.5141 152.835 92.6459 153.286 92.4488 153.474C92.8042 153.561 92.6072 153.242 92.7175 153.069C92.7723 152.98 92.9977 152.963 92.9832 152.795C92.7267 152.735 92.4091 153.213 92.4466 152.663C92.0326 152.567 92.1907 153.033 91.7781 152.936C91.1044 153.013 90.6746 152.401 90.0362 152.947C90.1187 153.178 90.6717 152.931 90.7075 153.211C90.5456 153.239 90.6263 153.36 90.7097 153.479L90.7086 153.482C90.5628 153.484 90.421 153.438 90.3049 153.35C90.4513 153.794 90.2665 153.81 90.4448 154.287C90.614 154.309 90.9814 154.235 90.983 154.419C90.9813 154.701 91.3582 154.434 91.5162 154.415L91.5166 154.417ZM93.9354 155.069C93.959 154.88 93.9094 154.688 93.7975 154.533C93.905 154.502 94.0616 154.528 94.0641 154.399C93.8734 154.367 93.8369 154.178 93.6608 154.13C93.8234 154.55 93.5899 154.711 93.9354 155.069ZM92.0624 156.019C92.1016 155.703 92.5258 155.767 92.4596 155.347C91.9357 155.22 91.5342 155.894 92.0618 156.02L92.0624 156.019ZM88.1856 157.518C87.8527 157.501 88.1444 157.065 88.1829 156.982C87.8699 156.943 87.604 156.7 87.5137 157.121C87.8102 157.103 87.8819 157.989 88.1856 157.518ZM88.3178 157.25C89.1845 157.54 88.6737 156.765 88.3178 157.25ZM89.7934 157.374C89.8215 157.12 89.6401 157.079 89.6563 156.839C89.9785 157.141 90.2007 156.593 90.1883 156.164C89.7257 156.111 89.7881 156.568 89.522 156.705C89.3093 156.907 89.3288 157.471 89.7919 157.37L89.7934 157.374ZM90.1954 157.371C90.21 157.036 90.4485 156.949 90.0584 156.836C89.8833 157.014 89.9779 157.241 90.1948 157.372L90.1954 157.371ZM91.272 158.035C91.4704 157.932 91.2669 157.67 91.1348 157.5C91.0921 157.446 91.1781 157.283 91.1325 157.231C91.1027 157.197 90.8096 157.288 90.8662 157.367C91.1661 157.421 90.8495 158.102 91.2712 158.035L91.272 158.035ZM92.4757 158.43C92.0732 158.43 93.0373 158.053 92.4719 157.893C92.4609 158.368 92.0278 157.612 92.0707 158.031C92.2681 158.033 92.2838 158.871 92.4803 158.429L92.4757 158.43ZM95.283 158.275C95.8587 157.714 94.8159 158.196 95.2803 157.739C94.7827 157.649 94.9482 158.21 94.7481 158.413L94.7474 158.413C94.9406 158.441 95.1368 158.392 95.2943 158.276L95.283 158.275ZM96.3456 156.927L96.0786 156.929L96.0771 156.929C96.0772 157.006 96.1396 157.069 96.2163 157.069C96.293 157.068 96.3556 157.006 96.3555 156.929L96.3456 156.927ZM25.4836 96.8232C25.882 96.7862 26.1435 97.3499 26.2877 96.8175C26.1074 96.4902 25.8853 97.0608 25.7511 96.6851C25.906 96.6578 25.8947 96.4723 25.883 96.2806C25.53 96.248 25.5393 96.5651 25.4836 96.8232ZM94.3593 159.085C94.2139 159.091 94.0712 159.044 93.9566 158.955C93.9371 159.288 94.1691 159.37 94.2287 159.623C94.1551 159.623 94.0772 159.733 94.2293 159.757C94.2561 159.595 94.3775 159.673 94.4963 159.755C94.55 159.431 94.2507 159.465 94.3593 159.085ZM85.3617 156.062C85.0546 156.249 84.8546 155.72 84.8246 156.065C84.9072 156.072 84.9844 156.084 84.961 156.198C84.7612 156.222 84.4668 156.154 84.426 156.335C84.5898 156.349 84.7437 156.374 84.7001 156.602C85.154 156.655 85.4586 156.557 85.3617 156.062ZM96.3499 156.124C96.4863 156.109 96.6247 156.701 96.7528 156.257C96.5594 156.33 96.4223 155.737 96.3499 156.124ZM55.2522 141.382C54.6817 141.22 54.8954 141.83 54.586 141.924L54.5852 141.924C54.4915 141.796 54.3413 141.72 54.1824 141.721C54.0229 141.722 53.8736 141.799 53.781 141.929C53.9423 141.956 53.8639 142.076 53.7817 142.198C54.3845 142.037 55.1638 142.052 55.2522 141.382ZM84.7073 137.842C84.9901 137.517 84.9677 137.699 84.7054 137.441C84.6496 137.389 84.6178 137.316 84.6171 137.241C84.6163 137.164 84.6477 137.091 84.7026 137.039C84.4534 137.169 84.251 136.64 84.167 137.042C84.6789 137.039 84.2937 137.344 84.3032 137.578C84.3018 137.538 84.4252 137.664 84.4398 137.711C84.4771 137.832 84.412 137.988 84.4417 138.112C84.7136 138.196 84.6168 137.948 84.7073 137.842ZM98.2151 134.001C98.4616 134.157 97.9083 134.118 98.2186 134.536C97.8476 134.361 97.763 135.07 97.9522 134.672C98.3792 134.456 98.7121 134.684 98.7593 135.203C99.283 134.988 99.0394 135.549 99.2978 135.602C99.2982 135.425 99.5321 135.478 99.5635 135.328L99.5643 135.328C99.4036 135.17 99.2667 134.991 99.1577 134.794C99.3571 134.861 99.4976 134.99 99.6955 135.058L99.6956 135.059C99.5245 134.797 99.5809 134.449 99.8248 134.253C99.3496 134.24 98.9743 134.126 98.8835 133.723L98.8827 133.723C98.6248 133.674 98.3626 133.783 98.2151 134.001ZM99.9534 133.318C99.8663 133.12 99.7963 133.069 99.6842 133.186C99.3493 133.525 99.1011 132.894 99.0157 133.325C99.2162 133.493 99.4212 133.87 99.6869 133.588C99.7146 133.745 99.6671 133.968 99.8235 133.99L99.8236 133.991C99.9383 133.758 100.126 133.568 100.356 133.45C100.356 133.526 100.466 133.601 100.49 133.449C100.214 133.415 100.454 132.857 100.084 132.917C100.066 133.077 100.11 133.3 99.9541 133.322L99.9534 133.318ZM97.5398 133.064C97.3607 133.663 98.5802 133.178 98.0756 133.061C98.0472 133.412 97.846 132.885 97.5386 133.07L97.5398 133.064ZM99.9402 131.18C99.7841 131.51 99.4319 130.908 99.2715 131.317C99.6131 131.469 100.004 131.467 100.343 131.31C100.032 130.893 100.584 130.927 100.339 130.775C100.031 130.733 100.192 131.157 99.9402 131.18ZM99.4009 130.647C99.2669 130.273 99.0441 130.843 98.8643 130.515C98.8354 130.768 99.0175 130.809 99.0013 131.05C99.2548 131.078 99.2962 130.896 99.5365 130.913C99.3801 130.52 100.175 130.411 99.8 130.241C99.6723 130.378 99.5373 130.515 99.4009 130.647ZM68.2694 123.21C67.7773 123.375 67.9807 122.761 67.9956 122.945C67.9554 122.582 67.7581 122.158 67.1885 122.413C67.0584 122.563 67.4633 122.756 67.5935 122.948C67.6855 123.083 67.7576 122.976 67.8629 123.08C67.8908 123.109 67.831 123.334 67.8636 123.349C67.993 123.397 68.2657 123.311 68.2646 123.21L68.2694 123.21ZM92.1104 121.716C92.4386 121.842 92.5502 121.111 92.3746 121.178C92.371 121.445 92.0064 121.351 92.1063 121.715L92.1104 121.716ZM99.3418 120.999C99.3419 121.134 99.4515 121.159 99.4774 121.266C99.315 121.282 99.1606 121.308 99.2125 121.54L99.6147 121.537C99.8302 121.082 98.9808 120.746 99.337 120.999L99.3418 120.999ZM98.2507 118.058C98.0882 118.074 97.9339 118.101 97.9857 118.332C98.2229 118.578 98.4 118.295 98.5192 118.061C98.2105 118.104 98.3681 117.675 98.1141 117.661C97.8451 117.965 98.1451 117.805 98.2459 118.058L98.2507 118.058ZM45.9266 108.614C45.8137 108.875 46.138 108.804 46.2005 108.88C46.2343 108.924 46.1587 109.114 46.2025 109.147C46.3315 109.237 46.626 109.234 46.6053 109.144C46.2887 109.057 46.2382 108.704 45.9266 108.614ZM99.6643 129.979C99.5003 129.996 99.3472 130.02 99.3986 130.253C99.7697 130.061 100.198 130.011 100.604 130.112C100.809 129.634 100.148 130.033 100.199 129.713C100.306 129.683 100.353 129.599 100.331 129.443C100.009 129.5 100.038 129.202 99.6609 129.314C99.6469 129.638 99.4101 129.722 99.6636 129.976L99.6643 129.979Z" fill="white"/>
<path d="M44.498 25.9431C44.6924 24.8401 43.8488 23.6353 42.9428 23.4755C41.1308 23.156 35.5616 32.1658 34.6864 37.1293C34.2627 39.5322 36.0705 42.4098 38.2765 42.7988C40.0097 43.1044 42.3151 42.0081 44.4651 39.9502C41.2127 45.9566 38.938 50.7951 36.8896 50.434C34.4472 50.0033 33.404 46.2451 32.4586 46.0784C32.0253 46.002 30.9178 46.9846 30.7858 47.733C30.4455 49.6632 33.3979 52.499 36.3917 53.0269C39.425 53.5617 41.575 51.5038 43.5811 47.9583C49.7872 36.9487 54.0451 29.6167 54.2326 28.5531C54.5174 26.938 53.5 25.337 52.5939 25.1773C52.003 25.0731 51.8687 25.3743 51.4934 26.1205C48.3986 32.1548 42.1411 40.2309 39.1079 39.696C38.3988 39.571 37.8727 38.869 38.0256 38.0024C38.9424 32.8026 44.241 27.4006 44.498 25.9431ZM65.2684 27.4121C60.5413 26.5786 53.95 33.093 52.9637 38.6867C52.3038 42.429 54.6144 45.6796 58.7506 46.4089C61.902 46.9646 66.2233 45.4926 66.4664 44.1139C66.5497 43.6412 66.3295 43.2774 65.5811 43.1455C64.4781 42.951 62.5805 44.038 58.7201 43.3573C56.5535 42.9752 55.5987 41.7102 55.9112 39.9376C56.0779 38.9922 56.4624 37.9633 57.0114 36.9228C58.3995 37.5737 60.0123 38.1018 61.8637 38.4283C65.8424 39.1298 69.8068 37.8386 70.2722 35.1993C70.7792 32.3237 68.5774 27.9956 65.2684 27.4121ZM64.956 30.5658C66.256 30.795 67.4913 33.0031 67.269 34.2636C66.9982 35.7999 64.6324 36.317 61.4023 35.7474C60.4962 35.5877 59.3353 35.2611 58.3134 34.8372C60.1922 32.2441 62.9076 30.2046 64.956 30.5658ZM87.8046 36.7067C88.138 34.8159 86.4692 31.1504 83.9481 30.7059C78.7483 29.789 70.7461 38.776 69.9196 43.4637C69.5236 45.709 72.0335 48.7511 74.3971 49.1678C76.5242 49.5429 79.3672 47.9321 81.6817 45.8626C81.3484 48.4439 81.6452 50.4459 82.5907 50.6126C83.4967 50.7723 83.8532 48.52 84.7172 46.1541C85.8035 43.2181 86.4104 41.6192 86.6187 40.4375C86.6743 40.1223 86.5399 39.7331 86.3266 39.3299C86.9777 38.6324 87.6518 37.5733 87.8046 36.7067ZM73.2285 44.0471C73.805 40.7776 80.4959 33.4684 83.7261 34.0379C84.7897 34.2255 84.8849 35.9888 84.5376 37.9584L84.5307 37.9978C84.1622 38.0141 83.8773 38.2482 83.736 38.5888C81.54 43.4412 77.1008 46.2733 74.816 45.8705C73.8706 45.7038 73.0618 44.9925 73.2285 44.0471Z" fill="white"/>
</svg>
